<?xml version="1.0" encoding="UTF-8"?><!DOCTYPE svg PUBLIC "-//W3C//DTD SVG 1.1//EN" "http://www.w3.org/Graphics/SVG/1.1/DTD/svg11.dtd"><svg xmlns="http://www.w3.org/2000/svg" xmlns:xlink="http://www.w3.org/1999/xlink" xmlns:sketch="http://www.bohemiancoding.com/sketch/ns"><symbol id="add" viewBox="0 0 60 60">
<style type="text/css">
	.st0{fill-rule:evenodd;clip-rule:evenodd;fill:#231F20;}
	.st1{fill:#231F20;}
	.st2{fill-rule:evenodd;clip-rule:evenodd;}
	.st3{fill:#202020;}
</style>
<path class="st2" d="M58.956,30.5h-27.64v28.457c0,0.578-0.467,1.043-1.044,1.043c-0.577,0-1.044-0.465-1.044-1.043V30.5H1.044
	C0.467,30.5,0,30.035,0,29.457c0-0.578,0.467-1.044,1.044-1.044h28.184V1.043C29.228,0.465,29.695,0,30.272,0
	c0.577,0,1.044,0.465,1.044,1.043v27.37h27.64c0.577,0,1.044,0.466,1.044,1.044C60,30.035,59.533,30.5,58.956,30.5z"/>
</symbol><symbol id="alert" viewBox="0 0 60 60">
<style type="text/css">
	.st0{fill-rule:evenodd;clip-rule:evenodd;fill:#231F20;}
	.st1{fill:#231F20;}
	.st2{fill-rule:evenodd;clip-rule:evenodd;}
	.st3{fill:#202020;}
</style>
<g>
	<path class="st1" d="M30.508,0l-0.531,0.005C13.166,0.298-0.278,13.986,0.009,30.522C0.296,47.05,13.246,60,29.492,60l0.531-0.005
		c16.811-0.293,30.255-13.981,29.968-30.517C59.702,12.95,46.752,0,30.508,0z M29.977,57.387l-0.485,0.005
		c-14.808,0-26.612-11.824-26.875-26.915C2.355,15.379,14.649,2.881,30.023,2.613l0.485-0.005c14.806,0,26.611,11.824,26.875,26.915
		C57.645,44.621,45.351,57.119,29.977,57.387z"/>
	<path class="st1" d="M30,35.211c0.721,0,1.304-0.583,1.304-1.304V15.649c0-0.721-0.583-1.304-1.304-1.304s-1.304,0.583-1.304,1.304
		v18.258C28.696,34.628,29.279,35.211,30,35.211z"/>
	<path class="st1" d="M30.003,40.43h-0.001c-0.016,0-0.032,0-0.047,0c-1.439,0.023-2.587,1.212-2.562,2.652
		c0.025,1.425,1.187,2.563,2.607,2.563c0.015,0,0.031,0,0.046-0.001c1.438-0.026,2.587-1.213,2.563-2.652
		C32.583,41.567,31.422,40.43,30.003,40.43z"/>
</g>
</symbol><symbol id="audio" viewBox="0 0 60 60">
<style type="text/css">
	.st0{fill-rule:evenodd;clip-rule:evenodd;fill:#231F20;}
	.st1{fill:#231F20;}
	.st2{fill-rule:evenodd;clip-rule:evenodd;}
	.st3{fill:#202020;}
</style>
<path d="M60,38.75c0-3.019-2.151-5.543-5-6.124V31.25c0-3.447-2.804-6.25-6.25-6.25h-0.063C48.039,15.244,39.917,7.5,30,7.5
	c-9.917,0-18.039,7.744-18.687,17.5H11.25C7.804,25,5,27.803,5,31.25v1.376c-2.849,0.581-5,3.105-5,6.124s2.151,5.543,5,6.124v1.376
	c0,3.447,2.804,6.25,6.25,6.25h5c0.691,0,1.25-0.559,1.25-1.25v-25c0-0.691-0.559-1.25-1.25-1.25h-2.436
	C14.455,16.624,21.462,10,30,10s15.544,6.624,16.187,15H43.75c-0.691,0-1.25,0.559-1.25,1.25v25c0,0.691,0.559,1.25,1.25,1.25h5
	c3.446,0,6.25-2.803,6.25-6.25v-1.376C57.849,44.293,60,41.769,60,38.75z M2.5,38.75c0-1.627,1.048-3.002,2.5-3.52v7.04
	C3.548,41.752,2.5,40.377,2.5,38.75z M15,50h-3.75c-2.068,0-3.75-1.682-3.75-3.75v-15c0-2.068,1.682-3.75,3.75-3.75H15V50z
	 M52.5,46.25c0,2.068-1.682,3.75-3.75,3.75H45V27.5h3.75c2.068,0,3.75,1.682,3.75,3.75V46.25z M55,42.27v-7.04
	c1.452,0.518,2.5,1.893,2.5,3.52S56.452,41.752,55,42.27z"/>
</symbol><symbol id="bookmark" viewBox="0 0 60 60">
    <title>Slice 1</title>
    <description>Created with Sketch (http://www.bohemiancoding.com/sketch)</description>
    
    <g id="Page-1" stroke="none" stroke-width="1" fill-rule="evenodd" sketch:type="MSPage">
        <g id="bookmark" sketch:type="MSLayerGroup" transform="translate(1.000000, 0.000000)">
            <path d="M43.648,59.88 C43.497,59.96 43.332,60 43.167,60 C42.976,60 42.786,59.946 42.619,59.841 L21.574,46.33 L1.398,59.829 C1.087,60.036 0.688,60.055 0.361,59.883 C0.032,59.708 -0.174,59.371 -0.174,59.001 L-0.174,0.999 C-0.174,0.448 0.277,0 0.834,0 L43.167,0 C43.724,0 44.175,0.448 44.175,0.999 L44.175,59.001 C44.174,59.367 43.972,59.703 43.648,59.88 L43.648,59.88 Z M42.158,2 L1.842,2 L1.842,57.12 L20.998,44.301 C21.168,44.188 21.365,44.13 21.562,44.13 C21.752,44.13 21.943,44.184 22.109,44.291 L42.158,57.16 L42.158,2 L42.158,2 Z M13.507,36.819 C13.168,37.055 12.722,37.064 12.377,36.838 C12.033,36.615 11.859,36.206 11.94,35.805 L13.849,26.33 L7.176,19.708 C6.887,19.421 6.801,18.992 6.957,18.618 C7.112,18.242 7.481,18.001 7.888,18.001 L17.316,18.001 L20.642,10.676 C20.807,10.314 21.155,10.12 21.568,10.087 C21.966,10.088 22.327,10.325 22.485,10.69 L25.684,18.001 L35.102,18.001 C35.509,18.001 35.878,18.243 36.033,18.618 C36.19,18.992 36.103,19.42 35.814,19.708 L29.141,26.33 L31.05,35.805 C31.131,36.208 30.956,36.618 30.61,36.84 C30.445,36.946 30.253,37 30.063,37 C29.858,37 29.654,36.939 29.479,36.815 L21.557,31.224 L13.507,36.819 L13.507,36.819 Z M22.147,29.186 L28.576,33.724 L27.059,26.196 C26.993,25.867 27.096,25.528 27.334,25.293 L32.669,20.001 L25.023,20.001 C24.622,20.001 24.258,19.763 24.098,19.398 L21.543,13.559 L18.886,19.411 C18.723,19.77 18.363,20.001 17.967,20.001 L10.321,20.001 L15.656,25.293 C15.894,25.529 15.997,25.868 15.931,26.196 L14.409,33.749 L20.982,29.18 C21.333,28.939 21.797,28.938 22.147,29.186 L22.147,29.186 Z" id="Shape" sketch:type="MSShapeGroup"/>
        </g>
    </g>
</symbol><symbol id="bookmarked" viewBox="0 0 60 60">
    <title>Untitled 6</title>
    <description>Created with Sketch (http://www.bohemiancoding.com/sketch)</description>
    
    <g id="Page-1" stroke="none" stroke-width="1" fill-rule="evenodd" sketch:type="MSPage">
        <g id="bookmarked" sketch:type="MSLayerGroup" transform="translate(1.000000, 0.000000)">
            <path d="M43.648,59.879 C43.497,59.961 43.331,60 43.166,60 C42.975,60 42.785,59.945 42.618,59.84 L21.574,46.329 L1.398,59.829 C1.087,60.036 0.688,60.054 0.361,59.884 C0.032,59.708 -0.174,59.371 -0.174,59 L-0.174,1 C-0.174,0.446 0.277,0 0.834,0 L43.166,0 C43.723,0 44.174,0.446 44.174,1 L44.174,59 C44.174,59.367 43.972,59.703 43.648,59.879 Z M13.508,36.819 C13.169,37.053 12.723,37.062 12.378,36.835 C12.034,36.614 11.86,36.204 11.941,35.803 L13.85,26.328 L7.177,19.707 C6.888,19.42 6.802,18.991 6.958,18.617 C7.114,18.242 7.482,18 7.89,18 L17.318,18 L20.644,10.676 C20.809,10.314 21.157,10.119 21.57,10.087 C21.969,10.088 22.329,10.325 22.487,10.69 L25.685,18 L35.102,18 C35.509,18 35.878,18.242 36.033,18.618 C36.19,18.992 36.103,19.42 35.814,19.708 L29.141,26.329 L31.05,35.804 C31.131,36.207 30.957,36.616 30.61,36.839 C30.444,36.945 30.253,37 30.063,37 C29.858,37 29.654,36.938 29.479,36.816 L21.557,31.224 L13.508,36.819 Z M22.147,29.186 L28.577,33.723 L27.06,26.196 C26.994,25.867 27.097,25.527 27.335,25.292 L32.67,20 L25.024,20 C24.622,20 24.259,19.762 24.099,19.397 L21.544,13.559 L18.888,19.411 C18.724,19.77 18.365,20 17.968,20 L10.322,20 L15.657,25.293 C15.895,25.528 15.998,25.868 15.932,26.197 L14.41,33.75 L20.983,29.182 C21.332,28.938 21.797,28.937 22.147,29.186 L22.147,29.186 Z" id="Shape" sketch:type="MSShapeGroup"/>
        </g>
    </g>
</symbol><symbol id="calendar" viewBox="0 0 60 60">
<style type="text/css">
	.st0{fill-rule:evenodd;clip-rule:evenodd;fill:#231F20;}
	.st1{fill:#231F20;}
	.st2{fill-rule:evenodd;clip-rule:evenodd;}
	.st3{fill:#202020;}
</style>
<path class="st2" d="M59,60H1c-0.553,0-1-0.448-1-1V5c0-0.554,0.447-1.001,1-1.001h9v-3C10,0.446,10.447,0,11,0h8
	c0.553,0,1,0.446,1,0.999v3h20v-3C40,0.446,40.447,0,41,0h8c0.553,0,1,0.446,1,0.999v3h9c0.553,0,1,0.447,1,1.001v54
	C60,59.552,59.553,60,59,60z M18,1.999h-6v8h6V1.999z M48,1.999h-6v8h6V1.999z M58,6h-8v5c0,0.551-0.447,1-1,1h-8
	c-0.553,0-1-0.448-1-1V6H20v5c0,0.551-0.447,1-1,1h-8c-0.553,0-1-0.448-1-1V6H2v11.999h56V6z M58,19.999H2v37.999h56V19.999z
	 M6.043,29.999c-0.553,0-1-0.448-1-1c0-0.553,0.447-1.001,1-1.001H14v-4.303c0-0.553,0.448-1.002,1-1.002c0.553,0,1,0.449,1,1.002
	v4.303h12v-4.303c0-0.553,0.447-1.002,1-1.002c0.553,0,1,0.449,1,1.002v4.303h12v-4.303c0-0.553,0.447-1.002,1-1.002
	c0.553,0,1,0.449,1,1.002v4.303h9.957c0.553,0,1,0.448,1,1.001c0,0.551-0.447,1-1,1H44v8h9.957c0.553,0,1,0.448,1,1
	c0,0.553-0.447,0.999-1,0.999H44v8.001h9.957c0.553,0,1,0.447,1,1c0,0.551-0.447,0.999-1,0.999H44v3.955c0,0.554-0.447,1-1,1
	c-0.553,0-1-0.446-1-1v-3.955H30v3.955c0,0.554-0.447,1-1,1c-0.553,0-1-0.446-1-1v-3.955H16v3.955c0,0.554-0.447,1-1,1
	c-0.553,0-1-0.446-1-1v-3.955H6.043c-0.553,0-1-0.448-1-0.999c0-0.554,0.447-1,1-1H14v-8.001H6.043c-0.553,0-1-0.446-1-0.999
	c0-0.552,0.447-1,1-1H14v-8H6.043z M28,29.999H16v8h12V29.999z M42,29.999H30v8h12V29.999z M42,47.999v-8.001H30v8.001H42z
	 M28,47.999v-8.001H16v8.001H28z"/>
</symbol><symbol id="chart" viewBox="0 0 60 60">
<style type="text/css">
	.st0{fill-rule:evenodd;clip-rule:evenodd;fill:#231F20;}
	.st1{fill:#231F20;}
	.st2{fill-rule:evenodd;clip-rule:evenodd;}
	.st3{fill:#202020;}
</style>
<g>
	<g>
		<path d="M58.749,47.517h-1.249V11.234c0-0.692-0.56-1.252-1.251-1.252h-7.5c-0.69,0-1.25,0.56-1.25,1.252v36.283h-4.999V28.749
			c0-0.692-0.56-1.252-1.25-1.252h-7.5c-0.69,0-1.25,0.56-1.25,1.252v18.768h-4.998V23.745c0-0.692-0.561-1.252-1.251-1.252h-7.5
			c-0.691,0-1.251,0.56-1.251,1.252v23.772h-4.999V36.256c0-0.692-0.56-1.252-1.25-1.252h-7.5c-0.69,0-1.25,0.56-1.25,1.252v11.261
			H1.25c-0.69,0-1.25,0.558-1.25,1.25c0,0.691,0.561,1.251,1.25,1.251h57.499c0.69,0,1.251-0.56,1.251-1.251
			C60,48.075,59.44,47.517,58.749,47.517z M5.002,47.517V37.506h4.999v10.011H5.002z M20.002,47.517V24.995h4.999v22.522H20.002z
			 M35.001,47.517V29.999H40v17.517H35.001z M50.001,47.517V12.483H55v35.033H50.001z"/>
	</g>
</g>
</symbol><symbol id="check" viewBox="0 0 60 60">
<style type="text/css">
	.st0{fill-rule:evenodd;clip-rule:evenodd;fill:#231F20;}
	.st1{fill:#231F20;}
	.st2{fill-rule:evenodd;clip-rule:evenodd;}
	.st3{fill:#202020;}
</style>
<g>
	<g>
		<path d="M41.646,20.337L23.781,37.011l-5.397-5.394c-0.488-0.49-1.279-0.49-1.767,0c-0.488,0.488-0.488,1.279,0,1.767l6.25,6.25
			C23.11,39.878,23.431,40,23.75,40c0.306,0,0.613-0.112,0.853-0.337l18.75-17.499c0.504-0.472,0.531-1.261,0.061-1.764
			C42.943,19.896,42.152,19.867,41.646,20.337z M30,0C13.459,0,0.001,13.457,0.001,30.001C0.001,46.543,13.459,60,30,60
			s29.999-13.457,29.999-29.999C59.999,13.457,46.541,0,30,0z M30,57.499c-15.163,0-27.499-12.336-27.499-27.498
			c0-15.164,12.336-27.5,27.499-27.5s27.499,12.336,27.499,27.5C57.499,45.163,45.163,57.499,30,57.499z"/>
	</g>
</g>
</symbol><symbol id="collapse" viewBox="0 0 60 60">
<style type="text/css">
	.st0{fill-rule:evenodd;clip-rule:evenodd;fill:#231F20;}
	.st1{fill:#231F20;}
	.st2{fill-rule:evenodd;clip-rule:evenodd;}
	.st3{fill:#202020;}
</style>
<g>
	<g>
		<path class="st2" d="M3.529,10.587h10.588V7.059H0v45.882h14.118v-3.529H3.529V10.587z M45.882,7.059v3.528h10.588v38.824H45.882
			v3.529H60V7.059H45.882z M45.882,28.236H14.118v3.528h31.765V28.236z"/>
	</g>
</g>
</symbol><symbol id="doc" viewBox="0 0 60 60">
<style type="text/css">
	.st0{fill-rule:evenodd;clip-rule:evenodd;fill:#231F20;}
	.st1{fill:#231F20;}
	.st2{fill-rule:evenodd;clip-rule:evenodd;}
	.st3{fill:#202020;}
</style>
<g>
	<g>
		<g>
			<path d="M47.5,10.8l-7.3-7.3C38.3,1.6,34.4,0,31.7,0H14c-2.8,0-5,2.2-5,5v50c0,2.8,2.2,5,5,5h32c2.8,0,5-2.2,5-5V19.3
				C51,16.6,49.4,12.7,47.5,10.8z M36.5,3.9c0.8,0.4,1.5,0.9,2,1.4l7.3,7.3c0.4,0.4,0.8,1,1.2,1.6h-6.6c-2.1,0-3.8-1.7-3.8-3.7V3.9
				H36.5z M48.5,55c0,1.4-1.1,2.5-2.5,2.5H14c-1.4,0-2.5-1.1-2.5-2.5V5c0-1.4,1.1-2.5,2.5-2.5h17.7c0.7,0,1.5,0.2,2.3,0.4v7.5
				c0,3.4,2.8,6.3,6.2,6.3H48c0.3,0.9,0.5,1.9,0.5,2.7V55z"/>
		</g>
	</g>
	<g>
		<path d="M18.3,29.6c0.2,0.4,0.4,1.2,0.6,1.9l3.9,14.9H26l3.5-12.6l3.1,12.6h3.3l4.5-13.5c0.4-1.2,0.6-1.9,0.8-2.5
			c0.2-0.6,0.4-1,0.6-1.2c0.2-0.2,0.4-0.6,0.6-0.6c0.2-0.2,0.4-0.4,0.8-0.4v-1.4h-6.2v1.4c0.4,0,0.8,0.4,1.2,0.6
			c0.2,0.4,0.4,0.8,0.4,1.4c0,0.4,0,0.8-0.2,1.4c0,0.6-0.2,1.2-0.4,1.7l-2.1,7l-3.1-13.4h-3.1l-3.7,13.4l-1.9-8.1
			c-0.2-0.4-0.2-0.8-0.4-1.2c0-0.4-0.2-0.8-0.2-1.2c0-0.6,0.2-0.8,0.4-1.2c0.2-0.2,0.6-0.4,1.2-0.6v-1.4h-7.9v1.4
			c0.4,0,0.6,0.2,0.8,0.4C17.9,28.8,18.1,29,18.3,29.6z"/>
	</g>
</g>
</symbol><symbol id="down-arrow" viewBox="0 0 60 60">
<style type="text/css">
	.st0{fill-rule:evenodd;clip-rule:evenodd;fill:#231F20;}
	.st1{fill:#231F20;}
	.st2{fill-rule:evenodd;clip-rule:evenodd;}
	.st3{fill:#202020;}
</style>
<path class="st2" d="M59.695,14.168c0.396,0.386,0.408,1.026,0.023,1.425l-29,30.228c-0.375,0.394-1.063,0.394-1.438,0l-29-30.228
	c-0.385-0.399-0.373-1.039,0.023-1.425c0.403-0.387,1.033-0.377,1.414,0.023L30,43.67l28.281-29.479
	c0.195-0.205,0.457-0.308,0.719-0.308C59.25,13.883,59.499,13.979,59.695,14.168z"/>
</symbol><symbol id="email" viewBox="0 0 60 60">
<style type="text/css">
	.st0{fill-rule:evenodd;clip-rule:evenodd;fill:#231F20;}
	.st1{fill:#231F20;}
	.st2{fill-rule:evenodd;clip-rule:evenodd;}
	.st3{fill:#202020;}
</style>
<g>
	<g>
		<path d="M54.546,9.546H5.455C2.447,9.546,0,11.992,0,15v30c0,3.008,2.447,5.454,5.455,5.454h49.091
			c3.007,0,5.454-2.446,5.454-5.454V15C60,11.992,57.553,9.546,54.546,9.546z M54.546,12.273c0.165,0,0.326,0.021,0.483,0.049
			L30,32.347L4.972,12.322c0.157-0.028,0.318-0.049,0.483-0.049H54.546z M57.273,45.001c0,1.503-1.223,2.727-2.727,2.727H5.455
			c-1.504,0-2.727-1.224-2.727-2.727V15c0-0.302,0.061-0.587,0.152-0.859l26.269,21.016c0.249,0.198,0.55,0.298,0.852,0.298
			c0.301,0,0.602-0.1,0.851-0.298l26.269-21.016c0.091,0.272,0.152,0.557,0.152,0.859V45.001z"/>
	</g>
</g>
</symbol><symbol id="expand-table" viewBox="0 0 60 60">
<style type="text/css">
	.st0{fill-rule:evenodd;clip-rule:evenodd;fill:#231F20;}
	.st1{fill:#231F20;}
	.st2{fill-rule:evenodd;clip-rule:evenodd;}
	.st3{fill:#202020;}
</style>
<g>
	<path class="st3" d="M58.75,0h-50C8.059,0,7.5,0.559,7.5,1.25v50c0,0.691,0.559,1.25,1.25,1.25h50c0.691,0,1.25-0.559,1.25-1.25
		v-50C60,0.559,59.441,0,58.75,0z M57.5,50h-30v-1.25c0-0.691-0.559-1.25-1.25-1.25S25,48.059,25,48.75V50H10V35h1.25
		c0.691,0,1.25-0.559,1.25-1.25s-0.559-1.25-1.25-1.25H10v-30h47.5V50z"/>
	<path class="st3" d="M31.25,30c0.32,0,0.64-0.122,0.884-0.366L50,11.767v9.483c0,0.691,0.559,1.25,1.25,1.25s1.25-0.559,1.25-1.25
		V8.75c0-0.162-0.033-0.325-0.096-0.477c-0.127-0.306-0.37-0.55-0.677-0.676C51.575,7.533,51.412,7.5,51.25,7.5h-12.5
		c-0.691,0-1.25,0.559-1.25,1.25S38.059,10,38.75,10h9.482L30.366,27.866c-0.488,0.488-0.488,1.279,0,1.768
		C30.61,29.878,30.93,30,31.25,30z"/>
	<path class="st3" d="M3.75,32.5h-2.5C0.559,32.5,0,33.059,0,33.75v2.5c0,0.691,0.559,1.25,1.25,1.25s1.25-0.559,1.25-1.25V35h1.25
		C4.441,35,5,34.441,5,33.75S4.441,32.5,3.75,32.5z"/>
	<path class="st3" d="M1.25,45c0.691,0,1.25-0.559,1.25-1.25v-2.5C2.5,40.559,1.941,40,1.25,40S0,40.559,0,41.25v2.5
		C0,44.441,0.559,45,1.25,45z"/>
	<path class="st3" d="M16.25,35h2.5c0.691,0,1.25-0.559,1.25-1.25s-0.559-1.25-1.25-1.25h-2.5c-0.691,0-1.25,0.559-1.25,1.25
		S15.559,35,16.25,35z"/>
	<path class="st3" d="M11.25,57.5h-2.5c-0.691,0-1.25,0.559-1.25,1.25S8.059,60,8.75,60h2.5c0.691,0,1.25-0.559,1.25-1.25
		S11.941,57.5,11.25,57.5z"/>
	<path class="st3" d="M18.75,57.5h-2.5c-0.691,0-1.25,0.559-1.25,1.25S15.559,60,16.25,60h2.5c0.691,0,1.25-0.559,1.25-1.25
		S19.441,57.5,18.75,57.5z"/>
	<path class="st3" d="M3.75,57.5H2.5v-1.25C2.5,55.559,1.941,55,1.25,55S0,55.559,0,56.25v2.5C0,59.441,0.559,60,1.25,60h2.5
		C4.441,60,5,59.441,5,58.75S4.441,57.5,3.75,57.5z"/>
	<path class="st3" d="M1.25,52.5c0.691,0,1.25-0.559,1.25-1.25v-2.5c0-0.691-0.559-1.25-1.25-1.25S0,48.059,0,48.75v2.5
		C0,51.941,0.559,52.5,1.25,52.5z"/>
	<path class="st3" d="M23.75,35H25v1.25c0,0.691,0.559,1.25,1.25,1.25s1.25-0.559,1.25-1.25v-2.5c0-0.691-0.559-1.25-1.25-1.25h-2.5
		c-0.691,0-1.25,0.559-1.25,1.25S23.059,35,23.75,35z"/>
	<path class="st3" d="M26.25,40C25.559,40,25,40.559,25,41.25v2.5c0,0.691,0.559,1.25,1.25,1.25s1.25-0.559,1.25-1.25v-2.5
		C27.5,40.559,26.941,40,26.25,40z"/>
	<path class="st3" d="M26.25,55C25.559,55,25,55.559,25,56.25v1.25h-1.25c-0.691,0-1.25,0.559-1.25,1.25S23.059,60,23.75,60h2.5
		c0.691,0,1.25-0.559,1.25-1.25v-2.5C27.5,55.559,26.941,55,26.25,55z"/>
</g>
</symbol><symbol id="facebook-footer" viewBox="0 0 60 60">
<style type="text/css">
	.st0{fill-rule:evenodd;clip-rule:evenodd;fill:#231F20;}
	.st1{fill:#231F20;}
	.st2{fill-rule:evenodd;clip-rule:evenodd;}
	.st3{fill:#202020;}
</style>
<path class="st2" d="M43.88,20.815H33.706v-7.619c0-2.335,2.356-2.876,3.455-2.876c1.093,0,6.572,0,6.572,0V0.039L36.201,0
	C25.923,0,23.578,7.664,23.578,12.579v8.236H16.12v10.59h7.458c0,13.597,0,28.595,0,28.595h10.128c0,0,0-15.15,0-28.595h8.603
	L43.88,20.815z"/>
</symbol><symbol id="linkedin-footer" viewBox="0 0 60 60">
<style type="text/css">
	.st0{fill-rule:evenodd;clip-rule:evenodd;fill:#231F20;}
	.st1{fill:#231F20;}
	.st2{fill-rule:evenodd;clip-rule:evenodd;}
	.st3{fill:#202020;}
</style>
<g>
	<g>
		<path class="st2" d="M0.802,59.949h10.957V14.987H0.802V59.949z M44.632,14.987c-9.381,0.161-13.997,7.176-14.61,7.494v-7.494
			H19.064v44.962h10.957V33.721c0-0.961,2.312-8.664,10.958-7.494c4.644,0.312,7.148,6.612,7.305,7.494v26.228L59.198,60V28.872
			C58.813,24.378,56.623,15.148,44.632,14.987z M6.281,0C3.256,0,0.803,2.514,0.803,5.62c0,3.107,2.452,5.621,5.478,5.621
			c3.024,0,5.478-2.514,5.478-5.621C11.76,2.514,9.306,0,6.281,0z"/>
	</g>
</g>
</symbol><symbol id="linkedin" viewBox="0 0 60 60">
<style type="text/css">
	.st0{fill-rule:evenodd;clip-rule:evenodd;fill:#231F20;}
	.st1{fill:#231F20;}
	.st2{fill-rule:evenodd;clip-rule:evenodd;}
	.st3{fill:#202020;}
</style>
<path d="M58.592,58.711H47.425c-0.778,0-1.408-0.61-1.408-1.363V35.967c0-4.289-2.075-6.851-5.552-6.851
	c-2.685,0-5.022,1.806-5.73,3.552c-0.201,0.489-0.302,1.309-0.302,2.445v22.234c0,0.753-0.631,1.363-1.408,1.363H21.656
	c-0.778,0-1.408-0.61-1.408-1.363l0.002-28.511c0.005-3.803,0.01-7.085-0.12-9.893c-0.017-0.366,0.12-0.723,0.38-0.992
	c0.26-0.269,0.621-0.424,1-0.431l10.362-0.192c0.009,0,0.018,0,0.028,0c0.723,0,1.331,0.531,1.401,1.233l0.259,2.61
	c2.097-2.004,5.707-4.31,11.226-4.31C54.313,16.861,60,23.482,60,34.569v22.778C60,58.101,59.369,58.711,58.592,58.711z
	 M48.833,55.984h8.351V34.569c0-9.522-4.518-14.982-12.397-14.982c-6.82,0-10.061,4.194-10.892,5.479
	c-0.257,0.398-0.709,0.641-1.194,0.641h-0.239c-0.726,0-1.332-0.534-1.402-1.234l-0.437-4.396l-7.625,0.142
	c0.078,2.535,0.074,5.393,0.069,8.621l-0.002,27.144h8.551V35.114c0-1.526,0.159-2.622,0.501-3.449
	c1.035-2.553,4.315-5.275,8.348-5.275c5.084,0,8.368,3.759,8.368,9.577V55.984z M13.096,58.518H1.729
	c-0.777,0-1.408-0.611-1.408-1.363V18.69c0-0.753,0.631-1.362,1.408-1.362h11.367c0.778,0,1.408,0.609,1.408,1.362v38.464
	C14.504,57.906,13.873,58.518,13.096,58.518z M3.137,55.79h8.55V20.054h-8.55V55.79z M7.731,15.791C3.251,15.791,0,12.742,0,8.54
	c0-4.202,3.318-7.251,7.889-7.251c4.496,0,7.708,2.969,7.81,7.221C15.701,12.742,12.349,15.791,7.731,15.791z M7.889,4.016
	c-3.034,0-5.073,1.818-5.073,4.525c0,2.663,2.021,4.522,4.914,4.522c3.082,0,5.153-1.817,5.153-4.522
	C12.817,5.804,10.857,4.016,7.889,4.016z"/>
</symbol><symbol id="menu-icon" viewBox="0 0 60 60">
<style type="text/css">
	.st0{fill-rule:evenodd;clip-rule:evenodd;fill:#231F20;}
	.st1{fill:#231F20;}
	.st2{fill-rule:evenodd;clip-rule:evenodd;}
	.st3{fill:#202020;}
</style>
<g>
	<g>
		<path d="M0,0v8.073h60V0H0z M0,34.037h60v-8.074H0V34.037z M0,60h60v-8.074H0V60z"/>
	</g>
</g>
</symbol><symbol id="my-account" viewBox="0 0 60 60">
<style type="text/css">
	.st0{fill-rule:evenodd;clip-rule:evenodd;fill:#231F20;}
	.st1{fill:#231F20;}
	.st2{fill-rule:evenodd;clip-rule:evenodd;}
	.st3{fill:#202020;}
</style>
<g>
	<g>
		<path d="M50.918,44.143l-12.743-4.661v-6.433c3.905-3.278,6.472-8.734,6.472-14.909C44.646,8.137,37.923,0,29.659,0
			c-8.263,0-14.987,8.137-14.987,18.139c0,6.524,2.87,12.238,7.153,15.434v5.908L9.08,44.143c-3.784,1.385-6.328,5.082-6.328,9.199
			V60h54.497v-6.658C57.248,49.224,54.704,45.528,50.918,44.143z M29.659,2.79c6.004,0,11.004,5.433,12.051,12.575
			c-0.017,0.003-0.03,0.004-0.047,0.007c-3.961,0.778-6.409-0.538-8.735-4.708L31.69,8.448l-1.154,2.265
			c-1.257,2.47-5.487,4.635-9.051,4.635c-1.387,0-2.578-0.236-3.749-0.726C19.011,7.851,23.867,2.79,29.659,2.79z M17.398,18.139
			c0-0.226,0.019-0.446,0.027-0.67c1.276,0.44,2.598,0.67,4.06,0.67c3.745,0,7.848-1.823,10.176-4.326
			c2.171,3.095,4.732,4.564,7.986,4.564c0.721,0,1.481-0.083,2.273-0.225c-0.006,8.457-5.504,15.334-12.262,15.334
			C22.898,33.487,17.398,26.602,17.398,18.139z M54.523,57.21H5.477v-3.868c0-2.941,1.815-5.582,4.519-6.571l14.554-5.323V35.17
			c1.597,0.704,3.312,1.108,5.108,1.108c2.052,0,4.008-0.504,5.79-1.411v6.58l14.553,5.323c2.705,0.99,4.521,3.63,4.521,6.571V57.21
			z"/>
	</g>
</g>
</symbol><symbol id="pdf" viewBox="0 0 60 60">
<style type="text/css">
	.st0{fill-rule:evenodd;clip-rule:evenodd;fill:#231F20;}
	.st1{fill:#231F20;}
	.st2{fill-rule:evenodd;clip-rule:evenodd;}
	.st3{fill:#202020;}
</style>
<g>
	<g>
		<path d="M41.146,37.756c-1.201,0-2.68,0.158-4.394,0.469c-2.398-2.542-4.896-6.258-6.659-9.903c1.749-7.367,0.586-8.849,0.2-9.344
			c-0.412-0.524-1.003-0.813-1.663-0.813c-0.275,0-0.568,0.051-0.866,0.152c-0.757,0.252-1.328,0.784-1.65,1.544
			c-0.925,2.162,0.344,5.854,1.65,8.696c-1.118,4.443-2.988,9.764-4.958,14.078c-4.963,2.272-7.599,4.504-7.836,6.636
			c-0.085,0.776,0.095,1.914,1.459,2.937c0.374,0.278,0.811,0.427,1.267,0.427c1.143,0,2.3-0.879,3.643-2.758
			c0.976-1.374,2.025-3.245,3.12-5.567c3.505-1.533,7.841-2.921,11.557-3.694c2.07,1.984,3.92,2.991,5.516,2.991
			c1.171,0,2.178-0.538,2.906-1.561c0.756-1.062,0.927-2.014,0.513-2.827C44.442,38.234,43.198,37.756,41.146,37.756z
			 M17.722,50.421c-0.613-0.471-0.578-0.786-0.564-0.908c0.083-0.727,1.221-2.018,4.019-3.592
			C19.058,49.841,17.918,50.36,17.722,50.421z M28.139,20.727c0.088-0.205,0.19-0.276,0.318-0.317
			c0.058-0.019,0.097-0.03,0.126-0.035c0.2,0.297,0.427,1.472,0,4.244C28.069,23.011,27.802,21.516,28.139,20.727z M25.752,41.39
			c1.328-3.167,2.563-6.666,3.501-9.904c1.469,2.641,3.238,5.207,5.005,7.26C31.465,39.403,28.487,40.328,25.752,41.39z
			 M42.64,40.764c-0.399,0.566-0.805,0.637-1.109,0.637c-0.703,0-1.645-0.45-2.709-1.267c0.879-0.115,1.666-0.173,2.325-0.175
			c1.168,0,1.636,0.177,1.797,0.264C42.915,40.313,42.842,40.489,42.64,40.764z M47.465,10.796l-7.261-7.26
			C38.26,1.59,34.42,0,31.669,0H14c-2.75,0-5,2.25-5,5v49.999C9,57.75,11.25,60,14,60h32c2.75,0,5-2.25,5-5.001V19.331
			C51,16.581,49.409,12.74,47.465,10.796z M36.477,3.925c0.775,0.417,1.47,0.887,1.96,1.378l7.26,7.26
			c0.413,0.413,0.812,0.974,1.178,1.601h-6.648c-2.068,0-3.75-1.682-3.75-3.749V3.925z M48.5,54.999c0,1.379-1.122,2.5-2.5,2.5H14
			c-1.378,0-2.5-1.121-2.5-2.5V5C11.5,3.621,12.622,2.5,14,2.5h17.67c0.679,0,1.484,0.153,2.307,0.397v7.518
			c0,3.447,2.804,6.25,6.25,6.25H48c0.312,0.948,0.5,1.888,0.5,2.667V54.999z"/>
	</g>
</g>
</symbol><symbol id="print" viewBox="0 0 60 60">
<style type="text/css">
	.st0{fill-rule:evenodd;clip-rule:evenodd;fill:#231F20;}
	.st1{fill:#231F20;}
	.st2{fill-rule:evenodd;clip-rule:evenodd;}
	.st3{fill:#202020;}
</style>
<g>
	<g>
		<path d="M53.75,17.502H6.25c-3.446,0-6.25,2.803-6.25,6.249V38.75c0,3.446,2.804,6.251,6.25,6.251h6.25v11.25
			c0,0.691,0.56,1.249,1.25,1.249h32.5c0.69,0,1.25-0.558,1.25-1.249v-11.25h6.25c3.446,0,6.25-2.805,6.25-6.251V23.751
			C60,20.305,57.196,17.502,53.75,17.502z M45,55.001H15V37.502h30V55.001z M57.5,38.75c0,2.068-1.682,3.751-3.75,3.751H47.5v-6.25
			c0-0.692-0.56-1.251-1.25-1.251h-32.5c-0.69,0-1.25,0.559-1.25,1.251v6.25H6.25c-2.068,0-3.75-1.683-3.75-3.751V23.751
			C2.5,21.683,4.182,20,6.25,20h47.5c2.068,0,3.75,1.683,3.75,3.751V38.75z M13.75,15.001c0.69,0,1.25-0.559,1.25-1.25V5h22.5v6.25
			c0,0.692,0.56,1.251,1.25,1.251H45v1.25c0,0.692,0.56,1.25,1.25,1.25c0.69,0,1.25-0.559,1.25-1.25v-2.5
			c0-0.167-0.034-0.33-0.097-0.481c-0.064-0.153-0.157-0.29-0.273-0.405l-7.495-7.496c-0.115-0.115-0.252-0.207-0.404-0.271
			C39.08,2.534,38.917,2.5,38.75,2.5h-25c-0.69,0-1.25,0.561-1.25,1.251v10C12.5,14.442,13.059,15.001,13.75,15.001z M40,6.767
			l3.234,3.233H40V6.767z M8.75,22.5C6.682,22.5,5,24.183,5,26.25c0,2.068,1.682,3.751,3.75,3.751c2.068,0,3.75-1.683,3.75-3.751
			C12.5,24.183,10.818,22.5,8.75,22.5z M8.75,27.5c-0.689,0-1.25-0.56-1.25-1.25c0-0.689,0.561-1.25,1.25-1.25S10,25.562,10,26.25
			C10,26.94,9.439,27.5,8.75,27.5z M18.75,42.501h22.5c0.69,0,1.25-0.56,1.25-1.25c0-0.692-0.56-1.25-1.25-1.25h-22.5
			c-0.691,0-1.25,0.559-1.25,1.25C17.5,41.941,18.059,42.501,18.75,42.501z M18.75,47.5h22.5c0.69,0,1.25-0.559,1.25-1.25
			c0-0.691-0.56-1.25-1.25-1.25h-22.5c-0.691,0-1.25,0.559-1.25,1.25C17.5,46.942,18.059,47.5,18.75,47.5z M18.75,52.501h22.5
			c0.69,0,1.25-0.557,1.25-1.25c0-0.691-0.56-1.25-1.25-1.25h-22.5c-0.691,0-1.25,0.559-1.25,1.25
			C17.5,51.943,18.059,52.501,18.75,52.501z"/>
	</g>
</g>
</symbol><symbol id="register" viewBox="0 0 60 60">
<style type="text/css">
	.st0{fill-rule:evenodd;clip-rule:evenodd;fill:#231F20;}
	.st1{fill:#231F20;}
	.st2{fill-rule:evenodd;clip-rule:evenodd;}
	.st3{fill:#202020;}
</style>
<g>
	<g>
		<path d="M24.971,0c-7.581,0-13.75,7.29-13.75,16.25c0,5.704,2.506,10.723,6.279,13.623v5.495L5.804,39.545
			C2.333,40.786,0,44.097,0,47.785v7.216h31.25v-2.502H2.5v-4.714c0-2.635,1.666-5.001,4.145-5.885L20,37.13v-5.745
			c1.544,0.711,3.216,1.116,4.971,1.116c1.776,0,3.469-0.413,5.029-1.141v4.892h2.5v-6.42c3.742-2.907,6.221-7.906,6.221-13.582
			C38.721,7.29,32.553,0,24.971,0z M24.971,2.5c5.509,0,10.097,4.868,11.057,11.267c-0.015,0.003-0.029,0.003-0.044,0.006
			c-3.633,0.702-5.879-0.481-8.014-4.217L26.835,7.57l-1.058,2.028c-1.154,2.211-5.035,4.151-8.306,4.151
			c-1.272,0-2.365-0.212-3.44-0.652C15.202,7.033,19.656,2.5,24.971,2.5z M24.971,30c-6.203,0-11.25-6.168-11.25-13.751
			c0-0.203,0.018-0.4,0.025-0.601c1.172,0.395,2.385,0.601,3.725,0.601c3.435,0,7.201-1.632,9.337-3.873
			c1.992,2.773,4.341,4.088,7.325,4.088c0.662,0,1.36-0.073,2.087-0.201C36.214,23.839,31.17,30,24.971,30z M58.75,41.25H57.5V40
			c0-4.824-3.925-8.75-8.75-8.75C43.925,31.25,40,35.176,40,40v1.25h-1.25c-0.69,0-1.25,0.559-1.25,1.25v16.25
			c0,0.69,0.56,1.25,1.25,1.25h20c0.69,0,1.25-0.56,1.25-1.25V42.5C60,41.81,59.44,41.25,58.75,41.25z M42.5,40
			c0-3.446,2.804-6.25,6.25-6.25c3.446,0,6.25,2.804,6.25,6.25v1.25H42.5V40z M57.5,57.499H40V43.751h17.5V57.499z M47.563,50.938
			C47.536,51.04,47.5,51.139,47.5,51.25v2.501c0,0.69,0.559,1.25,1.25,1.25c0.691,0,1.25-0.56,1.25-1.25V51.25
			c0-0.111-0.036-0.211-0.063-0.313c0.778-0.424,1.313-1.24,1.313-2.187c0-1.382-1.12-2.499-2.5-2.499c-1.382,0-2.5,1.117-2.5,2.499
			C46.25,49.698,46.784,50.514,47.563,50.938z"/>
	</g>
</g>
</symbol><symbol id="right-arrow" viewBox="0 0 60 60">
<style type="text/css">
	.st0{fill-rule:evenodd;clip-rule:evenodd;fill:#231F20;}
	.st1{fill:#231F20;}
	.st2{fill-rule:evenodd;clip-rule:evenodd;}
	.st3{fill:#202020;}
</style>
<path d="M18.185,60c-0.797,0-1.591-0.314-2.198-0.942c-1.213-1.258-1.213-3.301,0-4.564L38.88,30.758L14.524,5.505
	c-1.213-1.26-1.213-3.301,0-4.562c1.216-1.258,3.183-1.258,4.398,0l26.555,27.535c1.213,1.258,1.213,3.301,0,4.562L20.384,59.058
	C19.776,59.686,18.982,60,18.185,60z"/>
</symbol><symbol id="rss" viewBox="0 0 60 60">
<style type="text/css">
	.st0{fill-rule:evenodd;clip-rule:evenodd;fill:#231F20;}
	.st1{fill:#231F20;}
	.st2{fill-rule:evenodd;clip-rule:evenodd;}
	.st3{fill:#202020;}
</style>
<g>
	<path class="st1" d="M12.5,25v2.5c11.028,0,20,8.972,20,20H35C35,35.094,24.906,25,12.5,25z"/>
	<path class="st1" d="M12.5,12.5V15C30.421,15,45,29.579,45,47.5h2.5C47.5,28.201,31.799,12.5,12.5,12.5z"/>
	<path class="st1" d="M17.5,37.5c-2.757,0-5,2.243-5,5s2.243,5,5,5s5-2.243,5-5S20.257,37.5,17.5,37.5z M17.5,45
		c-1.378,0-2.5-1.122-2.5-2.5s1.122-2.5,2.5-2.5s2.5,1.122,2.5,2.5S18.878,45,17.5,45z"/>
	<path class="st1" d="M51.25,0H8.75C3.926,0,0,3.926,0,8.75v42.5C0,56.074,3.926,60,8.75,60h42.5c4.824,0,8.75-3.926,8.75-8.75V8.75
		C60,3.926,56.074,0,51.25,0z M57.5,51.25c0,3.446-2.804,6.25-6.25,6.25H8.75c-3.446,0-6.25-2.804-6.25-6.25V8.75
		c0-3.446,2.804-6.25,6.25-6.25h42.5c3.446,0,6.25,2.804,6.25,6.25V51.25z"/>
</g>
</symbol><symbol id="search" viewBox="0 0 60 60">
<style type="text/css">
	.st0{fill-rule:evenodd;clip-rule:evenodd;fill:#231F20;}
	.st1{fill:#231F20;}
	.st2{fill-rule:evenodd;clip-rule:evenodd;}
	.st3{fill:#202020;}
</style>
<path class="st1" d="M22.528,45c5.309,0,10.185-1.871,14.03-4.978l19.074,19.241C56.118,59.754,56.757,60,57.397,60
	c0.636,0,1.271-0.243,1.757-0.727c0.976-0.973,0.979-2.559,0.009-3.536L40.066,36.472c3.045-3.842,4.878-8.693,4.878-13.971
	C44.944,10.094,34.888,0,22.528,0S0.112,10.094,0.112,22.501S10.168,45,22.528,45z M22.528,5.002c9.614,0,17.435,7.85,17.435,17.499
	s-7.821,17.5-17.435,17.5S5.093,32.15,5.093,22.501S12.915,5.002,22.528,5.002z"/>
</symbol><symbol id="sign-in" viewBox="0 0 60 60">
<style type="text/css">
	.st0{fill-rule:evenodd;clip-rule:evenodd;fill:#231F20;}
	.st1{fill:#231F20;}
	.st2{fill-rule:evenodd;clip-rule:evenodd;}
	.st3{fill:#202020;}
</style>
<g>
	<g>
		<path d="M8.866,0v7.33h2.238V2.232h38.875v55.537H11.105v-5.873H8.866V60h43.352V0H8.866z M25.194,37.463l1.583,1.577l9.069-9.041
			l-9.069-9.041l-1.583,1.578l6.368,6.347H7.782v2.231h23.78L25.194,37.463z"/>
	</g>
</g>
</symbol><symbol id="sign-out" viewBox="0 0 60 60">
<style type="text/css">
	.st0{fill-rule:evenodd;clip-rule:evenodd;fill:#231F20;}
	.st1{fill:#231F20;}
	.st2{fill-rule:evenodd;clip-rule:evenodd;}
	.st3{fill:#202020;}
</style>
<g>
	<g>
		<path d="M9.832,0v7.33h2.238V2.232h38.875v55.537H12.07v-5.873H9.832V60h43.352V0H9.832z M15.886,20.959l-9.069,9.041l9.069,9.041
			l1.583-1.577l-6.368-6.347h23.78v-2.231h-23.78l6.368-6.347L15.886,20.959z"/>
	</g>
</g>
</symbol><symbol id="sort-down-arrow" viewBox="0 0 60 60">
<style type="text/css">
	.st0{fill-rule:evenodd;clip-rule:evenodd;fill:#231F20;}
	.st1{fill:#231F20;}
	.st2{fill-rule:evenodd;clip-rule:evenodd;}
	.st3{fill:#202020;}
</style>
<path d="M30,47.419l30-34.838H0L30,47.419z"/>
</symbol><symbol id="sort-up-arrow" viewBox="0 0 60 60">
<style type="text/css">
	.st0{fill-rule:evenodd;clip-rule:evenodd;fill:#231F20;}
	.st1{fill:#231F20;}
	.st2{fill-rule:evenodd;clip-rule:evenodd;}
	.st3{fill:#202020;}
</style>
<path d="M0,47.419h60L30,12.581L0,47.419z"/>
</symbol><symbol id="tool-maintenance" viewBox="0 0 60 60">
<style type="text/css">
	.st0{fill-rule:evenodd;clip-rule:evenodd;fill:#231F20;}
	.st1{fill:#231F20;}
	.st2{fill-rule:evenodd;clip-rule:evenodd;}
	.st3{fill:#202020;}
</style>
<path class="st2" d="M6.115,60.001c-1.634,0-3.171-0.638-4.328-1.794C0.63,57.048-0.004,55.509,0,53.872
	c0.004-1.634,0.644-3.17,1.801-4.325l24.601-24.58c-3.068-6.67-1.664-14.543,3.604-19.81c3.327-3.327,7.775-5.157,12.524-5.157
	c2.807,0,5.596,0.666,8.063,1.928c0.278,0.144,0.475,0.405,0.533,0.711c0.059,0.307-0.026,0.623-0.231,0.857l-7.128,8.179v5.782
	h4.501l8.165-8.144c0.229-0.227,0.553-0.324,0.874-0.284c0.32,0.052,0.597,0.252,0.745,0.54c3.498,6.839,2.201,15.082-3.226,20.511
	c-3.326,3.326-7.748,5.156-12.451,5.156l0,0c-2.536,0-5.065-0.553-7.359-1.604L10.441,58.206
	C9.285,59.363,7.749,60.001,6.115,60.001z M42.531,2.025c-4.208,0-8.147,1.621-11.091,4.566c-4.82,4.82-5.989,12.102-2.907,18.125
	c0.2,0.391,0.125,0.866-0.186,1.177L3.234,50.979c-0.776,0.775-1.204,1.805-1.207,2.898c-0.003,1.095,0.421,2.121,1.194,2.895
	c1.548,1.548,4.239,1.548,5.788,0l25.084-25.085c0.313-0.313,0.789-0.387,1.179-0.186c2.182,1.118,4.639,1.708,7.104,1.708
	c4.162,0,8.075-1.62,11.018-4.562c4.468-4.472,5.772-11.095,3.441-16.872l-7.431,7.412c-0.19,0.189-0.447,0.296-0.715,0.296h-5.932
	c-0.56,0-1.014-0.454-1.014-1.014v-7.176c0-0.245,0.089-0.482,0.249-0.666l6.487-7.442C46.608,2.422,44.575,2.025,42.531,2.025z"/>
</symbol><symbol id="twitter-footer" viewBox="0 0 60 60">
<style type="text/css">
	.st0{fill-rule:evenodd;clip-rule:evenodd;fill:#231F20;}
	.st1{fill:#231F20;}
	.st2{fill-rule:evenodd;clip-rule:evenodd;}
	.st3{fill:#202020;}
</style>
<path d="M60,9.545c-1.01,0.616-4.043,1.844-6.87,2.153c1.812-1.08,4.497-4.617,5.159-7.428c-1.743,1.229-5.746,3.021-7.723,3.021
	c0,0,0,0.005,0.004,0.009c-2.256-2.605-5.427-4.228-8.95-4.228c-6.833,0-12.378,6.122-12.378,13.673
	c0,1.049,0.113,2.068,0.319,3.048h-0.004c-9.272-0.262-20.112-5.396-26.22-14.186c-3.75,7.178-0.506,15.157,3.753,18.065
	c-1.454,0.127-4.142-0.183-5.405-1.54c-0.088,4.762,1.989,11.073,9.547,13.359c-1.457,0.87-4.028,0.623-5.152,0.433
	c0.396,4.024,5.493,9.284,11.063,9.284C15.158,47.741,8.383,52.349,0,50.88c5.695,3.832,12.334,6.048,19.362,6.048
	c19.969,0,35.478-17.878,34.643-39.935c0-0.024-0.007-0.053-0.007-0.071c0-0.062,0.007-0.122,0.007-0.176
	c0-0.069-0.007-0.132-0.007-0.206C55.814,15.173,58.253,12.746,60,9.545z"/>
</symbol><symbol id="twitter" viewBox="0 0 60 60">
<style type="text/css">
	.st0{fill-rule:evenodd;clip-rule:evenodd;fill:#231F20;}
	.st1{fill:#231F20;}
	.st2{fill-rule:evenodd;clip-rule:evenodd;}
	.st3{fill:#202020;}
</style>
<path d="M19.347,54.99c-5.307,0.001-12.656-1.042-18.805-5.75c-0.503-0.385-0.679-1.071-0.43-1.657
	c0.251-0.589,0.869-0.924,1.483-0.813c0.091,0.018,8.057,1.373,13.734-2.652c-3.168-0.913-7.025-3.343-8.642-8.66
	c-0.143-0.469-0.03-0.98,0.296-1.344c0.138-0.153,0.305-0.271,0.489-0.348c-2.498-1.928-4.975-5.236-4.886-10.758
	c0.009-0.518,0.3-0.987,0.756-1.217c0.398-0.203,0.864-0.192,1.249,0.021C2.52,18.33,1.289,13.349,4.307,8.093
	c0.223-0.386,0.617-0.64,1.056-0.679c0.444-0.042,0.871,0.14,1.156,0.485C6.618,8.02,16.232,19.394,28.096,19.7
	c-0.06-0.518-0.091-1.041-0.091-1.565c0-7.236,5.783-13.125,12.89-13.125c3.284,0,6.375,1.241,8.766,3.503
	c1.516-0.053,4.002-0.464,6.5-2.286c0.401-0.293,0.923-0.34,1.369-0.129c0.446,0.213,0.743,0.655,0.779,1.154
	c0.027,0.383,0,1.94-1.845,4.271c0.56-0.19,1.04-0.407,1.363-0.652c0.466-0.358,1.101-0.368,1.582-0.033
	c0.479,0.335,0.697,0.944,0.541,1.515c-0.125,0.454-0.919,2.274-5.905,6.939c0.042,4.427-0.969,28.714-27.568,35.041
	C26.203,54.395,23.358,54.99,19.347,54.99z M6.75,49.729c9.026,4.021,19.016,1.928,19.133,1.903
	c11.283-2.685,19-9.024,22.912-18.839c2.928-7.349,2.523-13.934,2.518-13.999c-0.029-0.424,0.135-0.836,0.443-1.12
	c1.224-1.13,2.186-2.078,2.939-2.863c-1.198,0.22-2.167,0.306-2.387,0.323c-0.593,0.051-1.159-0.309-1.375-0.881
	c-0.217-0.572-0.04-1.221,0.436-1.594c0.968-0.763,1.714-1.459,2.29-2.077c-1.884,0.617-3.528,0.711-4.567,0.707
	c-0.356-0.008-0.696-0.156-0.946-0.414c-1.928-1.994-4.503-3.093-7.25-3.093c-5.608,0-10.171,4.645-10.171,10.354
	c0,0.873,0.107,1.741,0.317,2.579c0.101,0.402,0.02,0.828-0.22,1.162c-0.24,0.333-0.615,0.54-1.02,0.565
	C18.566,23.078,9.262,14.759,5.838,11.22C3.31,17.993,9.163,23.224,9.434,23.46c0.405,0.354,0.57,0.914,0.423,1.436
	c-0.148,0.52-0.579,0.907-1.106,0.986c-1.157,0.176-2.315-0.089-3.277-0.463c1.112,6.617,7.271,8.045,7.561,8.108
	c0.574,0.125,1.006,0.613,1.069,1.206c0.062,0.594-0.253,1.163-0.787,1.41c-0.976,0.45-2.168,0.548-3.199,0.535
	c2.668,5.055,7.981,5.131,8.28,5.131c0.003,0,0.005,0,0.007,0c0.536,0,1.026,0.323,1.245,0.823c0.219,0.5,0.13,1.084-0.231,1.491
	C15.759,48.246,10.644,49.469,6.75,49.729z"/>
</symbol><symbol id="up-arrow" viewBox="0 0 60 60">
<style type="text/css">
	.st0{fill-rule:evenodd;clip-rule:evenodd;fill:#231F20;}
	.st1{fill:#231F20;}
	.st2{fill-rule:evenodd;clip-rule:evenodd;}
	.st3{fill:#202020;}
</style>
<path class="st2" d="M59,46.117c-0.262,0-0.523-0.103-0.719-0.308L30,16.33L1.719,45.809c-0.381,0.4-1.011,0.41-1.414,0.023
	c-0.396-0.386-0.408-1.026-0.023-1.425l29-30.228c0.375-0.394,1.063-0.394,1.438,0l29,30.228c0.385,0.399,0.373,1.039-0.023,1.425
	C59.499,46.021,59.25,46.117,59,46.117z"/>
</symbol><symbol id="video" viewBox="0 0 60 60">
<style type="text/css">
	.st0{fill-rule:evenodd;clip-rule:evenodd;fill:#231F20;}
	.st1{fill:#231F20;}
	.st2{fill-rule:evenodd;clip-rule:evenodd;}
	.st3{fill:#202020;}
</style>
<g>
	<g>
		<path d="M36.204,36.239H11.387c-0.806,0-1.459,0.681-1.459,1.521s0.653,1.522,1.459,1.522h24.818c0.806,0,1.459-0.681,1.459-1.522
			S37.01,36.239,36.204,36.239z M11.387,26.347c6.278,0,11.386-5.324,11.386-11.87c0-6.544-5.108-11.869-11.386-11.869
			C5.108,2.608,0,7.933,0,14.477C0,21.022,5.108,26.347,11.387,26.347z M11.387,5.65c4.669,0,8.468,3.959,8.468,8.827
			c0,4.867-3.799,8.828-8.468,8.828c-4.669,0-8.468-3.961-8.468-8.828C2.918,9.609,6.718,5.65,11.387,5.65z M32.482,26.347
			c4.226,0,7.663-3.584,7.663-7.989c0-4.405-3.438-7.988-7.663-7.988c-4.225,0-7.664,3.583-7.664,7.988
			C24.818,22.763,28.257,26.347,32.482,26.347z M32.482,13.411c2.616,0,4.746,2.219,4.746,4.946c0,2.727-2.129,4.948-4.746,4.948
			s-4.745-2.22-4.745-4.948C27.737,15.63,29.865,13.411,32.482,13.411z M58.678,32.374c-0.84-0.583-1.929-0.653-2.989-0.197
			l-10.58,4.596v-4.186c0-2.265-1.767-4.107-3.94-4.107H6.423c-2.174,0-3.941,1.842-3.941,4.107v20.697
			c0,2.265,1.768,4.108,3.941,4.108h34.745c2.173,0,3.94-1.844,3.94-4.108v-4.186l10.579,4.594c0.463,0.201,0.93,0.302,1.381,0.302
			c0.582,0,1.134-0.167,1.608-0.495C59.517,52.913,60,51.892,60,50.696V35.174C60,33.979,59.518,32.958,58.678,32.374z
			 M42.191,39.036c0,0.007,0,0.015,0,0.022v7.754c0,0.007,0,0.015,0,0.022v6.449c0,0.577-0.468,1.066-1.023,1.066H6.423
			c-0.555,0-1.023-0.489-1.023-1.066V32.587c0-0.577,0.468-1.066,1.023-1.066h34.745c0.555,0,1.023,0.489,1.023,1.066V39.036z
			 M56.811,50.883L45.109,45.8v-5.71l11.973-4.916L56.811,50.883z"/>
	</g>
</g>
</symbol><symbol id="x" viewBox="0 0 60 60">
<style type="text/css">
	.st0{fill-rule:evenodd;clip-rule:evenodd;fill:#231F20;}
	.st1{fill:#231F20;}
	.st2{fill-rule:evenodd;clip-rule:evenodd;}
	.st3{fill:#202020;}
</style>
<g>
	<g>
		<path d="M32.1,30L59.501,2.541c0.579-0.582,0.579-1.525,0-2.105c-0.58-0.581-1.521-0.581-2.101,0L30,27.895L2.599,0.436
			c-0.58-0.581-1.521-0.581-2.101,0c-0.579,0.58-0.579,1.523,0,2.105L27.9,30L0.499,57.46c-0.579,0.58-0.579,1.523,0,2.103
			C0.788,59.855,1.169,60,1.549,60s0.76-0.145,1.05-0.436L30,32.105L57.4,59.564C57.69,59.855,58.071,60,58.451,60
			c0.38,0,0.761-0.145,1.051-0.436c0.579-0.58,0.579-1.523,0-2.103L32.1,30z"/>
	</g>
</g>
</symbol><symbol id="xls" viewBox="0 0 60 60">
<style type="text/css">
	.st0{fill-rule:evenodd;clip-rule:evenodd;fill:#231F20;}
	.st1{fill:#231F20;}
	.st2{fill-rule:evenodd;clip-rule:evenodd;}
	.st3{fill:#202020;}
</style>
<g>
	<g>
		<g>
			<g>
				<path d="M47.5,10.8l-7.3-7.3C38.3,1.6,34.4,0,31.7,0H14c-2.8,0-5,2.2-5,5v50c0,2.8,2.2,5,5,5h32c2.8,0,5-2.2,5-5V19.3
					C51,16.6,49.4,12.7,47.5,10.8z M36.5,3.9c0.8,0.4,1.5,0.9,2,1.4l7.3,7.3c0.4,0.4,0.8,1,1.2,1.6h-6.6c-2.1,0-3.8-1.7-3.8-3.7V3.9
					H36.5z M48.5,55c0,1.4-1.1,2.5-2.5,2.5H14c-1.4,0-2.5-1.1-2.5-2.5V5c0-1.4,1.1-2.5,2.5-2.5h17.7c0.7,0,1.5,0.2,2.3,0.4v7.5
					c0,3.4,2.8,6.3,6.2,6.3H48c0.3,0.9,0.5,1.9,0.5,2.7V55z"/>
			</g>
		</g>
	</g>
	<g>
		<polygon points="41.5,46 33.5,35.8 40.9,26.5 33.5,26.5 29.8,31.5 26.3,26.5 18.7,26.5 26.3,36 18.5,46 25.7,46 29.8,40.4 
			33.9,46 		"/>
	</g>
</g>
</symbol></svg>