<?xml version="1.0" encoding="UTF-8"?><!DOCTYPE svg PUBLIC "-//W3C//DTD SVG 1.1//EN" "http://www.w3.org/Graphics/SVG/1.1/DTD/svg11.dtd"><svg xmlns="http://www.w3.org/2000/svg" xmlns:xlink="http://www.w3.org/1999/xlink"><symbol id="add" viewBox="0 0 60 60"><path class="st2" d="M58.96 30.5H31.32v28.46c0 .57-.47 1.04-1.05 1.04-.57 0-1.04-.47-1.04-1.04V30.5H1.03C.48 30.5 0 30.04 0 29.46c0-.58.47-1.05 1.04-1.05h28.2V1.06c0-.57.46-1.04 1.03-1.04.58 0 1.05.48 1.05 1.05V28.4h27.64c.57 0 1.04.48 1.04 1.06 0 .57-.47 1.04-1.04 1.04z"/></symbol><symbol id="alert" viewBox="0 0 60 60"><path class="st1" d="M30.5 0H30C13.18.3-.28 14 0 30.52.3 47.05 13.26 60 29.5 60h.5c16.8-.3 30.26-14 29.97-30.52C59.7 12.95 46.74 0 30.5 0zM30 57.4h-.5c-14.8 0-26.6-11.83-26.86-26.92-.27-15.1 12.03-27.6 27.4-27.87h.5c14.8 0 26.6 11.88 26.86 26.97.27 15.1-12.03 27.6-27.4 27.87z"/><path class="st1" d="M30 35.2c.72 0 1.3-.57 1.3-1.3V15.66c0-.72-.58-1.3-1.3-1.3s-1.3.58-1.3 1.3V33.9c0 .73.58 1.3 1.3 1.3zm0 5.23h-.05c-1.43.02-2.58 1.2-2.56 2.65 0 1.43 1.13 2.57 2.6 2.57 1.42-.03 2.57-1.22 2.55-2.66-.03-1.48-1.2-2.6-2.6-2.6z"/></symbol><symbol id="arrow" viewBox="0 0 48 48">
<style type="text/css">
	.st0{fill:#FFFFFF;}
	.st1{fill:none;}
</style>
<path class="st0" d="M15.4,16.3l9.2,9.2l9.2-9.2l2.8,2.8l-12,12l-12-12L15.4,16.3z"/>
<path class="st1" d="M0-0.2h48v48H0V-0.2z"/>
</symbol><symbol id="audio" viewBox="0 0 60 60"><path d="M60 38.75c0-3.02-2.15-5.54-5-6.12v-1.38C55 27.8 52.2 25 48.75 25h-.06C48.02 15.24 39.9 7.5 30 7.5S11.96 15.24 11.3 25h-.05C7.8 25 5 27.8 5 31.25v1.38c-2.85.58-5 3.1-5 6.12s2.15 5.54 5 6.12v1.38c0 3.45 2.8 6.25 6.25 6.25h5c.7 0 1.25-.56 1.25-1.25v-25c0-.7-.56-1.25-1.25-1.25H13.8c.65-8.38 7.66-15 16.2-15s15.54 6.62 16.2 15h-2.45c-.7 0-1.25.56-1.25 1.25v25c0 .7.56 1.25 1.25 1.25h5c3.45 0 6.25-2.8 6.25-6.25v-1.38c2.85-.58 5-3.1 5-6.12zm-57.5 0c0-1.63 1.05-3 2.5-3.52v7.04c-1.45-.52-2.5-1.9-2.5-3.52zM15 50h-3.75c-2.07 0-3.75-1.68-3.75-3.75v-15c0-2.07 1.68-3.75 3.75-3.75H15V50zm37.5-3.75c0 2.07-1.68 3.75-3.75 3.75H45V27.5h3.75c2.07 0 3.75 1.68 3.75 3.75v15zm2.5-3.98v-7.04c1.45.52 2.5 1.9 2.5 3.52s-1.05 3-2.5 3.52z"/></symbol><symbol id="bell-filled" viewBox="0 0 60 60"><path class="cls-1" d="M59 50.7H37.9c-.4 4.6-3.7 8-7.9 8s-7.5-3.4-7.9-8H1a1.06 1.06 0 0 1-1-.9 1 1 0 0 1 .8-1.1c4.9-1.2 7.2-3.1 7.2-6v-14c0-9.4 5.3-17.5 13.6-20.8A8.68 8.68 0 0 1 30 1.3 8.38 8.38 0 0 1 38.3 8 21.84 21.84 0 0 1 52 28.7v14c0 2.9 2.3 4.8 7.2 6a1.08 1.08 0 0 1 .8 1.1 1 1 0 0 1-1 .9zm-29 6c3.4 0 5.5-2.9 5.9-6H24.1c.4 3.1 2.5 6 5.9 6z"/></symbol><symbol id="bell" viewBox="0 0 60 60"><path class="cls-1" d="M59 50.7H37.91c-.4 4.6-3.7 8-7.9 8s-7.5-3.4-7.9-8H1a1.06 1.06 0 0 1-1-.9 1 1 0 0 1 .7-1.1c4.9-1.2 7.2-3.1 7.2-6v-14c0-9.4 5.3-17.5 13.6-20.8A8.88 8.88 0 0 1 30 1.3 8.38 8.38 0 0 1 38.31 8 21.84 21.84 0 0 1 52 28.7v14c0 2.9 2.3 4.8 7.2 6a1.08 1.08 0 0 1 .8 1.1 1 1 0 0 1-1 .9zm-29 6c3.4 0 5.5-2.9 5.9-6H24.11c.4 3.1 2.5 6 5.89 6zm20-14v-14A20.05 20.05 0 0 0 37.11 9.6a.87.87 0 0 1-.6-.8A6.48 6.48 0 0 0 30 3.3a6.65 6.65 0 0 0-6.5 5.6 1 1 0 0 1-.6.8 19.83 19.83 0 0 0-12.9 19v14a7 7 0 0 1-3.6 6h47.3a6.74 6.74 0 0 1-3.7-6z"/></symbol><symbol id="bookmark" viewBox="0 0 50 60"><path d="M44.65 59.88c-.15.08-.32.12-.48.12-.2 0-.38-.05-.55-.16l-21.05-13.5L2.4 59.84c-.3.2-.7.2-1.04.03-.33-.17-.53-.5-.53-.88V1c0-.55.45-1 1-1h42.34c.55 0 1 .45 1 1v58c0 .37-.2.7-.52.88zM43.15 2H2.85v55.12L22 44.3c.17-.1.36-.17.56-.17.2 0 .38.05.55.16l20.1 12.8V2zM14.52 36.82c-.33.23-.78.24-1.12.02-.35-.23-.52-.63-.44-1.04l1.9-9.47L8.2 19.7c-.3-.28-.38-.7-.22-1.08.15-.38.52-.62.93-.62h9.5l3.3-7.32c.18-.37.5-.56.94-.6.4 0 .76.24.9.6L26.7 18h9.42c.4 0 .8.24.94.62.16.37.07.8-.22 1.1l-6.66 6.6 1.9 9.48c.1.4-.08.82-.43 1.04-.16.1-.35.16-.54.16-.2 0-.4-.06-.6-.2l-7.9-5.58-8 5.6zm8.65-7.63l6.43 4.5-1.52-7.5c-.07-.4.04-.7.27-.9L33.7 20h-7.66c-.4 0-.76-.25-.92-.6l-2.56-5.85-2.65 5.85c-.1.37-.5.6-.9.6h-7.6l5.35 5.3c.23.23.34.57.27.9l-1.52 7.55 6.5-4.57c.35-.24.82-.24 1.17 0z" fill-rule="evenodd"/></symbol><symbol id="bookmarked" viewBox="0 0 50 60"><title>Untitled 6</title><path d="M44.65 59.88c-.15.08-.32.12-.48.12-.2 0-.4-.05-.55-.16l-21.05-13.5L2.4 59.83c-.3.2-.7.2-1.04.04-.33-.17-.53-.5-.53-.88V1c0-.55.45-1 1-1h42.34c.55 0 1 .45 1 1v58c0 .37-.2.7-.52.88zM14.5 36.82c-.33.23-.78.24-1.12.02-.35-.23-.52-.64-.44-1.04l1.9-9.47L8.2 19.7c-.3-.28-.38-.7-.22-1.08.15-.38.52-.62.93-.62h9.42l3.32-7.32c.17-.37.52-.56.93-.6.4 0 .76.24.92.6L26.67 18h9.42c.4 0 .78.24.93.62.16.37.07.8-.22 1.1l-6.66 6.6 1.9 9.48c.1.4-.08.82-.43 1.04-.16.1-.35.16-.54.16-.2 0-.4-.06-.58-.18l-7.92-5.6-8.05 5.6zm8.65-7.63l6.43 4.52-1.52-7.52c-.07-.33.04-.67.28-.9l5.33-5.3h-7.65c-.4 0-.76-.24-.92-.6l-2.56-5.84-2.65 5.85c-.18.37-.54.6-.93.6h-7.65l5.34 5.3c.23.23.34.57.27.9l-1.52 7.55L22 29.18c.35-.24.82-.24 1.17 0z" fill-rule="evenodd"/></symbol><symbol id="calendar" viewBox="0 0 60 60"><path class="st2" d="M59 60H1c-.6 0-1-.4-1-1V5c0-.6.4-1 1-1h9V1c0-.6.4-1 1-1h8c.6 0 1 .4 1 1v3h20V1c0-.6.4-1 1-1h8c.6 0 1 .4 1 1v3h9c.6 0 1 .4 1 1v54c0 .6-.4 1-1 1zM18 2h-6v8h6V2zm30 0h-6v8h6V2zm10 4h-8v5c0 .6-.4 1-1 1h-8c-.6 0-1-.4-1-1V6H20v5c0 .6-.4 1-1 1h-8c-.6 0-1-.4-1-1V6H2v12h56V6zm0 14H2v38h56V20zM6 30c-.5 0-1-.4-1-1s.5-1 1-1h8v-4.3c0-.6.4-1 1-1s1 .4 1 1V28h12v-4.3c0-.6.4-1 1-1s1 .4 1 1V28h12v-4.3c0-.6.4-1 1-1s1 .4 1 1V28h10c.5 0 1 .4 1 1 0 .5-.5 1-1 1H44v8h10c.5 0 1 .4 1 1s-.5 1-1 1H44v8h10c.5 0 1 .4 1 1 0 .5-.5 1-1 1H44v4c0 .5-.4 1-1 1s-1-.5-1-1v-4H30v4c0 .5-.4 1-1 1s-1-.5-1-1v-4H16v4c0 .5-.4 1-1 1s-1-.5-1-1v-4H6c-.5 0-1-.5-1-1 0-.6.5-1 1-1h8v-8H6c-.5 0-1-.4-1-1s.5-1 1-1h8v-8H6zm22 0H16v8h12v-8zm14 0H30v8h12v-8zm0 18v-8H30v8h12zm-14 0v-8H16v8h12z"/></symbol><symbol id="chart" viewBox="0 0 60 60"><path d="M58.7 47.5h-1.2V11.2c0-.7-.6-1.2-1.3-1.2h-7.5c-.6 0-1.2.5-1.2 1.2v36.3h-5V28.7c0-.6-.6-1.2-1.3-1.2h-7.5c-.6 0-1.2.6-1.2 1.2v18.8h-5V23.7c0-.6-.6-1.2-1.2-1.2h-7.5c-.7 0-1.3.6-1.3 1.2v23.8h-5V36.3c0-.7-.6-1.3-1.2-1.3H3.8c-.7 0-1.3.6-1.3 1.3v11.2H1.2c-.6 0-1.2.6-1.2 1.3 0 .7.6 1.2 1.3 1.2h57.4c.7 0 1.3-.5 1.3-1.2s-.6-1.3-1.3-1.3zM5 47.5v-10h5v10H5zm15 0V25h5v22.5h-5zm15 0V30h5v17.5h-5zm15 0v-35h5v35h-5z"/></symbol><symbol id="check" viewBox="0 0 60 60"><path d="M41.65 20.34L23.78 37l-5.4-5.38c-.48-.5-1.27-.5-1.76 0-.5.5-.5 1.28 0 1.76l6.25 6.25c.24.25.56.37.88.37.3 0 .6-.1.85-.34l18.75-17.5c.5-.47.53-1.26.06-1.76-.45-.5-1.24-.53-1.74-.06zM30 0C13.46 0 0 13.46 0 30s13.46 30 30 30 30-13.46 30-30S46.54 0 30 0zm0 57.5C14.84 57.5 2.5 45.16 2.5 30S14.84 2.5 30 2.5 57.5 14.84 57.5 30 45.16 57.5 30 57.5z"/></symbol><symbol id="collapse" viewBox="0 0 60 60"><path class="st2" d="M3.53 10.6h10.6V7.05H0v45.88h14.12V49.4H3.52V10.6zm42.35-3.54v3.53h10.6v38.8h-10.6v3.53H60V7.06H45.88zm0 21.18H14.12v3.52h31.76v-3.52z"/></symbol><symbol id="doc" viewBox="0 0 60 60"><path d="M47.5 10.8l-7.3-7.3C38.3 1.6 34.4 0 31.7 0H14c-2.8 0-5 2.2-5 5v50c0 2.8 2.2 5 5 5h32c2.8 0 5-2.2 5-5V19.3c0-2.7-1.6-6.6-3.5-8.5zm-11-6.9c.8.4 1.5.9 2 1.4l7.3 7.3c.4.4.8 1 1.2 1.6h-6.6c-2.1 0-3.8-1.7-3.8-3.7V3.9h-.1zm12 51.1c0 1.4-1.1 2.5-2.5 2.5H14c-1.4 0-2.5-1.1-2.5-2.5V5c0-1.4 1.1-2.5 2.5-2.5h17.7c.7 0 1.5.2 2.3.4v7.5c0 3.4 2.8 6.3 6.2 6.3H48c.3.9.5 1.9.5 2.7V55z"/><path d="M18.3 29.6c.2.4.4 1.2.6 1.9l3.9 14.9H26l3.5-12.6 3.1 12.6h3.3l4.5-13.5c.4-1.2.6-1.9.8-2.5.2-.6.4-1 .6-1.2.2-.2.4-.6.6-.6.2-.2.4-.4.8-.4v-1.4H37v1.4c.4 0 .8.4 1.2.6.2.4.4.8.4 1.4 0 .4 0 .8-.2 1.4 0 .6-.2 1.2-.4 1.7l-2.1 7-3.1-13.4h-3.1L26 40.3l-1.9-8.1c-.2-.4-.2-.8-.4-1.2 0-.4-.2-.8-.2-1.2 0-.6.2-.8.4-1.2.2-.2.6-.4 1.2-.6v-1.4h-7.9V28c.4 0 .6.2.8.4-.1.4.1.6.3 1.2z"/></symbol><symbol id="down-arrow" viewBox="0 0 60 60"><path class="st2" d="M59.7 14.17c.4.38.4 1.02.02 1.42l-29 30.2c-.38.4-1.06.4-1.44 0l-29-30.2c-.38-.4-.37-1.06.02-1.44.4-.4 1.04-.38 1.42.02L30 43.65 58.28 14.2c.2-.2.46-.32.72-.32.25 0 .5.1.7.3z"/></symbol><symbol id="download" viewBox="0 0 60 60"><title>icons</title><path d="M58.63 43.58a1.3 1.3 0 0 0-1.3 1.3v5A6.17 6.17 0 0 1 51.16 56H8.84a6.17 6.17 0 0 1-6.17-6.17v-5a1.3 1.3 0 0 0-2.6 0v5a8.78 8.78 0 0 0 8.77 8.77h42.32a8.78 8.78 0 0 0 8.77-8.77v-5a1.3 1.3 0 0 0-1.3-1.25zM29.08 45.5a1.3 1.3 0 0 0 1.84 0l18.22-18.2a1.3 1.3 0 1 0-1.84-1.84l-16 16V2.66a1.3 1.3 0 0 0-2.6 0v38.8l-16-16a1.3 1.3 0 1 0-1.84 1.83z"/></symbol><symbol id="email" viewBox="0 0 60 60"><path d="M54.55 9.55H5.45C2.45 9.55 0 12 0 15v30c0 3 2.45 5.45 5.46 5.45h49.1c3 0 5.44-2.44 5.44-5.45V15c0-3-2.45-5.45-5.45-5.45zm0 2.72c.16 0 .32.02.48.05L30 32.35 4.97 12.32c.16-.03.32-.05.5-.05h49.08zM57.27 45c0 1.5-1.22 2.73-2.72 2.73H5.45c-1.5 0-2.72-1.23-2.72-2.73V15c0-.3.06-.6.15-.86l26.27 21.02c.25.2.55.3.85.3.3 0 .6-.1.85-.3l26.27-21.02c.1.27.15.56.15.86v30z"/></symbol><symbol id="expand-table" viewBox="0 0 60 60"><path class="st3" d="M58.75 0h-50C8.05 0 7.5.56 7.5 1.25v50c0 .7.56 1.25 1.25 1.25h50c.7 0 1.25-.56 1.25-1.25v-50C60 .55 59.44 0 58.75 0zM57.5 50h-30v-1.25c0-.7-.56-1.25-1.25-1.25S25 48.06 25 48.75V50H10V35h1.25c.7 0 1.25-.56 1.25-1.25s-.56-1.25-1.25-1.25H10v-30h47.5V50z"/><path class="st3" d="M31.25 30c.32 0 .64-.12.88-.37L50 11.77v9.48c0 .7.56 1.25 1.25 1.25s1.25-.56 1.25-1.25V8.75c0-.16-.03-.33-.1-.48-.12-.3-.37-.55-.67-.67-.15-.07-.32-.1-.48-.1h-12.5c-.7 0-1.25.56-1.25 1.25S38.06 10 38.75 10h9.48L30.37 27.87c-.5.48-.5 1.27 0 1.76.24.25.56.37.88.37zm-27.5 2.5h-2.5c-.7 0-1.25.56-1.25 1.25v2.5c0 .7.56 1.25 1.25 1.25s1.25-.56 1.25-1.25V35h1.25c.7 0 1.25-.56 1.25-1.25s-.56-1.25-1.25-1.25zM1.25 45c.7 0 1.25-.56 1.25-1.25v-2.5c0-.7-.56-1.25-1.25-1.25S0 40.56 0 41.25v2.5C0 44.45.56 45 1.25 45zm15-10h2.5c.7 0 1.25-.56 1.25-1.25s-.56-1.25-1.25-1.25h-2.5c-.7 0-1.25.56-1.25 1.25S15.56 35 16.25 35zm-5 22.5h-2.5c-.7 0-1.25.56-1.25 1.25S8.06 60 8.75 60h2.5c.7 0 1.25-.56 1.25-1.25s-.56-1.25-1.25-1.25zm7.5 0h-2.5c-.7 0-1.25.56-1.25 1.25S15.56 60 16.25 60h2.5c.7 0 1.25-.56 1.25-1.25s-.56-1.25-1.25-1.25zm-15 0H2.5v-1.25c0-.7-.56-1.25-1.25-1.25S0 55.56 0 56.25v2.5C0 59.45.56 60 1.25 60h2.5c.7 0 1.25-.56 1.25-1.25s-.56-1.25-1.25-1.25zm-2.5-5c.7 0 1.25-.56 1.25-1.25v-2.5c0-.7-.56-1.25-1.25-1.25S0 48.06 0 48.75v2.5c0 .7.56 1.25 1.25 1.25zM23.75 35H25v1.25c0 .7.56 1.25 1.25 1.25s1.25-.56 1.25-1.25v-2.5c0-.7-.56-1.25-1.25-1.25h-2.5c-.7 0-1.25.56-1.25 1.25S23.06 35 23.75 35zm2.5 5c-.7 0-1.25.56-1.25 1.25v2.5c0 .7.56 1.25 1.25 1.25s1.25-.56 1.25-1.25v-2.5c0-.7-.56-1.25-1.25-1.25zm0 15c-.7 0-1.25.56-1.25 1.25v1.25h-1.25c-.7 0-1.25.56-1.25 1.25S23.06 60 23.75 60h2.5c.7 0 1.25-.56 1.25-1.25v-2.5c0-.7-.56-1.25-1.25-1.25z"/></symbol><symbol id="expand" viewBox="0 0 60 60"><path d="M4 10.6h10.5V7.1H.5v45.5h14v-3.5H4V10.6zm42-3.5v3.5h10.5v38.5H46v3.5h14V7.1H46zm0 21H32v-14h-3.5v14h-14v3.5h14v14H32v-14h14v-3.5z"/></symbol><symbol id="external-link" viewBox="0 0 60 60"><title>icons</title><path d="M49.1 55.42a.92.92 0 0 1-.92.9H4.55a.92.92 0 0 1-.9-.9v-43.6a.92.92 0 0 1 .9-.92h29.1V7.27H4.55A4.55 4.55 0 0 0 0 11.8v43.62A4.55 4.55 0 0 0 4.55 60h43.63a4.55 4.55 0 0 0 4.55-4.54v-29.1H49.1V55.4zM60 0v24.53h-3.64V6.2L24.92 37.62l-2.57-2.57L53.8 3.63H35.44V0H60z"/></symbol><symbol id="facebook-footer" viewBox="0 0 60 60"><path class="st2" d="M43.88 20.82H33.7V13.2c0-2.34 2.36-2.88 3.46-2.88h6.57V.04L36.2 0C25.92 0 23.58 7.66 23.58 12.58v8.24h-7.46v10.6h7.46V60H33.7V31.4h8.6l1.58-10.58z"/></symbol><symbol id="linkedin-footer" viewBox="0 0 60 60"><path class="st2" d="M.8 60h11V15H.8v45zm43.8-45c-9.3 0-14 7.2-14.6 7.5V15H19v45h11V33.6c0-1 2.3-8.6 11-7.5 4.6.4 7 6.7 7.3 7.6V60h11V29c-.5-4.6-2.7-14-14.7-14zM6.3 0C3.3 0 .8 2.5.8 5.6c0 3 2.5 5.6 5.5 5.6s5.5-2.5 5.5-5.6c0-3-2.5-5.6-5.5-5.6z"/></symbol><symbol id="linkedin" viewBox="0 0 60 60"><path d="M58.6 58.7H47.4c-.77 0-1.4-.6-1.4-1.35V35.97c0-4.3-2.08-6.85-5.56-6.85-2.68 0-5.02 1.8-5.73 3.55-.2.5-.3 1.3-.3 2.44v22.3c0 .8-.6 1.4-1.4 1.4H21.7c-.78 0-1.4-.6-1.4-1.3V28.9c0-3.83 0-7.1-.13-9.9-.02-.38.12-.74.38-1 .28-.28.64-.43 1-.44l10.38-.2h.04c.73 0 1.34.54 1.4 1.24l.27 2.6c2.1-2 5.7-4.3 11.24-4.3 9.5 0 15.2 6.6 15.2 17.7v22.8c0 .73-.63 1.34-1.4 1.34zM48.82 56h8.35V34.6c0-9.53-4.5-15-12.4-15-6.8 0-10.05 4.2-10.9 5.5-.24.38-.7.63-1.18.63h-.3c-.7 0-1.4-.53-1.4-1.23l-.5-4.4-7.6.15c.05 2.53.04 5.4.04 8.62V56h8.55V35.1c0-1.5.17-2.6.5-3.44 1.05-2.55 4.3-5.27 8.36-5.27 5.1 0 8.37 3.7 8.37 9.5v20zM13.1 58.52H1.73c-.78 0-1.4-.6-1.4-1.37V18.7c0-.76.62-1.37 1.4-1.37H13.1c.77 0 1.4.6 1.4 1.36v38.4c0 .7-.63 1.3-1.4 1.3zM3.14 55.8h8.55V20.04H3.1V55.8zm4.6-40C3.24 15.8 0 12.73 0 8.53 0 4.33 3.32 1.3 7.9 1.3c4.5 0 7.7 2.96 7.8 7.2 0 4.24-3.35 7.3-7.97 7.3zM7.88 4C4.84 4 2.8 5.8 2.8 8.52c0 2.66 2.02 4.52 4.9 4.52 3.1 0 5.16-1.8 5.16-4.52C12.8 5.78 10.84 4 7.86 4z"/></symbol><symbol id="menu-icon" viewBox="0 0 60 60"><path d="M0 0v8h60V0H0zm0 34h60v-8H0v8zm0 26h60v-8H0v8z"/></symbol><symbol id="my-account" viewBox="0 0 60 60"><path d="M50.92 44.14l-12.75-4.66v-6.43c3.9-3.28 6.48-8.73 6.48-14.9 0-10-6.73-18.15-15-18.15-8.25 0-14.98 8.14-14.98 18.14 0 6.52 2.87 12.24 7.15 15.43v5.9L9.08 44.15c-3.78 1.4-6.33 5.1-6.33 9.2V60h54.5v-6.66c0-4.12-2.55-7.8-6.33-9.2zM29.66 2.8c6 0 11 5.42 12.05 12.56-3.9.8-6.4-.53-8.7-4.7l-1.2-2.2-1.13 2.25c-1.26 2.5-5.5 4.7-9.05 4.7-1.4 0-2.6-.2-3.77-.7C19 7.9 23.9 2.8 29.7 2.8zM17.4 18.13c0-.23.02-.45.03-.67 1.27.44 2.6.67 4.06.67 3.7 0 7.8-1.82 10.1-4.33 2.1 3.1 4.7 4.58 8 4.58.7 0 1.4-.1 2.2-.23 0 8.46-5.5 15.34-12.27 15.34s-12.2-6.9-12.2-15.4zM54.52 57.2H5.48v-3.86c0-2.94 1.8-5.58 4.52-6.57l14.55-5.32v-6.28c1.6.7 3.3 1.1 5.1 1.1 2.06 0 4.02-.5 5.8-1.4v6.58L50 46.77c2.7 1 4.52 3.63 4.52 6.57v3.87z"/></symbol><symbol id="pdf" viewBox="0 0 60 60"><path d="M41.15 37.76c-1.2 0-2.68.15-4.4.47-2.4-2.55-4.9-6.26-6.66-9.9 1.7-7.37.52-8.86.2-9.35-.48-.53-1-.8-1.7-.8-.3 0-.6.04-.9.14-.75.25-1.3.78-1.65 1.54-.9 2.16.35 5.86 1.65 8.7-1.1 4.44-2.97 9.76-4.94 14.08-4.95 2.27-7.6 4.5-7.82 6.63-.08.78.1 1.92 1.46 2.94.38.3.8.5 1.28.5 1.15 0 2.3-.9 3.65-2.76.98-1.4 2.02-3.25 3.12-5.57 3.5-1.52 7.84-2.9 11.56-3.68 2.1 1.97 3.95 3 5.5 3 1.2 0 2.2-.56 2.95-1.58.75-1.06.93-2 .5-2.82-.5-1-1.74-1.46-3.8-1.46zM17.72 50.42c-.6-.47-.58-.8-.56-.9.08-.73 1.22-2.03 4.02-3.6-2.12 3.92-3.26 4.44-3.46 4.5zm10.42-29.7c.1-.2.2-.27.32-.3l.12-.05c.2.3.43 1.48 0 4.25-.5-1.6-.78-3.1-.44-3.9zm-2.4 20.67c1.34-3.2 2.58-6.7 3.5-9.9 1.48 2.6 3.25 5.2 5.02 7.2-2.8.64-5.77 1.6-8.5 2.63zm16.9-.7c-.4.57-.8.64-1.1.64-.7 0-1.65-.46-2.72-1.28.88-.1 1.67-.18 2.33-.18 1.16 0 1.63.17 1.8.25-.04.1-.1.27-.3.54zm4.83-29.96l-7.27-7.2C38.26 1.6 34.42 0 31.67 0H14c-2.75 0-5 2.25-5 5v50c0 2.75 2.25 5 5 5h32c2.75 0 5-2.25 5-5V19.33c0-2.75-1.6-6.6-3.53-8.53zm-11-6.9c.78.43 1.48.9 1.97 1.4l7.26 7.25c.4.42.8 1 1.17 1.6h-6.64c-2.07 0-3.75-1.68-3.75-3.75V3.93zM48.5 55c0 1.38-1.12 2.5-2.5 2.5H14c-1.38 0-2.5-1.12-2.5-2.5V5c0-1.38 1.12-2.5 2.5-2.5h17.67c.68 0 1.48.15 2.3.4v7.52c0 3.44 2.8 6.24 6.26 6.24H48c.3.95.5 1.9.5 2.67V55z"/></symbol><symbol id="print" viewBox="0 0 60 60"><path d="M53.75 17.5H6.25C2.8 17.5 0 20.3 0 23.75v15C0 42.2 2.8 45 6.25 45h6.25v11.25c0 .7.56 1.25 1.25 1.25h32.5c.7 0 1.25-.56 1.25-1.25V45h6.25C57.2 45 60 42.2 60 38.75v-15c0-3.45-2.8-6.25-6.25-6.25zM45 55H15V37.5h30V55zm12.5-16.25c0 2.07-1.68 3.75-3.75 3.75H47.5v-6.25c0-.7-.56-1.25-1.25-1.25h-32.5c-.7 0-1.25.56-1.25 1.25v6.25H6.25c-2.07 0-3.75-1.68-3.75-3.75v-15C2.5 21.68 4.18 20 6.25 20h47.5c2.07 0 3.75 1.68 3.75 3.75v15zM13.75 15c.7 0 1.25-.56 1.25-1.25V5h22.5v6.25c0 .7.56 1.25 1.25 1.25H45v1.25c0 .7.56 1.25 1.25 1.25.7 0 1.25-.56 1.25-1.25v-2.5c0-.17-.03-.33-.1-.48-.06-.15-.15-.3-.27-.4l-7.5-7.5c-.1-.12-.25-.2-.4-.27-.15-.07-.3-.1-.48-.1h-25c-.7 0-1.25.56-1.25 1.25v10c0 .7.56 1.25 1.25 1.25zM40 6.77L43.23 10H40V6.77zM8.75 22.5C6.68 22.5 5 24.18 5 26.25 5 28.32 6.68 30 8.75 30c2.07 0 3.75-1.68 3.75-3.75 0-2.07-1.68-3.75-3.75-3.75zm0 5c-.7 0-1.25-.56-1.25-1.25 0-.7.56-1.25 1.25-1.25s1.25.56 1.25 1.25c0 .7-.56 1.25-1.25 1.25zm10 15h22.5c.7 0 1.25-.56 1.25-1.25 0-.7-.56-1.25-1.25-1.25h-22.5c-.7 0-1.25.56-1.25 1.25 0 .7.56 1.25 1.25 1.25zm0 5h22.5c.7 0 1.25-.56 1.25-1.25 0-.7-.56-1.25-1.25-1.25h-22.5c-.7 0-1.25.56-1.25 1.25 0 .7.56 1.25 1.25 1.25zm0 5h22.5c.7 0 1.25-.56 1.25-1.25 0-.7-.56-1.25-1.25-1.25h-22.5c-.7 0-1.25.56-1.25 1.25 0 .7.56 1.25 1.25 1.25z"/></symbol><symbol id="question-mark" viewBox="0 0 60 60"><title>icons</title><path class="cls-1" d="M30 60a30 30 0 1 1 30-30 30 30 0 0 1-30 30zm0-57.5A27.5 27.5 0 1 0 57.5 30 27.53 27.53 0 0 0 30 2.5zm1.25 29.9v6.35a1.25 1.25 0 1 1-2.5 0v-7.5A1.25 1.25 0 0 1 30 30a6.25 6.25 0 1 0-6.25-6.25 1.25 1.25 0 0 1-2.5 0 8.75 8.75 0 1 1 10 8.66zM30 42.5a2.5 2.5 0 1 1-2.5 2.5 2.5 2.5 0 0 1 2.5-2.5z"/></symbol><symbol id="register" viewBox="0 0 60 60"><path d="M24.97 0C17.4 0 11.22 7.3 11.22 16.25c0 5.7 2.5 10.72 6.28 13.62v5.5L5.8 39.55C2.33 40.8 0 44.1 0 47.78V55h31.25v-2.5H2.5v-4.72c0-2.63 1.67-5 4.14-5.88L20 37.13v-5.75c1.54.72 3.22 1.12 4.97 1.12 1.78 0 3.47-.4 5.03-1.14v4.9h2.5v-6.43c3.74-2.9 6.22-7.9 6.22-13.58C38.72 7.3 32.55 0 24.97 0zm0 2.5c5.5 0 10.1 4.87 11.06 11.27h-.05c-3.63.7-5.87-.48-8-4.2l-1.14-2-1.06 2.03c-1.16 2.2-5.04 4.15-8.3 4.15-1.28 0-2.37-.2-3.45-.65C15.2 7.03 19.66 2.5 24.97 2.5zm0 27.5c-6.2 0-11.25-6.17-11.25-13.75l.03-.6c1.17.4 2.38.6 3.72.6 3.44 0 7.2-1.63 9.34-3.87 2 2.77 4.36 4.08 7.34 4.08.67 0 1.36-.07 2.1-.2C36.2 23.84 31.16 30 24.96 30zm33.78 11.25H57.5V40c0-4.82-3.92-8.75-8.75-8.75S40 35.18 40 40v1.25h-1.25c-.7 0-1.25.56-1.25 1.25v16.25c0 .7.56 1.25 1.25 1.25h20c.7 0 1.25-.56 1.25-1.25V42.5c0-.7-.56-1.25-1.25-1.25zM42.5 40c0-3.45 2.8-6.25 6.25-6.25S55 36.55 55 40v1.25H42.5V40zm15 17.5H40V43.75h17.5V57.5zm-9.94-6.56c-.02.1-.06.2-.06.3v2.5c0 .7.56 1.26 1.25 1.26.7 0 1.25-.56 1.25-1.25v-2.5c0-.1-.04-.2-.06-.3.77-.44 1.3-1.25 1.3-2.2 0-1.38-1.1-2.5-2.5-2.5-1.37 0-2.5 1.12-2.5 2.5 0 .95.54 1.76 1.32 2.2z"/></symbol><symbol id="right-arrow" viewBox="0 0 60 60"><path d="M18.18 60c-.8 0-1.6-.3-2.2-.94-1.2-1.26-1.2-3.3 0-4.57l22.9-23.75L14.52 5.5c-1.2-1.26-1.2-3.3 0-4.56 1.22-1.26 3.2-1.26 4.4 0l26.56 27.54c1.2 1.26 1.2 3.3 0 4.56l-25.1 26.02c-.6.63-1.4.94-2.2.94z"/></symbol><symbol id="rss" viewBox="0 0 60 60"><path class="st1" d="M12.5 25v2.5c11.03 0 20 8.97 20 20H35C35 35.1 24.9 25 12.5 25z"/><path class="st1" d="M12.5 12.5V15C30.42 15 45 29.58 45 47.5h2.5c0-19.3-15.7-35-35-35zm5 25c-2.76 0-5 2.24-5 5s2.24 5 5 5 5-2.24 5-5-2.24-5-5-5zm0 7.5c-1.38 0-2.5-1.12-2.5-2.5s1.12-2.5 2.5-2.5 2.5 1.12 2.5 2.5-1.12 2.5-2.5 2.5z"/><path class="st1" d="M51.25 0H8.75C3.93 0 0 3.93 0 8.75v42.5C0 56.07 3.93 60 8.75 60h42.5c4.82 0 8.75-3.93 8.75-8.75V8.75C60 3.93 56.07 0 51.25 0zm6.25 51.25c0 3.45-2.8 6.25-6.25 6.25H8.75c-3.45 0-6.25-2.8-6.25-6.25V8.75C2.5 5.3 5.3 2.5 8.75 2.5h42.5c3.45 0 6.25 2.8 6.25 6.25v42.5z"/></symbol><symbol id="save" viewBox="0 0 60 60"><title>icons</title><path class="cls-1" d="M49 59.95a1 1 0 0 1-.6-.2L30 46.2 11.6 59.75a1 1 0 0 1-1.55-1.12l7.42-22L.4 23.76A1 1 0 0 1 1 22h21.27L29 .67a1 1 0 0 1 2 0L37.73 22H59a1 1 0 0 1 .6 1.8L42.6 36 50 58.64a1 1 0 0 1-1 1.3zM30 44a1 1 0 0 1 .6.2l16.5 12.1-6.64-20.35a1 1 0 0 1 .37-1.12L55.9 24H37a1 1 0 0 1-1-.7l-6-19-6 19a1 1 0 0 1-1 .7H4l15.27 11.5a1 1 0 0 1 .35 1.12L13 56.26l16.4-12.1A1 1 0 0 1 30 44z"/></symbol><symbol id="saved" viewBox="0 0 60 60"><title>icons</title><path class="cls-1" d="M49 59.95a1 1 0 0 1-.6-.2L30 46.2 11.6 59.75a1 1 0 0 1-1.55-1.12l7.42-22L.4 23.76A1 1 0 0 1 1 22h21.27L29 .67a1 1 0 0 1 2 0L37.73 22H59a1 1 0 0 1 .6 1.8L42.6 36 50 58.64a1 1 0 0 1-1 1.3z"/></symbol><symbol id="search" viewBox="0 0 60 60"><path class="st1" d="M22.53 45c5.3 0 10.18-1.87 14.03-4.98l19.07 19.24c.5.5 1.13.74 1.77.74.63 0 1.27-.24 1.75-.73.98-.97.98-2.56 0-3.53L40.08 36.47c3.04-3.84 4.87-8.7 4.87-13.97C44.95 10.1 34.9 0 22.55 0S.1 10.1.1 22.5 10.18 45 22.54 45zm0-40c9.6 0 17.43 7.85 17.43 17.5S32.14 40 22.53 40 5.1 32.15 5.1 22.5 12.9 5 22.52 5z"/></symbol><symbol id="sign-in" viewBox="0 0 60 60"><path d="M8.87 0v7.33h2.23v-5.1h38.88v55.54H11.1V51.9H8.88V60h43.35V0H8.87zM25.2 37.46l1.58 1.58L35.85 30l-9.07-9.04-1.6 1.58 6.38 6.34H7.78v2.23h23.78l-6.37 6.37z"/></symbol><symbol id="sign-out" viewBox="0 0 60 60"><path d="M9.83 0v7.33h2.24v-5.1h38.88v55.54h-38.9V51.9H9.84V60h43.35V0H9.83zm6.06 20.96L6.8 30l9.07 9.04 1.57-1.58-6.37-6.34h23.78V28.9H11.1l6.37-6.36-1.58-1.58z"/></symbol><symbol id="sort-down-arrow" viewBox="0 0 60 60"><path d="M30 47.4l30-34.8H0l30 34.8z"/></symbol><symbol id="sort-up-arrow" viewBox="0 0 60 60"><path d="M0 47.4h60L30 12.6 0 47.4z"/></symbol><symbol id="sorting-arrow-table" viewBox="0 0 48 48"><path d="M14.83 16.42l9.17 9.17 9.17-9.17 2.83 2.83-12 12-12-12z"/><path d="M0-.75h48v48h-48z" fill="none"/></symbol><symbol id="tool-maintenance" viewBox="0 0 60 60"><path class="st2" d="M6.12 60c-1.64 0-3.18-.64-4.33-1.8C.6 57.06 0 55.5 0 53.88s.64-3.17 1.8-4.32l24.6-24.58c-3.07-6.67-1.66-14.55 3.6-19.8C33.34 1.82 37.8 0 42.54 0c2.8 0 5.6.67 8.06 1.93.27.14.47.4.53.7.05.32-.03.63-.24.87l-7.16 8.18v5.78h4.5L56.4 9.3c.24-.2.57-.3.9-.25.32.05.6.25.74.54 3.5 6.82 2.2 15.06-3.22 20.5-3.33 3.32-7.75 5.15-12.46 5.15-2.53 0-5.06-.56-7.35-1.6L10.46 58.2C9.3 59.37 7.75 60 6.12 60zm36.4-57.98c-4.2 0-8.14 1.63-11.08 4.57-4.82 4.8-6 12.1-2.9 18.1.2.4.12.85-.2 1.16l-25.1 25.1c-.77.76-1.2 1.8-1.2 2.9 0 1.1.4 2.1 1.2 2.9 1.54 1.53 4.23 1.53 5.8 0l25.06-25.1c.3-.3.78-.4 1.17-.2 2.18 1.13 4.64 1.7 7.1 1.7 4.17 0 8.08-1.6 11.02-4.54 4.43-4.47 5.74-11.1 3.4-16.87l-7.43 7.4c-.2.2-.45.3-.7.3h-5.95c-.56 0-1.02-.45-1.02-1v-7.2c0-.23.1-.47.26-.65l6.48-7.44C46.6 2.4 44.56 2 42.5 2z"/></symbol><symbol id="twitter-footer" viewBox="0 0 60 60"><path d="M60 9.54c-1 .62-4.04 1.85-6.87 2.16 1.8-1.08 4.5-4.62 5.16-7.43-1.8 1.23-5.8 3.03-7.8 3.03-2.27-2.6-5.44-4.25-8.96-4.25-6.83 0-12.38 6.12-12.38 13.68 0 1.04.1 2.06.3 3.04-9.26-.27-20.1-5.4-26.2-14.2C-.5 12.75 2.76 20.73 7 23.64c-1.45.13-4.14-.18-5.4-1.54-.1 4.77 1.98 11.1 9.54 13.37-1.43.86-4 .6-5.13.42.4 4 5.5 9.3 11.08 9.3-1.97 2.5-8.75 7.1-17.13 5.6 5.7 3.82 12.3 6.04 19.34 6.04 20 .04 35.5-17.84 34.7-39.9v-.44c1.8-1.37 4.26-3.8 6-7z"/></symbol><symbol id="twitter" viewBox="0 0 60 60"><path d="M19.347 54.99c-5.307 0-12.656-1.042-18.805-5.75-.503-.385-.68-1.07-.43-1.657.25-.59.87-.924 1.483-.813.09.018 8.057 1.373 13.734-2.652-3.17-.913-7.03-3.343-8.65-8.66-.15-.47-.03-.98.29-1.344.14-.153.3-.27.49-.348-2.5-1.928-4.98-5.236-4.89-10.758.01-.518.3-.987.75-1.217.4-.2.864-.19 1.25.03-2.07-3.48-3.3-8.46-.28-13.72.222-.38.616-.64 1.055-.68.445-.04.87.14 1.157.49.097.12 9.71 11.5 21.575 11.8-.06-.51-.09-1.04-.09-1.56 0-7.233 5.78-13.122 12.89-13.122 3.28 0 6.37 1.24 8.76 3.504 1.515-.05 4-.46 6.5-2.283.4-.293.92-.34 1.37-.13.444.214.74.656.78 1.155.024.383 0 1.94-1.85 4.27.56-.19 1.04-.406 1.365-.65.466-.36 1.1-.37 1.582-.034.48.336.696.945.54 1.516-.125.454-.92 2.274-5.905 6.94.04 4.426-.97 28.71-27.57 35.04-.277.06-3.12.657-7.13.657zM6.75 49.73c9.026 4.02 19.016 1.927 19.133 1.902 11.283-2.685 19-9.024 22.912-18.84 2.928-7.348 2.523-13.933 2.518-13.998-.03-.424.135-.836.443-1.12 1.224-1.13 2.186-2.078 2.94-2.863-1.2.22-2.168.31-2.388.33-.593.05-1.16-.31-1.375-.88-.217-.57-.04-1.22.436-1.59.96-.76 1.71-1.46 2.29-2.07-1.89.62-3.53.71-4.57.71-.36-.01-.7-.16-.95-.415C46.21 8.9 43.63 7.8 40.89 7.8c-5.61 0-10.17 4.646-10.17 10.355 0 .874.1 1.74.31 2.58.1.4.02.828-.22 1.16-.24.335-.62.54-1.02.567-11.24.636-20.54-7.683-23.97-11.22C3.3 18 9.15 23.23 9.42 23.47c.406.352.57.912.42 1.434-.15.52-.58.91-1.104.988-1.158.178-2.316-.09-3.278-.46 1.11 6.615 7.27 8.043 7.56 8.106.58.126 1.01.614 1.07 1.207.06.595-.25 1.164-.78 1.41-.976.45-2.17.55-3.2.536 2.67 5.06 7.98 5.13 8.28 5.13h.008c.538 0 1.028.33 1.247.83.22.5.13 1.08-.23 1.49-3.66 4.12-8.776 5.35-12.67 5.61z"/></symbol><symbol id="up-arrow" viewBox="0 0 60 60"><path class="st2" d="M59 46.12c-.26 0-.52-.1-.72-.3L30 16.3 1.72 45.83c-.38.4-1 .4-1.4 0-.4-.37-.42-1-.04-1.4l29-30.24c.38-.4 1.06-.4 1.44 0l29 30.2c.4.4.37 1.05-.02 1.43-.2.2-.45.3-.7.3z"/></symbol><symbol id="video" viewBox="0 0 60 60"><path d="M36.2 36.24H11.4c-.82 0-1.47.68-1.47 1.52s.65 1.52 1.46 1.52h24.8c.8 0 1.42-.68 1.42-1.52s-.65-1.52-1.46-1.52zm-24.8-9.9c6.26 0 11.37-5.32 11.37-11.86 0-6.55-5.1-11.87-11.38-11.87C5.1 2.6 0 7.98 0 14.5s5.1 11.87 11.4 11.87zm0-20.7c4.66 0 8.46 3.97 8.46 8.84 0 4.86-3.8 8.82-8.47 8.82-4.7 0-8.5-3.96-8.5-8.82 0-4.87 3.8-8.83 8.45-8.83zm21.08 20.7c4.23 0 7.67-3.58 7.67-7.98s-3.44-8-7.67-8c-4.22 0-7.66 3.6-7.66 8s3.44 8 7.66 8zm0-12.93c2.62 0 4.75 2.27 4.75 5 0 2.7-2.13 4.95-4.75 4.95s-4.74-2.22-4.74-4.94c0-2.73 2.13-4.95 4.74-4.95zm26.2 19c-.84-.6-1.93-.64-3-.2L45.1 36.8v-4.2c0-2.28-1.74-4.12-3.9-4.12H6.4c-2.17 0-3.94 1.84-3.94 4.1v20.7c0 2.27 1.77 4.1 3.94 4.1h34.75c2.17 0 3.94-1.83 3.94-4.1V49.1l10.6 4.6c.45.2.92.3 1.4.3.55 0 1.1-.17 1.6-.5.82-.6 1.3-1.6 1.3-2.8V35.17c0-1.2-.47-2.2-1.3-2.8zm-16.5 6.68V53.3c0 .58-.46 1.07-1 1.07H6.4c-.55 0-1.02-.5-1.02-1.07V32.6c0-.57.47-1.06 1.02-1.06h34.75c.55 0 1.02.5 1.02 1.07v6.48zM56.8 50.9l-11.7-5.1v-5.7l11.98-4.93-.27 15.7z"/></symbol><symbol id="x" viewBox="0 0 60 60"><path d="M32.1 30L59.5 2.54c.58-.58.58-1.52 0-2.1-.58-.58-1.52-.58-2.1 0L30 27.9 2.6.43C2.02-.14 1.08-.14.5.43c-.58.6-.58 1.53 0 2.1L27.9 30 .5 57.46c-.58.58-.58 1.52 0 2.1.3.3.67.44 1.05.44s.76-.14 1.05-.44L30 32.1l27.4 27.46c.3.3.67.44 1.05.44s.76-.14 1.05-.44c.58-.58.58-1.52 0-2.1L32.1 30z"/></symbol><symbol id="xls" viewBox="0 0 60 60"><path d="M47.5 10.8l-7.3-7.3C38.3 1.6 34.4 0 31.7 0H14c-2.8 0-5 2.2-5 5v50c0 2.8 2.2 5 5 5h32c2.8 0 5-2.2 5-5V19.3c0-2.7-1.6-6.6-3.5-8.5zm-11-6.9c.8.4 1.5.9 2 1.4l7.3 7.3c.4.4.8 1 1.2 1.6h-6.6c-2.1 0-3.8-1.7-3.8-3.7V3.9h-.1zm12 51.1c0 1.4-1.1 2.5-2.5 2.5H14c-1.4 0-2.5-1.1-2.5-2.5V5c0-1.4 1.1-2.5 2.5-2.5h17.7c.7 0 1.5.2 2.3.4v7.5c0 3.4 2.8 6.3 6.2 6.3H48c.3.9.5 1.9.5 2.7V55z"/><path d="M41.5 46l-8-10.2 7.4-9.3h-7.4l-3.7 5-3.5-5h-7.6l7.6 9.5-7.8 10h7.2l4.1-5.6 4.1 5.6"/></symbol></svg>