<?xml version="1.0" encoding="utf-8"?>
<!-- Generator: Adobe Illustrator 19.2.0, SVG Export Plug-In . SVG Version: 6.00 Build 0)  -->
<!DOCTYPE svg PUBLIC "-//W3C//DTD SVG 1.1//EN" "http://www.w3.org/Graphics/SVG/1.1/DTD/svg11.dtd">
<svg version="1.1" id="layers" xmlns="http://www.w3.org/2000/svg" xmlns:xlink="http://www.w3.org/1999/xlink" x="0px" y="0px"
	 width="60px" height="60px" viewBox="0 0 60 60" style="enable-background:new 0 0 60 60;" xml:space="preserve">
<style type="text/css">
	.st0{fill-rule:evenodd;clip-rule:evenodd;fill:#231F20;}
	.st1{fill:#231F20;}
	.st2{fill-rule:evenodd;clip-rule:evenodd;}
	.st3{fill:#202020;}
</style>
<path class="st2" d="M58.956,30.5h-27.64v28.457c0,0.578-0.467,1.043-1.044,1.043c-0.577,0-1.044-0.465-1.044-1.043V30.5H1.044
	C0.467,30.5,0,30.035,0,29.457c0-0.578,0.467-1.044,1.044-1.044h28.184V1.043C29.228,0.465,29.695,0,30.272,0
	c0.577,0,1.044,0.465,1.044,1.043v27.37h27.64c0.577,0,1.044,0.466,1.044,1.044C60,30.035,59.533,30.5,58.956,30.5z"/>
</svg>
