<svg xmlns="http://www.w3.org/2000/svg" width="60" height="60" viewBox="0 0 60 60"><path class="st1" d="M30.5 0H30C13.18.3-.28 14 0 30.52.3 47.05 13.26 60 29.5 60h.5c16.8-.3 30.26-14 29.97-30.52C59.7 12.95 46.74 0 30.5 0zM30 57.4h-.5c-14.8 0-26.6-11.83-26.86-26.92-.27-15.1 12.03-27.6 27.4-27.87h.5c14.8 0 26.6 11.88 26.86 26.97.27 15.1-12.03 27.6-27.4 27.87z"/><path class="st1" d="M30 35.2c.72 0 1.3-.57 1.3-1.3V15.66c0-.72-.58-1.3-1.3-1.3s-1.3.58-1.3 1.3V33.9c0 .73.58 1.3 1.3 1.3zm0 5.23h-.05c-1.43.02-2.58 1.2-2.56 2.65 0 1.43 1.13 2.57 2.6 2.57 1.42-.03 2.57-1.22 2.55-2.66-.03-1.48-1.2-2.6-2.6-2.6z"/></svg>
