<?xml version="1.0" encoding="utf-8"?>
<!-- Generator: Adobe Illustrator 19.2.0, SVG Export Plug-In . SVG Version: 6.00 Build 0)  -->
<!DOCTYPE svg PUBLIC "-//W3C//DTD SVG 1.1//EN" "http://www.w3.org/Graphics/SVG/1.1/DTD/svg11.dtd">
<svg version="1.1" id="layers" xmlns="http://www.w3.org/2000/svg" xmlns:xlink="http://www.w3.org/1999/xlink" x="0px" y="0px"
	 width="60px" height="60px" viewBox="0 0 60 60" style="enable-background:new 0 0 60 60;" xml:space="preserve">
<style type="text/css">
	.st0{fill-rule:evenodd;clip-rule:evenodd;fill:#231F20;}
	.st1{fill:#231F20;}
	.st2{fill-rule:evenodd;clip-rule:evenodd;}
	.st3{fill:#202020;}
</style>
<g>
	<path class="st1" d="M30.508,0l-0.531,0.005C13.166,0.298-0.278,13.986,0.009,30.522C0.296,47.05,13.246,60,29.492,60l0.531-0.005
		c16.811-0.293,30.255-13.981,29.968-30.517C59.702,12.95,46.752,0,30.508,0z M29.977,57.387l-0.485,0.005
		c-14.808,0-26.612-11.824-26.875-26.915C2.355,15.379,14.649,2.881,30.023,2.613l0.485-0.005c14.806,0,26.611,11.824,26.875,26.915
		C57.645,44.621,45.351,57.119,29.977,57.387z"/>
	<path class="st1" d="M30,35.211c0.721,0,1.304-0.583,1.304-1.304V15.649c0-0.721-0.583-1.304-1.304-1.304s-1.304,0.583-1.304,1.304
		v18.258C28.696,34.628,29.279,35.211,30,35.211z"/>
	<path class="st1" d="M30.003,40.43h-0.001c-0.016,0-0.032,0-0.047,0c-1.439,0.023-2.587,1.212-2.562,2.652
		c0.025,1.425,1.187,2.563,2.607,2.563c0.015,0,0.031,0,0.046-0.001c1.438-0.026,2.587-1.213,2.563-2.652
		C32.583,41.567,31.422,40.43,30.003,40.43z"/>
</g>
</svg>
