<svg xmlns="http://www.w3.org/2000/svg" width="60" height="60" viewBox="0 0 60 60"><path d="M60 38.75c0-3.02-2.15-5.54-5-6.12v-1.38C55 27.8 52.2 25 48.75 25h-.06C48.02 15.24 39.9 7.5 30 7.5S11.96 15.24 11.3 25h-.05C7.8 25 5 27.8 5 31.25v1.38c-2.85.58-5 3.1-5 6.12s2.15 5.54 5 6.12v1.38c0 3.45 2.8 6.25 6.25 6.25h5c.7 0 1.25-.56 1.25-1.25v-25c0-.7-.56-1.25-1.25-1.25H13.8c.65-8.38 7.66-15 16.2-15s15.54 6.62 16.2 15h-2.45c-.7 0-1.25.56-1.25 1.25v25c0 .7.56 1.25 1.25 1.25h5c3.45 0 6.25-2.8 6.25-6.25v-1.38c2.85-.58 5-3.1 5-6.12zm-57.5 0c0-1.63 1.05-3 2.5-3.52v7.04c-1.45-.52-2.5-1.9-2.5-3.52zM15 50h-3.75c-2.07 0-3.75-1.68-3.75-3.75v-15c0-2.07 1.68-3.75 3.75-3.75H15V50zm37.5-3.75c0 2.07-1.68 3.75-3.75 3.75H45V27.5h3.75c2.07 0 3.75 1.68 3.75 3.75v15zm2.5-3.98v-7.04c1.45.52 2.5 1.9 2.5 3.52s-1.05 3-2.5 3.52z"/></svg>
