<?xml version="1.0" encoding="utf-8"?>
<!-- Generator: Adobe Illustrator 19.2.0, SVG Export Plug-In . SVG Version: 6.00 Build 0)  -->
<!DOCTYPE svg PUBLIC "-//W3C//DTD SVG 1.1//EN" "http://www.w3.org/Graphics/SVG/1.1/DTD/svg11.dtd">
<svg version="1.1" id="layers" xmlns="http://www.w3.org/2000/svg" xmlns:xlink="http://www.w3.org/1999/xlink" x="0px" y="0px"
	 width="60px" height="60px" viewBox="0 0 60 60" style="enable-background:new 0 0 60 60;" xml:space="preserve">
<style type="text/css">
	.st0{fill-rule:evenodd;clip-rule:evenodd;fill:#231F20;}
	.st1{fill:#231F20;}
	.st2{fill-rule:evenodd;clip-rule:evenodd;}
	.st3{fill:#202020;}
</style>
<path d="M60,38.75c0-3.019-2.151-5.543-5-6.124V31.25c0-3.447-2.804-6.25-6.25-6.25h-0.063C48.039,15.244,39.917,7.5,30,7.5
	c-9.917,0-18.039,7.744-18.687,17.5H11.25C7.804,25,5,27.803,5,31.25v1.376c-2.849,0.581-5,3.105-5,6.124s2.151,5.543,5,6.124v1.376
	c0,3.447,2.804,6.25,6.25,6.25h5c0.691,0,1.25-0.559,1.25-1.25v-25c0-0.691-0.559-1.25-1.25-1.25h-2.436
	C14.455,16.624,21.462,10,30,10s15.544,6.624,16.187,15H43.75c-0.691,0-1.25,0.559-1.25,1.25v25c0,0.691,0.559,1.25,1.25,1.25h5
	c3.446,0,6.25-2.803,6.25-6.25v-1.376C57.849,44.293,60,41.769,60,38.75z M2.5,38.75c0-1.627,1.048-3.002,2.5-3.52v7.04
	C3.548,41.752,2.5,40.377,2.5,38.75z M15,50h-3.75c-2.068,0-3.75-1.682-3.75-3.75v-15c0-2.068,1.682-3.75,3.75-3.75H15V50z
	 M52.5,46.25c0,2.068-1.682,3.75-3.75,3.75H45V27.5h3.75c2.068,0,3.75,1.682,3.75,3.75V46.25z M55,42.27v-7.04
	c1.452,0.518,2.5,1.893,2.5,3.52S56.452,41.752,55,42.27z"/>
</svg>
