<svg xmlns="http://www.w3.org/2000/svg" viewBox="0 0 60 60"><path class="cls-1" d="M59 50.7H37.91c-.4 4.6-3.7 8-7.9 8s-7.5-3.4-7.9-8H1a1.06 1.06 0 0 1-1-.9 1 1 0 0 1 .7-1.1c4.9-1.2 7.2-3.1 7.2-6v-14c0-9.4 5.3-17.5 13.6-20.8A8.88 8.88 0 0 1 30 1.3 8.38 8.38 0 0 1 38.31 8 21.84 21.84 0 0 1 52 28.7v14c0 2.9 2.3 4.8 7.2 6a1.08 1.08 0 0 1 .8 1.1 1 1 0 0 1-1 .9zm-29 6c3.4 0 5.5-2.9 5.9-6H24.11c.4 3.1 2.5 6 5.89 6zm20-14v-14A20.05 20.05 0 0 0 37.11 9.6a.87.87 0 0 1-.6-.8A6.48 6.48 0 0 0 30 3.3a6.65 6.65 0 0 0-6.5 5.6 1 1 0 0 1-.6.8 19.83 19.83 0 0 0-12.9 19v14a7 7 0 0 1-3.6 6h47.3a6.74 6.74 0 0 1-3.7-6z"/></svg>
