<?xml version="1.0" encoding="UTF-8" standalone="no"?>
<svg width="60px" height="60px" viewBox="0 0 60 60" version="1.1" xmlns="http://www.w3.org/2000/svg" xmlns:xlink="http://www.w3.org/1999/xlink" xmlns:sketch="http://www.bohemiancoding.com/sketch/ns">
    <title>Slice 1</title>
    <description>Created with Sketch (http://www.bohemiancoding.com/sketch)</description>
    <defs></defs>
    <g id="Page-1" stroke="none" stroke-width="1" fill-rule="evenodd" sketch:type="MSPage">
        <g id="bookmark" sketch:type="MSLayerGroup" transform="translate(1.000000, 0.000000)">
            <path d="M43.648,59.88 C43.497,59.96 43.332,60 43.167,60 C42.976,60 42.786,59.946 42.619,59.841 L21.574,46.33 L1.398,59.829 C1.087,60.036 0.688,60.055 0.361,59.883 C0.032,59.708 -0.174,59.371 -0.174,59.001 L-0.174,0.999 C-0.174,0.448 0.277,0 0.834,0 L43.167,0 C43.724,0 44.175,0.448 44.175,0.999 L44.175,59.001 C44.174,59.367 43.972,59.703 43.648,59.88 L43.648,59.88 Z M42.158,2 L1.842,2 L1.842,57.12 L20.998,44.301 C21.168,44.188 21.365,44.13 21.562,44.13 C21.752,44.13 21.943,44.184 22.109,44.291 L42.158,57.16 L42.158,2 L42.158,2 Z M13.507,36.819 C13.168,37.055 12.722,37.064 12.377,36.838 C12.033,36.615 11.859,36.206 11.94,35.805 L13.849,26.33 L7.176,19.708 C6.887,19.421 6.801,18.992 6.957,18.618 C7.112,18.242 7.481,18.001 7.888,18.001 L17.316,18.001 L20.642,10.676 C20.807,10.314 21.155,10.12 21.568,10.087 C21.966,10.088 22.327,10.325 22.485,10.69 L25.684,18.001 L35.102,18.001 C35.509,18.001 35.878,18.243 36.033,18.618 C36.19,18.992 36.103,19.42 35.814,19.708 L29.141,26.33 L31.05,35.805 C31.131,36.208 30.956,36.618 30.61,36.84 C30.445,36.946 30.253,37 30.063,37 C29.858,37 29.654,36.939 29.479,36.815 L21.557,31.224 L13.507,36.819 L13.507,36.819 Z M22.147,29.186 L28.576,33.724 L27.059,26.196 C26.993,25.867 27.096,25.528 27.334,25.293 L32.669,20.001 L25.023,20.001 C24.622,20.001 24.258,19.763 24.098,19.398 L21.543,13.559 L18.886,19.411 C18.723,19.77 18.363,20.001 17.967,20.001 L10.321,20.001 L15.656,25.293 C15.894,25.529 15.997,25.868 15.931,26.196 L14.409,33.749 L20.982,29.18 C21.333,28.939 21.797,28.938 22.147,29.186 L22.147,29.186 Z" id="Shape" sketch:type="MSShapeGroup"></path>
        </g>
    </g>
</svg>
