<?xml version="1.0" encoding="utf-8"?>
<!-- Generator: Adobe Illustrator 19.2.0, SVG Export Plug-In . SVG Version: 6.00 Build 0)  -->
<!DOCTYPE svg PUBLIC "-//W3C//DTD SVG 1.1//EN" "http://www.w3.org/Graphics/SVG/1.1/DTD/svg11.dtd">
<svg version="1.1" id="layers" xmlns="http://www.w3.org/2000/svg" xmlns:xlink="http://www.w3.org/1999/xlink" x="0px" y="0px"
	 width="60px" height="60px" viewBox="0 0 60 60" style="enable-background:new 0 0 60 60;" xml:space="preserve">
<style type="text/css">
	.st0{fill-rule:evenodd;clip-rule:evenodd;fill:#231F20;}
	.st1{fill:#231F20;}
	.st2{fill-rule:evenodd;clip-rule:evenodd;}
	.st3{fill:#202020;}
</style>
<path class="st0" d="M51.648,59.879C51.497,59.961,51.331,60,51.166,60c-0.191,0-0.381-0.055-0.548-0.16L29.574,46.329l-20.176,13.5
	c-0.311,0.207-0.71,0.225-1.037,0.055C8.032,59.708,7.826,59.371,7.826,59V1c0-0.554,0.451-1,1.008-1h42.332
	c0.557,0,1.008,0.446,1.008,1V59C52.174,59.367,51.972,59.703,51.648,59.879z M21.508,36.819c-0.339,0.234-0.785,0.243-1.13,0.016
	c-0.344-0.221-0.518-0.631-0.437-1.032l1.909-9.475l-6.673-6.621c-0.289-0.287-0.375-0.716-0.219-1.09
	C15.114,18.242,15.482,18,15.89,18h9.428l3.326-7.324c0.165-0.362,0.513-0.557,0.926-0.589c0.399,0.001,0.759,0.238,0.917,0.603
	L33.685,18h9.417c0.407,0,0.776,0.242,0.931,0.618c0.157,0.374,0.07,0.802-0.219,1.09l-6.673,6.621l1.909,9.475
	c0.081,0.403-0.093,0.812-0.44,1.035C38.444,36.945,38.253,37,38.063,37c-0.205,0-0.409-0.062-0.584-0.184l-7.922-5.592
	L21.508,36.819z M30.147,29.186l6.43,4.537l-1.517-7.527c-0.066-0.329,0.037-0.669,0.275-0.904L40.67,20h-7.646
	c-0.402,0-0.765-0.238-0.925-0.603l-2.555-5.838l-2.656,5.852C26.724,19.77,26.365,20,25.968,20h-7.646l5.335,5.293
	c0.238,0.235,0.341,0.575,0.275,0.904l-1.522,7.553l6.573-4.568C29.332,28.938,29.797,28.937,30.147,29.186z"/>
</svg>
