<svg viewBox="0 0 50 60" xmlns="http://www.w3.org/2000/svg"><path d="M44.65 59.88c-.15.08-.32.12-.48.12-.2 0-.38-.05-.55-.16l-21.05-13.5L2.4 59.84c-.3.2-.7.2-1.04.03-.33-.17-.53-.5-.53-.88V1c0-.55.45-1 1-1h42.34c.55 0 1 .45 1 1v58c0 .37-.2.7-.52.88zM43.15 2H2.85v55.12L22 44.3c.17-.1.36-.17.56-.17.2 0 .38.05.55.16l20.1 12.8V2zM14.52 36.82c-.33.23-.78.24-1.12.02-.35-.23-.52-.63-.44-1.04l1.9-9.47L8.2 19.7c-.3-.28-.38-.7-.22-1.08.15-.38.52-.62.93-.62h9.5l3.3-7.32c.18-.37.5-.56.94-.6.4 0 .76.24.9.6L26.7 18h9.42c.4 0 .8.24.94.62.16.37.07.8-.22 1.1l-6.66 6.6 1.9 9.48c.1.4-.08.82-.43 1.04-.16.1-.35.16-.54.16-.2 0-.4-.06-.6-.2l-7.9-5.58-8 5.6zm8.65-7.63l6.43 4.5-1.52-7.5c-.07-.4.04-.7.27-.9L33.7 20h-7.66c-.4 0-.76-.25-.92-.6l-2.56-5.85-2.65 5.85c-.1.37-.5.6-.9.6h-7.6l5.35 5.3c.23.23.34.57.27.9l-1.52 7.55 6.5-4.57c.35-.24.82-.24 1.17 0z" fill-rule="evenodd"/></svg>
