<?xml version="1.0" encoding="UTF-8" standalone="no"?>
<svg width="60px" height="60px" viewBox="0 0 60 60" version="1.1" xmlns="http://www.w3.org/2000/svg" xmlns:xlink="http://www.w3.org/1999/xlink" xmlns:sketch="http://www.bohemiancoding.com/sketch/ns">
    <title>Untitled 6</title>
    <description>Created with Sketch (http://www.bohemiancoding.com/sketch)</description>
    <defs></defs>
    <g id="Page-1" stroke="none" stroke-width="1" fill-rule="evenodd" sketch:type="MSPage">
        <g id="bookmarked" sketch:type="MSLayerGroup" transform="translate(1.000000, 0.000000)">
            <path d="M43.648,59.879 C43.497,59.961 43.331,60 43.166,60 C42.975,60 42.785,59.945 42.618,59.84 L21.574,46.329 L1.398,59.829 C1.087,60.036 0.688,60.054 0.361,59.884 C0.032,59.708 -0.174,59.371 -0.174,59 L-0.174,1 C-0.174,0.446 0.277,0 0.834,0 L43.166,0 C43.723,0 44.174,0.446 44.174,1 L44.174,59 C44.174,59.367 43.972,59.703 43.648,59.879 Z M13.508,36.819 C13.169,37.053 12.723,37.062 12.378,36.835 C12.034,36.614 11.86,36.204 11.941,35.803 L13.85,26.328 L7.177,19.707 C6.888,19.42 6.802,18.991 6.958,18.617 C7.114,18.242 7.482,18 7.89,18 L17.318,18 L20.644,10.676 C20.809,10.314 21.157,10.119 21.57,10.087 C21.969,10.088 22.329,10.325 22.487,10.69 L25.685,18 L35.102,18 C35.509,18 35.878,18.242 36.033,18.618 C36.19,18.992 36.103,19.42 35.814,19.708 L29.141,26.329 L31.05,35.804 C31.131,36.207 30.957,36.616 30.61,36.839 C30.444,36.945 30.253,37 30.063,37 C29.858,37 29.654,36.938 29.479,36.816 L21.557,31.224 L13.508,36.819 Z M22.147,29.186 L28.577,33.723 L27.06,26.196 C26.994,25.867 27.097,25.527 27.335,25.292 L32.67,20 L25.024,20 C24.622,20 24.259,19.762 24.099,19.397 L21.544,13.559 L18.888,19.411 C18.724,19.77 18.365,20 17.968,20 L10.322,20 L15.657,25.293 C15.895,25.528 15.998,25.868 15.932,26.197 L14.41,33.75 L20.983,29.182 C21.332,28.938 21.797,28.937 22.147,29.186 L22.147,29.186 Z" id="Shape" sketch:type="MSShapeGroup"></path>
        </g>
    </g>
</svg>
