<?xml version="1.0" encoding="utf-8"?>
<!-- Generator: Adobe Illustrator 19.2.0, SVG Export Plug-In . SVG Version: 6.00 Build 0)  -->
<!DOCTYPE svg PUBLIC "-//W3C//DTD SVG 1.1//EN" "http://www.w3.org/Graphics/SVG/1.1/DTD/svg11.dtd">
<svg version="1.1" id="layers" xmlns="http://www.w3.org/2000/svg" xmlns:xlink="http://www.w3.org/1999/xlink" x="0px" y="0px"
	 width="60px" height="60px" viewBox="0 0 60 60" style="enable-background:new 0 0 60 60;" xml:space="preserve">
<style type="text/css">
	.st0{fill-rule:evenodd;clip-rule:evenodd;fill:#231F20;}
	.st1{fill:#231F20;}
	.st2{fill-rule:evenodd;clip-rule:evenodd;}
	.st3{fill:#202020;}
</style>
<path class="st2" d="M51.648,59.88C51.497,59.96,51.332,60,51.167,60c-0.191,0-0.381-0.054-0.548-0.159L29.574,46.33L9.398,59.829
	c-0.311,0.207-0.71,0.226-1.037,0.054c-0.329-0.175-0.535-0.512-0.535-0.882V0.999C7.826,0.448,8.277,0,8.834,0h42.333
	c0.557,0,1.008,0.448,1.008,0.999v58.002C52.174,59.367,51.972,59.703,51.648,59.88z M50.158,2H9.842v55.12l19.156-12.819
	c0.17-0.113,0.367-0.171,0.564-0.171c0.19,0,0.381,0.054,0.547,0.161l20.049,12.869V2z M21.507,36.819
	c-0.339,0.236-0.785,0.245-1.13,0.019c-0.344-0.223-0.518-0.632-0.437-1.033l1.909-9.475l-6.673-6.622
	c-0.289-0.287-0.375-0.716-0.219-1.09c0.155-0.376,0.524-0.617,0.931-0.617h9.428l3.326-7.325c0.165-0.362,0.513-0.556,0.926-0.589
	c0.398,0.001,0.759,0.238,0.917,0.603l3.199,7.311h9.418c0.407,0,0.776,0.242,0.931,0.617c0.157,0.374,0.07,0.802-0.219,1.09
	l-6.673,6.622l1.909,9.475c0.081,0.403-0.094,0.813-0.44,1.035C38.445,36.946,38.253,37,38.063,37c-0.205,0-0.409-0.061-0.584-0.185
	l-7.922-5.591L21.507,36.819z M30.147,29.186l6.429,4.538l-1.517-7.528c-0.066-0.329,0.037-0.668,0.275-0.903l5.335-5.292h-7.646
	c-0.401,0-0.765-0.238-0.925-0.603l-2.555-5.839l-2.657,5.852c-0.163,0.359-0.523,0.59-0.919,0.59h-7.646l5.335,5.292
	c0.238,0.236,0.341,0.575,0.275,0.903l-1.522,7.553l6.573-4.569C29.333,28.939,29.797,28.938,30.147,29.186z"/>
</svg>
