<?xml version="1.0" encoding="UTF-8" standalone="no"?>
<svg viewBox="0 0 50 60" xmlns="http://www.w3.org/2000/svg"><title>Untitled 6</title><path d="M44.65 59.88c-.15.08-.32.12-.48.12-.2 0-.4-.05-.55-.16l-21.05-13.5L2.4 59.83c-.3.2-.7.2-1.04.04-.33-.17-.53-.5-.53-.88V1c0-.55.45-1 1-1h42.34c.55 0 1 .45 1 1v58c0 .37-.2.7-.52.88zM14.5 36.82c-.33.23-.78.24-1.12.02-.35-.23-.52-.64-.44-1.04l1.9-9.47L8.2 19.7c-.3-.28-.38-.7-.22-1.08.15-.38.52-.62.93-.62h9.42l3.32-7.32c.17-.37.52-.56.93-.6.4 0 .76.24.92.6L26.67 18h9.42c.4 0 .78.24.93.62.16.37.07.8-.22 1.1l-6.66 6.6 1.9 9.48c.1.4-.08.82-.43 1.04-.16.1-.35.16-.54.16-.2 0-.4-.06-.58-.18l-7.92-5.6-8.05 5.6zm8.65-7.63l6.43 4.52-1.52-7.52c-.07-.33.04-.67.28-.9l5.33-5.3h-7.65c-.4 0-.76-.24-.92-.6l-2.56-5.84-2.65 5.85c-.18.37-.54.6-.93.6h-7.65l5.34 5.3c.23.23.34.57.27.9l-1.52 7.55L22 29.18c.35-.24.82-.24 1.17 0z" fill-rule="evenodd"/></svg>
