<svg xmlns="http://www.w3.org/2000/svg" width="60" height="60" viewBox="0 0 60 60"><path class="st2" d="M59 60H1c-.6 0-1-.4-1-1V5c0-.6.4-1 1-1h9V1c0-.6.4-1 1-1h8c.6 0 1 .4 1 1v3h20V1c0-.6.4-1 1-1h8c.6 0 1 .4 1 1v3h9c.6 0 1 .4 1 1v54c0 .6-.4 1-1 1zM18 2h-6v8h6V2zm30 0h-6v8h6V2zm10 4h-8v5c0 .6-.4 1-1 1h-8c-.6 0-1-.4-1-1V6H20v5c0 .6-.4 1-1 1h-8c-.6 0-1-.4-1-1V6H2v12h56V6zm0 14H2v38h56V20zM6 30c-.5 0-1-.4-1-1s.5-1 1-1h8v-4.3c0-.6.4-1 1-1s1 .4 1 1V28h12v-4.3c0-.6.4-1 1-1s1 .4 1 1V28h12v-4.3c0-.6.4-1 1-1s1 .4 1 1V28h10c.5 0 1 .4 1 1 0 .5-.5 1-1 1H44v8h10c.5 0 1 .4 1 1s-.5 1-1 1H44v8h10c.5 0 1 .4 1 1 0 .5-.5 1-1 1H44v4c0 .5-.4 1-1 1s-1-.5-1-1v-4H30v4c0 .5-.4 1-1 1s-1-.5-1-1v-4H16v4c0 .5-.4 1-1 1s-1-.5-1-1v-4H6c-.5 0-1-.5-1-1 0-.6.5-1 1-1h8v-8H6c-.5 0-1-.4-1-1s.5-1 1-1h8v-8H6zm22 0H16v8h12v-8zm14 0H30v8h12v-8zm0 18v-8H30v8h12zm-14 0v-8H16v8h12z"/></svg>
