<?xml version="1.0" encoding="utf-8"?>
<!-- Generator: Adobe Illustrator 19.2.0, SVG Export Plug-In . SVG Version: 6.00 Build 0)  -->
<!DOCTYPE svg PUBLIC "-//W3C//DTD SVG 1.1//EN" "http://www.w3.org/Graphics/SVG/1.1/DTD/svg11.dtd">
<svg version="1.1" id="layers" xmlns="http://www.w3.org/2000/svg" xmlns:xlink="http://www.w3.org/1999/xlink" x="0px" y="0px"
	 width="60px" height="60px" viewBox="0 0 60 60" style="enable-background:new 0 0 60 60;" xml:space="preserve">
<style type="text/css">
	.st0{fill-rule:evenodd;clip-rule:evenodd;fill:#231F20;}
	.st1{fill:#231F20;}
	.st2{fill-rule:evenodd;clip-rule:evenodd;}
	.st3{fill:#202020;}
</style>
<path class="st2" d="M59,60H1c-0.553,0-1-0.448-1-1V5c0-0.554,0.447-1.001,1-1.001h9v-3C10,0.446,10.447,0,11,0h8
	c0.553,0,1,0.446,1,0.999v3h20v-3C40,0.446,40.447,0,41,0h8c0.553,0,1,0.446,1,0.999v3h9c0.553,0,1,0.447,1,1.001v54
	C60,59.552,59.553,60,59,60z M18,1.999h-6v8h6V1.999z M48,1.999h-6v8h6V1.999z M58,6h-8v5c0,0.551-0.447,1-1,1h-8
	c-0.553,0-1-0.448-1-1V6H20v5c0,0.551-0.447,1-1,1h-8c-0.553,0-1-0.448-1-1V6H2v11.999h56V6z M58,19.999H2v37.999h56V19.999z
	 M6.043,29.999c-0.553,0-1-0.448-1-1c0-0.553,0.447-1.001,1-1.001H14v-4.303c0-0.553,0.448-1.002,1-1.002c0.553,0,1,0.449,1,1.002
	v4.303h12v-4.303c0-0.553,0.447-1.002,1-1.002c0.553,0,1,0.449,1,1.002v4.303h12v-4.303c0-0.553,0.447-1.002,1-1.002
	c0.553,0,1,0.449,1,1.002v4.303h9.957c0.553,0,1,0.448,1,1.001c0,0.551-0.447,1-1,1H44v8h9.957c0.553,0,1,0.448,1,1
	c0,0.553-0.447,0.999-1,0.999H44v8.001h9.957c0.553,0,1,0.447,1,1c0,0.551-0.447,0.999-1,0.999H44v3.955c0,0.554-0.447,1-1,1
	c-0.553,0-1-0.446-1-1v-3.955H30v3.955c0,0.554-0.447,1-1,1c-0.553,0-1-0.446-1-1v-3.955H16v3.955c0,0.554-0.447,1-1,1
	c-0.553,0-1-0.446-1-1v-3.955H6.043c-0.553,0-1-0.448-1-0.999c0-0.554,0.447-1,1-1H14v-8.001H6.043c-0.553,0-1-0.446-1-0.999
	c0-0.552,0.447-1,1-1H14v-8H6.043z M28,29.999H16v8h12V29.999z M42,29.999H30v8h12V29.999z M42,47.999v-8.001H30v8.001H42z
	 M28,47.999v-8.001H16v8.001H28z"/>
</svg>
