<svg xmlns="http://www.w3.org/2000/svg" width="60" height="60" viewBox="0 0 60 60"><path d="M58.7 47.5h-1.2V11.2c0-.7-.6-1.2-1.3-1.2h-7.5c-.6 0-1.2.5-1.2 1.2v36.3h-5V28.7c0-.6-.6-1.2-1.3-1.2h-7.5c-.6 0-1.2.6-1.2 1.2v18.8h-5V23.7c0-.6-.6-1.2-1.2-1.2h-7.5c-.7 0-1.3.6-1.3 1.2v23.8h-5V36.3c0-.7-.6-1.3-1.2-1.3H3.8c-.7 0-1.3.6-1.3 1.3v11.2H1.2c-.6 0-1.2.6-1.2 1.3 0 .7.6 1.2 1.3 1.2h57.4c.7 0 1.3-.5 1.3-1.2s-.6-1.3-1.3-1.3zM5 47.5v-10h5v10H5zm15 0V25h5v22.5h-5zm15 0V30h5v17.5h-5zm15 0v-35h5v35h-5z"/></svg>
