<?xml version="1.0" encoding="utf-8"?>
<!-- Generator: Adobe Illustrator 19.2.0, SVG Export Plug-In . SVG Version: 6.00 Build 0)  -->
<!DOCTYPE svg PUBLIC "-//W3C//DTD SVG 1.1//EN" "http://www.w3.org/Graphics/SVG/1.1/DTD/svg11.dtd">
<svg version="1.1" id="layers" xmlns="http://www.w3.org/2000/svg" xmlns:xlink="http://www.w3.org/1999/xlink" x="0px" y="0px"
	 width="60px" height="60px" viewBox="0 0 60 60" style="enable-background:new 0 0 60 60;" xml:space="preserve">
<style type="text/css">
	.st0{fill-rule:evenodd;clip-rule:evenodd;fill:#231F20;}
	.st1{fill:#231F20;}
	.st2{fill-rule:evenodd;clip-rule:evenodd;}
	.st3{fill:#202020;}
</style>
<g>
	<g>
		<path d="M58.749,47.517h-1.249V11.234c0-0.692-0.56-1.252-1.251-1.252h-7.5c-0.69,0-1.25,0.56-1.25,1.252v36.283h-4.999V28.749
			c0-0.692-0.56-1.252-1.25-1.252h-7.5c-0.69,0-1.25,0.56-1.25,1.252v18.768h-4.998V23.745c0-0.692-0.561-1.252-1.251-1.252h-7.5
			c-0.691,0-1.251,0.56-1.251,1.252v23.772h-4.999V36.256c0-0.692-0.56-1.252-1.25-1.252h-7.5c-0.69,0-1.25,0.56-1.25,1.252v11.261
			H1.25c-0.69,0-1.25,0.558-1.25,1.25c0,0.691,0.561,1.251,1.25,1.251h57.499c0.69,0,1.251-0.56,1.251-1.251
			C60,48.075,59.44,47.517,58.749,47.517z M5.002,47.517V37.506h4.999v10.011H5.002z M20.002,47.517V24.995h4.999v22.522H20.002z
			 M35.001,47.517V29.999H40v17.517H35.001z M50.001,47.517V12.483H55v35.033H50.001z"/>
	</g>
</g>
</svg>
