<?xml version="1.0" encoding="utf-8"?>
<!-- Generator: Adobe Illustrator 19.2.0, SVG Export Plug-In . SVG Version: 6.00 Build 0)  -->
<!DOCTYPE svg PUBLIC "-//W3C//DTD SVG 1.1//EN" "http://www.w3.org/Graphics/SVG/1.1/DTD/svg11.dtd">
<svg version="1.1" id="layers" xmlns="http://www.w3.org/2000/svg" xmlns:xlink="http://www.w3.org/1999/xlink" x="0px" y="0px"
	 width="60px" height="60px" viewBox="0 0 60 60" style="enable-background:new 0 0 60 60;" xml:space="preserve">
<style type="text/css">
	.st0{fill-rule:evenodd;clip-rule:evenodd;fill:#231F20;}
	.st1{fill:#231F20;}
	.st2{fill-rule:evenodd;clip-rule:evenodd;}
	.st3{fill:#202020;}
</style>
<g>
	<g>
		<path d="M41.646,20.337L23.781,37.011l-5.397-5.394c-0.488-0.49-1.279-0.49-1.767,0c-0.488,0.488-0.488,1.279,0,1.767l6.25,6.25
			C23.11,39.878,23.431,40,23.75,40c0.306,0,0.613-0.112,0.853-0.337l18.75-17.499c0.504-0.472,0.531-1.261,0.061-1.764
			C42.943,19.896,42.152,19.867,41.646,20.337z M30,0C13.459,0,0.001,13.457,0.001,30.001C0.001,46.543,13.459,60,30,60
			s29.999-13.457,29.999-29.999C59.999,13.457,46.541,0,30,0z M30,57.499c-15.163,0-27.499-12.336-27.499-27.498
			c0-15.164,12.336-27.5,27.499-27.5s27.499,12.336,27.499,27.5C57.499,45.163,45.163,57.499,30,57.499z"/>
	</g>
</g>
</svg>
