<svg xmlns="http://www.w3.org/2000/svg" width="60" height="60" viewBox="0 0 60 60"><path d="M47.5 10.8l-7.3-7.3C38.3 1.6 34.4 0 31.7 0H14c-2.8 0-5 2.2-5 5v50c0 2.8 2.2 5 5 5h32c2.8 0 5-2.2 5-5V19.3c0-2.7-1.6-6.6-3.5-8.5zm-11-6.9c.8.4 1.5.9 2 1.4l7.3 7.3c.4.4.8 1 1.2 1.6h-6.6c-2.1 0-3.8-1.7-3.8-3.7V3.9h-.1zm12 51.1c0 1.4-1.1 2.5-2.5 2.5H14c-1.4 0-2.5-1.1-2.5-2.5V5c0-1.4 1.1-2.5 2.5-2.5h17.7c.7 0 1.5.2 2.3.4v7.5c0 3.4 2.8 6.3 6.2 6.3H48c.3.9.5 1.9.5 2.7V55z"/><path d="M18.3 29.6c.2.4.4 1.2.6 1.9l3.9 14.9H26l3.5-12.6 3.1 12.6h3.3l4.5-13.5c.4-1.2.6-1.9.8-2.5.2-.6.4-1 .6-1.2.2-.2.4-.6.6-.6.2-.2.4-.4.8-.4v-1.4H37v1.4c.4 0 .8.4 1.2.6.2.4.4.8.4 1.4 0 .4 0 .8-.2 1.4 0 .6-.2 1.2-.4 1.7l-2.1 7-3.1-13.4h-3.1L26 40.3l-1.9-8.1c-.2-.4-.2-.8-.4-1.2 0-.4-.2-.8-.2-1.2 0-.6.2-.8.4-1.2.2-.2.6-.4 1.2-.6v-1.4h-7.9V28c.4 0 .6.2.8.4-.1.4.1.6.3 1.2z"/></svg>
