<?xml version="1.0" encoding="utf-8"?>
<!-- Generator: Adobe Illustrator 19.2.1, SVG Export Plug-In . SVG Version: 6.00 Build 0)  -->
<!DOCTYPE svg PUBLIC "-//W3C//DTD SVG 1.1//EN" "http://www.w3.org/Graphics/SVG/1.1/DTD/svg11.dtd">
<svg version="1.1" id="layers" xmlns="http://www.w3.org/2000/svg" xmlns:xlink="http://www.w3.org/1999/xlink" x="0px" y="0px"
	 width="60px" height="60px" viewBox="0 0 60 60" style="enable-background:new 0 0 60 60;" xml:space="preserve">
<style type="text/css">
	.st0{fill-rule:evenodd;clip-rule:evenodd;fill:#231F20;}
	.st1{fill:#231F20;}
	.st2{fill-rule:evenodd;clip-rule:evenodd;}
	.st3{fill:#202020;}
</style>
<g>
	<g>
		<g>
			<path d="M47.5,10.8l-7.3-7.3C38.3,1.6,34.4,0,31.7,0H14c-2.8,0-5,2.2-5,5v50c0,2.8,2.2,5,5,5h32c2.8,0,5-2.2,5-5V19.3
				C51,16.6,49.4,12.7,47.5,10.8z M36.5,3.9c0.8,0.4,1.5,0.9,2,1.4l7.3,7.3c0.4,0.4,0.8,1,1.2,1.6h-6.6c-2.1,0-3.8-1.7-3.8-3.7V3.9
				H36.5z M48.5,55c0,1.4-1.1,2.5-2.5,2.5H14c-1.4,0-2.5-1.1-2.5-2.5V5c0-1.4,1.1-2.5,2.5-2.5h17.7c0.7,0,1.5,0.2,2.3,0.4v7.5
				c0,3.4,2.8,6.3,6.2,6.3H48c0.3,0.9,0.5,1.9,0.5,2.7V55z"/>
		</g>
	</g>
	<g>
		<path d="M18.3,29.6c0.2,0.4,0.4,1.2,0.6,1.9l3.9,14.9H26l3.5-12.6l3.1,12.6h3.3l4.5-13.5c0.4-1.2,0.6-1.9,0.8-2.5
			c0.2-0.6,0.4-1,0.6-1.2c0.2-0.2,0.4-0.6,0.6-0.6c0.2-0.2,0.4-0.4,0.8-0.4v-1.4h-6.2v1.4c0.4,0,0.8,0.4,1.2,0.6
			c0.2,0.4,0.4,0.8,0.4,1.4c0,0.4,0,0.8-0.2,1.4c0,0.6-0.2,1.2-0.4,1.7l-2.1,7l-3.1-13.4h-3.1l-3.7,13.4l-1.9-8.1
			c-0.2-0.4-0.2-0.8-0.4-1.2c0-0.4-0.2-0.8-0.2-1.2c0-0.6,0.2-0.8,0.4-1.2c0.2-0.2,0.6-0.4,1.2-0.6v-1.4h-7.9v1.4
			c0.4,0,0.6,0.2,0.8,0.4C17.9,28.8,18.1,29,18.3,29.6z"/>
	</g>
</g>
</svg>
