<svg xmlns="http://www.w3.org/2000/svg" width="60" height="60" viewBox="0 0 60 60"><path class="st3" d="M58.75 0h-50C8.05 0 7.5.56 7.5 1.25v50c0 .7.56 1.25 1.25 1.25h50c.7 0 1.25-.56 1.25-1.25v-50C60 .55 59.44 0 58.75 0zM57.5 50h-30v-1.25c0-.7-.56-1.25-1.25-1.25S25 48.06 25 48.75V50H10V35h1.25c.7 0 1.25-.56 1.25-1.25s-.56-1.25-1.25-1.25H10v-30h47.5V50z"/><path class="st3" d="M31.25 30c.32 0 .64-.12.88-.37L50 11.77v9.48c0 .7.56 1.25 1.25 1.25s1.25-.56 1.25-1.25V8.75c0-.16-.03-.33-.1-.48-.12-.3-.37-.55-.67-.67-.15-.07-.32-.1-.48-.1h-12.5c-.7 0-1.25.56-1.25 1.25S38.06 10 38.75 10h9.48L30.37 27.87c-.5.48-.5 1.27 0 1.76.24.25.56.37.88.37zm-27.5 2.5h-2.5c-.7 0-1.25.56-1.25 1.25v2.5c0 .7.56 1.25 1.25 1.25s1.25-.56 1.25-1.25V35h1.25c.7 0 1.25-.56 1.25-1.25s-.56-1.25-1.25-1.25zM1.25 45c.7 0 1.25-.56 1.25-1.25v-2.5c0-.7-.56-1.25-1.25-1.25S0 40.56 0 41.25v2.5C0 44.45.56 45 1.25 45zm15-10h2.5c.7 0 1.25-.56 1.25-1.25s-.56-1.25-1.25-1.25h-2.5c-.7 0-1.25.56-1.25 1.25S15.56 35 16.25 35zm-5 22.5h-2.5c-.7 0-1.25.56-1.25 1.25S8.06 60 8.75 60h2.5c.7 0 1.25-.56 1.25-1.25s-.56-1.25-1.25-1.25zm7.5 0h-2.5c-.7 0-1.25.56-1.25 1.25S15.56 60 16.25 60h2.5c.7 0 1.25-.56 1.25-1.25s-.56-1.25-1.25-1.25zm-15 0H2.5v-1.25c0-.7-.56-1.25-1.25-1.25S0 55.56 0 56.25v2.5C0 59.45.56 60 1.25 60h2.5c.7 0 1.25-.56 1.25-1.25s-.56-1.25-1.25-1.25zm-2.5-5c.7 0 1.25-.56 1.25-1.25v-2.5c0-.7-.56-1.25-1.25-1.25S0 48.06 0 48.75v2.5c0 .7.56 1.25 1.25 1.25zM23.75 35H25v1.25c0 .7.56 1.25 1.25 1.25s1.25-.56 1.25-1.25v-2.5c0-.7-.56-1.25-1.25-1.25h-2.5c-.7 0-1.25.56-1.25 1.25S23.06 35 23.75 35zm2.5 5c-.7 0-1.25.56-1.25 1.25v2.5c0 .7.56 1.25 1.25 1.25s1.25-.56 1.25-1.25v-2.5c0-.7-.56-1.25-1.25-1.25zm0 15c-.7 0-1.25.56-1.25 1.25v1.25h-1.25c-.7 0-1.25.56-1.25 1.25S23.06 60 23.75 60h2.5c.7 0 1.25-.56 1.25-1.25v-2.5c0-.7-.56-1.25-1.25-1.25z"/></svg>
