<?xml version="1.0" encoding="utf-8"?>
<!-- Generator: Adobe Illustrator 19.2.0, SVG Export Plug-In . SVG Version: 6.00 Build 0)  -->
<!DOCTYPE svg PUBLIC "-//W3C//DTD SVG 1.1//EN" "http://www.w3.org/Graphics/SVG/1.1/DTD/svg11.dtd">
<svg version="1.1" id="layers" xmlns="http://www.w3.org/2000/svg" xmlns:xlink="http://www.w3.org/1999/xlink" x="0px" y="0px"
	 width="60px" height="60px" viewBox="0 0 60 60" style="enable-background:new 0 0 60 60;" xml:space="preserve">
<style type="text/css">
	.st0{fill-rule:evenodd;clip-rule:evenodd;fill:#231F20;}
	.st1{fill:#231F20;}
	.st2{fill-rule:evenodd;clip-rule:evenodd;}
	.st3{fill:#202020;}
</style>
<g>
	<path class="st3" d="M58.75,0h-50C8.059,0,7.5,0.559,7.5,1.25v50c0,0.691,0.559,1.25,1.25,1.25h50c0.691,0,1.25-0.559,1.25-1.25
		v-50C60,0.559,59.441,0,58.75,0z M57.5,50h-30v-1.25c0-0.691-0.559-1.25-1.25-1.25S25,48.059,25,48.75V50H10V35h1.25
		c0.691,0,1.25-0.559,1.25-1.25s-0.559-1.25-1.25-1.25H10v-30h47.5V50z"/>
	<path class="st3" d="M31.25,30c0.32,0,0.64-0.122,0.884-0.366L50,11.767v9.483c0,0.691,0.559,1.25,1.25,1.25s1.25-0.559,1.25-1.25
		V8.75c0-0.162-0.033-0.325-0.096-0.477c-0.127-0.306-0.37-0.55-0.677-0.676C51.575,7.533,51.412,7.5,51.25,7.5h-12.5
		c-0.691,0-1.25,0.559-1.25,1.25S38.059,10,38.75,10h9.482L30.366,27.866c-0.488,0.488-0.488,1.279,0,1.768
		C30.61,29.878,30.93,30,31.25,30z"/>
	<path class="st3" d="M3.75,32.5h-2.5C0.559,32.5,0,33.059,0,33.75v2.5c0,0.691,0.559,1.25,1.25,1.25s1.25-0.559,1.25-1.25V35h1.25
		C4.441,35,5,34.441,5,33.75S4.441,32.5,3.75,32.5z"/>
	<path class="st3" d="M1.25,45c0.691,0,1.25-0.559,1.25-1.25v-2.5C2.5,40.559,1.941,40,1.25,40S0,40.559,0,41.25v2.5
		C0,44.441,0.559,45,1.25,45z"/>
	<path class="st3" d="M16.25,35h2.5c0.691,0,1.25-0.559,1.25-1.25s-0.559-1.25-1.25-1.25h-2.5c-0.691,0-1.25,0.559-1.25,1.25
		S15.559,35,16.25,35z"/>
	<path class="st3" d="M11.25,57.5h-2.5c-0.691,0-1.25,0.559-1.25,1.25S8.059,60,8.75,60h2.5c0.691,0,1.25-0.559,1.25-1.25
		S11.941,57.5,11.25,57.5z"/>
	<path class="st3" d="M18.75,57.5h-2.5c-0.691,0-1.25,0.559-1.25,1.25S15.559,60,16.25,60h2.5c0.691,0,1.25-0.559,1.25-1.25
		S19.441,57.5,18.75,57.5z"/>
	<path class="st3" d="M3.75,57.5H2.5v-1.25C2.5,55.559,1.941,55,1.25,55S0,55.559,0,56.25v2.5C0,59.441,0.559,60,1.25,60h2.5
		C4.441,60,5,59.441,5,58.75S4.441,57.5,3.75,57.5z"/>
	<path class="st3" d="M1.25,52.5c0.691,0,1.25-0.559,1.25-1.25v-2.5c0-0.691-0.559-1.25-1.25-1.25S0,48.059,0,48.75v2.5
		C0,51.941,0.559,52.5,1.25,52.5z"/>
	<path class="st3" d="M23.75,35H25v1.25c0,0.691,0.559,1.25,1.25,1.25s1.25-0.559,1.25-1.25v-2.5c0-0.691-0.559-1.25-1.25-1.25h-2.5
		c-0.691,0-1.25,0.559-1.25,1.25S23.059,35,23.75,35z"/>
	<path class="st3" d="M26.25,40C25.559,40,25,40.559,25,41.25v2.5c0,0.691,0.559,1.25,1.25,1.25s1.25-0.559,1.25-1.25v-2.5
		C27.5,40.559,26.941,40,26.25,40z"/>
	<path class="st3" d="M26.25,55C25.559,55,25,55.559,25,56.25v1.25h-1.25c-0.691,0-1.25,0.559-1.25,1.25S23.059,60,23.75,60h2.5
		c0.691,0,1.25-0.559,1.25-1.25v-2.5C27.5,55.559,26.941,55,26.25,55z"/>
</g>
</svg>
