<svg xmlns="http://www.w3.org/2000/svg" width="60" height="60" viewBox="0 0 60 60"><path d="M58.6 58.7H47.4c-.77 0-1.4-.6-1.4-1.35V35.97c0-4.3-2.08-6.85-5.56-6.85-2.68 0-5.02 1.8-5.73 3.55-.2.5-.3 1.3-.3 2.44v22.3c0 .8-.6 1.4-1.4 1.4H21.7c-.78 0-1.4-.6-1.4-1.3V28.9c0-3.83 0-7.1-.13-9.9-.02-.38.12-.74.38-1 .28-.28.64-.43 1-.44l10.38-.2h.04c.73 0 1.34.54 1.4 1.24l.27 2.6c2.1-2 5.7-4.3 11.24-4.3 9.5 0 15.2 6.6 15.2 17.7v22.8c0 .73-.63 1.34-1.4 1.34zM48.82 56h8.35V34.6c0-9.53-4.5-15-12.4-15-6.8 0-10.05 4.2-10.9 5.5-.24.38-.7.63-1.18.63h-.3c-.7 0-1.4-.53-1.4-1.23l-.5-4.4-7.6.15c.05 2.53.04 5.4.04 8.62V56h8.55V35.1c0-1.5.17-2.6.5-3.44 1.05-2.55 4.3-5.27 8.36-5.27 5.1 0 8.37 3.7 8.37 9.5v20zM13.1 58.52H1.73c-.78 0-1.4-.6-1.4-1.37V18.7c0-.76.62-1.37 1.4-1.37H13.1c.77 0 1.4.6 1.4 1.36v38.4c0 .7-.63 1.3-1.4 1.3zM3.14 55.8h8.55V20.04H3.1V55.8zm4.6-40C3.24 15.8 0 12.73 0 8.53 0 4.33 3.32 1.3 7.9 1.3c4.5 0 7.7 2.96 7.8 7.2 0 4.24-3.35 7.3-7.97 7.3zM7.88 4C4.84 4 2.8 5.8 2.8 8.52c0 2.66 2.02 4.52 4.9 4.52 3.1 0 5.16-1.8 5.16-4.52C12.8 5.78 10.84 4 7.86 4z"/></svg>
