<?xml version="1.0" encoding="utf-8"?>
<!-- Generator: Adobe Illustrator 19.2.0, SVG Export Plug-In . SVG Version: 6.00 Build 0)  -->
<!DOCTYPE svg PUBLIC "-//W3C//DTD SVG 1.1//EN" "http://www.w3.org/Graphics/SVG/1.1/DTD/svg11.dtd">
<svg version="1.1" id="layers" xmlns="http://www.w3.org/2000/svg" xmlns:xlink="http://www.w3.org/1999/xlink" x="0px" y="0px"
	 width="60px" height="60px" viewBox="0 0 60 60" style="enable-background:new 0 0 60 60;" xml:space="preserve">
<style type="text/css">
	.st0{fill-rule:evenodd;clip-rule:evenodd;fill:#231F20;}
	.st1{fill:#231F20;}
	.st2{fill-rule:evenodd;clip-rule:evenodd;}
	.st3{fill:#202020;}
</style>
<path d="M58.592,58.711H47.425c-0.778,0-1.408-0.61-1.408-1.363V35.967c0-4.289-2.075-6.851-5.552-6.851
	c-2.685,0-5.022,1.806-5.73,3.552c-0.201,0.489-0.302,1.309-0.302,2.445v22.234c0,0.753-0.631,1.363-1.408,1.363H21.656
	c-0.778,0-1.408-0.61-1.408-1.363l0.002-28.511c0.005-3.803,0.01-7.085-0.12-9.893c-0.017-0.366,0.12-0.723,0.38-0.992
	c0.26-0.269,0.621-0.424,1-0.431l10.362-0.192c0.009,0,0.018,0,0.028,0c0.723,0,1.331,0.531,1.401,1.233l0.259,2.61
	c2.097-2.004,5.707-4.31,11.226-4.31C54.313,16.861,60,23.482,60,34.569v22.778C60,58.101,59.369,58.711,58.592,58.711z
	 M48.833,55.984h8.351V34.569c0-9.522-4.518-14.982-12.397-14.982c-6.82,0-10.061,4.194-10.892,5.479
	c-0.257,0.398-0.709,0.641-1.194,0.641h-0.239c-0.726,0-1.332-0.534-1.402-1.234l-0.437-4.396l-7.625,0.142
	c0.078,2.535,0.074,5.393,0.069,8.621l-0.002,27.144h8.551V35.114c0-1.526,0.159-2.622,0.501-3.449
	c1.035-2.553,4.315-5.275,8.348-5.275c5.084,0,8.368,3.759,8.368,9.577V55.984z M13.096,58.518H1.729
	c-0.777,0-1.408-0.611-1.408-1.363V18.69c0-0.753,0.631-1.362,1.408-1.362h11.367c0.778,0,1.408,0.609,1.408,1.362v38.464
	C14.504,57.906,13.873,58.518,13.096,58.518z M3.137,55.79h8.55V20.054h-8.55V55.79z M7.731,15.791C3.251,15.791,0,12.742,0,8.54
	c0-4.202,3.318-7.251,7.889-7.251c4.496,0,7.708,2.969,7.81,7.221C15.701,12.742,12.349,15.791,7.731,15.791z M7.889,4.016
	c-3.034,0-5.073,1.818-5.073,4.525c0,2.663,2.021,4.522,4.914,4.522c3.082,0,5.153-1.817,5.153-4.522
	C12.817,5.804,10.857,4.016,7.889,4.016z"/>
</svg>
