<?xml version="1.0" encoding="utf-8"?>
<!-- Generator: Adobe Illustrator 19.2.0, SVG Export Plug-In . SVG Version: 6.00 Build 0)  -->
<!DOCTYPE svg PUBLIC "-//W3C//DTD SVG 1.1//EN" "http://www.w3.org/Graphics/SVG/1.1/DTD/svg11.dtd">
<svg version="1.1" id="layers" xmlns="http://www.w3.org/2000/svg" xmlns:xlink="http://www.w3.org/1999/xlink" x="0px" y="0px"
	 width="60px" height="60px" viewBox="0 0 60 60" style="enable-background:new 0 0 60 60;" xml:space="preserve">
<style type="text/css">
	.st0{fill-rule:evenodd;clip-rule:evenodd;fill:#231F20;}
	.st1{fill:#231F20;}
	.st2{fill-rule:evenodd;clip-rule:evenodd;}
	.st3{fill:#202020;}
</style>
<g>
	<g>
		<path class="st2" d="M0.802,59.949h10.957V14.987H0.802V59.949z M44.632,14.987c-9.381,0.161-13.997,7.176-14.61,7.494v-7.494
			H19.064v44.962h10.957V33.721c0-0.961,2.312-8.664,10.958-7.494c4.644,0.312,7.148,6.612,7.305,7.494v26.228L59.198,60V28.872
			C58.813,24.378,56.623,15.148,44.632,14.987z M6.281,0C3.256,0,0.803,2.514,0.803,5.62c0,3.107,2.452,5.621,5.478,5.621
			c3.024,0,5.478-2.514,5.478-5.621C11.76,2.514,9.306,0,6.281,0z"/>
	</g>
</g>
</svg>
