<svg xmlns="http://www.w3.org/2000/svg" width="60" height="60" viewBox="0 0 60 60"><path d="M50.92 44.14l-12.75-4.66v-6.43c3.9-3.28 6.48-8.73 6.48-14.9 0-10-6.73-18.15-15-18.15-8.25 0-14.98 8.14-14.98 18.14 0 6.52 2.87 12.24 7.15 15.43v5.9L9.08 44.15c-3.78 1.4-6.33 5.1-6.33 9.2V60h54.5v-6.66c0-4.12-2.55-7.8-6.33-9.2zM29.66 2.8c6 0 11 5.42 12.05 12.56-3.9.8-6.4-.53-8.7-4.7l-1.2-2.2-1.13 2.25c-1.26 2.5-5.5 4.7-9.05 4.7-1.4 0-2.6-.2-3.77-.7C19 7.9 23.9 2.8 29.7 2.8zM17.4 18.13c0-.23.02-.45.03-.67 1.27.44 2.6.67 4.06.67 3.7 0 7.8-1.82 10.1-4.33 2.1 3.1 4.7 4.58 8 4.58.7 0 1.4-.1 2.2-.23 0 8.46-5.5 15.34-12.27 15.34s-12.2-6.9-12.2-15.4zM54.52 57.2H5.48v-3.86c0-2.94 1.8-5.58 4.52-6.57l14.55-5.32v-6.28c1.6.7 3.3 1.1 5.1 1.1 2.06 0 4.02-.5 5.8-1.4v6.58L50 46.77c2.7 1 4.52 3.63 4.52 6.57v3.87z"/></svg>
