<?xml version="1.0" encoding="utf-8"?>
<!-- Generator: Adobe Illustrator 19.2.0, SVG Export Plug-In . SVG Version: 6.00 Build 0)  -->
<!DOCTYPE svg PUBLIC "-//W3C//DTD SVG 1.1//EN" "http://www.w3.org/Graphics/SVG/1.1/DTD/svg11.dtd">
<svg version="1.1" id="layers" xmlns="http://www.w3.org/2000/svg" xmlns:xlink="http://www.w3.org/1999/xlink" x="0px" y="0px"
	 width="60px" height="60px" viewBox="0 0 60 60" style="enable-background:new 0 0 60 60;" xml:space="preserve">
<style type="text/css">
	.st0{fill-rule:evenodd;clip-rule:evenodd;fill:#231F20;}
	.st1{fill:#231F20;}
	.st2{fill-rule:evenodd;clip-rule:evenodd;}
	.st3{fill:#202020;}
</style>
<g>
	<g>
		<path d="M41.146,37.756c-1.201,0-2.68,0.158-4.394,0.469c-2.398-2.542-4.896-6.258-6.659-9.903c1.749-7.367,0.586-8.849,0.2-9.344
			c-0.412-0.524-1.003-0.813-1.663-0.813c-0.275,0-0.568,0.051-0.866,0.152c-0.757,0.252-1.328,0.784-1.65,1.544
			c-0.925,2.162,0.344,5.854,1.65,8.696c-1.118,4.443-2.988,9.764-4.958,14.078c-4.963,2.272-7.599,4.504-7.836,6.636
			c-0.085,0.776,0.095,1.914,1.459,2.937c0.374,0.278,0.811,0.427,1.267,0.427c1.143,0,2.3-0.879,3.643-2.758
			c0.976-1.374,2.025-3.245,3.12-5.567c3.505-1.533,7.841-2.921,11.557-3.694c2.07,1.984,3.92,2.991,5.516,2.991
			c1.171,0,2.178-0.538,2.906-1.561c0.756-1.062,0.927-2.014,0.513-2.827C44.442,38.234,43.198,37.756,41.146,37.756z
			 M17.722,50.421c-0.613-0.471-0.578-0.786-0.564-0.908c0.083-0.727,1.221-2.018,4.019-3.592
			C19.058,49.841,17.918,50.36,17.722,50.421z M28.139,20.727c0.088-0.205,0.19-0.276,0.318-0.317
			c0.058-0.019,0.097-0.03,0.126-0.035c0.2,0.297,0.427,1.472,0,4.244C28.069,23.011,27.802,21.516,28.139,20.727z M25.752,41.39
			c1.328-3.167,2.563-6.666,3.501-9.904c1.469,2.641,3.238,5.207,5.005,7.26C31.465,39.403,28.487,40.328,25.752,41.39z
			 M42.64,40.764c-0.399,0.566-0.805,0.637-1.109,0.637c-0.703,0-1.645-0.45-2.709-1.267c0.879-0.115,1.666-0.173,2.325-0.175
			c1.168,0,1.636,0.177,1.797,0.264C42.915,40.313,42.842,40.489,42.64,40.764z M47.465,10.796l-7.261-7.26
			C38.26,1.59,34.42,0,31.669,0H14c-2.75,0-5,2.25-5,5v49.999C9,57.75,11.25,60,14,60h32c2.75,0,5-2.25,5-5.001V19.331
			C51,16.581,49.409,12.74,47.465,10.796z M36.477,3.925c0.775,0.417,1.47,0.887,1.96,1.378l7.26,7.26
			c0.413,0.413,0.812,0.974,1.178,1.601h-6.648c-2.068,0-3.75-1.682-3.75-3.749V3.925z M48.5,54.999c0,1.379-1.122,2.5-2.5,2.5H14
			c-1.378,0-2.5-1.121-2.5-2.5V5C11.5,3.621,12.622,2.5,14,2.5h17.67c0.679,0,1.484,0.153,2.307,0.397v7.518
			c0,3.447,2.804,6.25,6.25,6.25H48c0.312,0.948,0.5,1.888,0.5,2.667V54.999z"/>
	</g>
</g>
</svg>
