<svg xmlns="http://www.w3.org/2000/svg" width="60" height="60" viewBox="0 0 60 60"><path d="M41.15 37.76c-1.2 0-2.68.15-4.4.47-2.4-2.55-4.9-6.26-6.66-9.9 1.7-7.37.52-8.86.2-9.35-.48-.53-1-.8-1.7-.8-.3 0-.6.04-.9.14-.75.25-1.3.78-1.65 1.54-.9 2.16.35 5.86 1.65 8.7-1.1 4.44-2.97 9.76-4.94 14.08-4.95 2.27-7.6 4.5-7.82 6.63-.08.78.1 1.92 1.46 2.94.38.3.8.5 1.28.5 1.15 0 2.3-.9 3.65-2.76.98-1.4 2.02-3.25 3.12-5.57 3.5-1.52 7.84-2.9 11.56-3.68 2.1 1.97 3.95 3 5.5 3 1.2 0 2.2-.56 2.95-1.58.75-1.06.93-2 .5-2.82-.5-1-1.74-1.46-3.8-1.46zM17.72 50.42c-.6-.47-.58-.8-.56-.9.08-.73 1.22-2.03 4.02-3.6-2.12 3.92-3.26 4.44-3.46 4.5zm10.42-29.7c.1-.2.2-.27.32-.3l.12-.05c.2.3.43 1.48 0 4.25-.5-1.6-.78-3.1-.44-3.9zm-2.4 20.67c1.34-3.2 2.58-6.7 3.5-9.9 1.48 2.6 3.25 5.2 5.02 7.2-2.8.64-5.77 1.6-8.5 2.63zm16.9-.7c-.4.57-.8.64-1.1.64-.7 0-1.65-.46-2.72-1.28.88-.1 1.67-.18 2.33-.18 1.16 0 1.63.17 1.8.25-.04.1-.1.27-.3.54zm4.83-29.96l-7.27-7.2C38.26 1.6 34.42 0 31.67 0H14c-2.75 0-5 2.25-5 5v50c0 2.75 2.25 5 5 5h32c2.75 0 5-2.25 5-5V19.33c0-2.75-1.6-6.6-3.53-8.53zm-11-6.9c.78.43 1.48.9 1.97 1.4l7.26 7.25c.4.42.8 1 1.17 1.6h-6.64c-2.07 0-3.75-1.68-3.75-3.75V3.93zM48.5 55c0 1.38-1.12 2.5-2.5 2.5H14c-1.38 0-2.5-1.12-2.5-2.5V5c0-1.38 1.12-2.5 2.5-2.5h17.67c.68 0 1.48.15 2.3.4v7.52c0 3.44 2.8 6.24 6.26 6.24H48c.3.95.5 1.9.5 2.67V55z"/></svg>
