<?xml version="1.0" encoding="utf-8"?>
<!-- Generator: Adobe Illustrator 19.2.0, SVG Export Plug-In . SVG Version: 6.00 Build 0)  -->
<!DOCTYPE svg PUBLIC "-//W3C//DTD SVG 1.1//EN" "http://www.w3.org/Graphics/SVG/1.1/DTD/svg11.dtd">
<svg version="1.1" id="layers" xmlns="http://www.w3.org/2000/svg" xmlns:xlink="http://www.w3.org/1999/xlink" x="0px" y="0px"
	 width="60px" height="60px" viewBox="0 0 60 60" style="enable-background:new 0 0 60 60;" xml:space="preserve">
<style type="text/css">
	.st0{fill-rule:evenodd;clip-rule:evenodd;fill:#231F20;}
	.st1{fill:#231F20;}
	.st2{fill-rule:evenodd;clip-rule:evenodd;}
	.st3{fill:#202020;}
</style>
<g>
	<g>
		<path d="M53.75,17.502H6.25c-3.446,0-6.25,2.803-6.25,6.249V38.75c0,3.446,2.804,6.251,6.25,6.251h6.25v11.25
			c0,0.691,0.56,1.249,1.25,1.249h32.5c0.69,0,1.25-0.558,1.25-1.249v-11.25h6.25c3.446,0,6.25-2.805,6.25-6.251V23.751
			C60,20.305,57.196,17.502,53.75,17.502z M45,55.001H15V37.502h30V55.001z M57.5,38.75c0,2.068-1.682,3.751-3.75,3.751H47.5v-6.25
			c0-0.692-0.56-1.251-1.25-1.251h-32.5c-0.69,0-1.25,0.559-1.25,1.251v6.25H6.25c-2.068,0-3.75-1.683-3.75-3.751V23.751
			C2.5,21.683,4.182,20,6.25,20h47.5c2.068,0,3.75,1.683,3.75,3.751V38.75z M13.75,15.001c0.69,0,1.25-0.559,1.25-1.25V5h22.5v6.25
			c0,0.692,0.56,1.251,1.25,1.251H45v1.25c0,0.692,0.56,1.25,1.25,1.25c0.69,0,1.25-0.559,1.25-1.25v-2.5
			c0-0.167-0.034-0.33-0.097-0.481c-0.064-0.153-0.157-0.29-0.273-0.405l-7.495-7.496c-0.115-0.115-0.252-0.207-0.404-0.271
			C39.08,2.534,38.917,2.5,38.75,2.5h-25c-0.69,0-1.25,0.561-1.25,1.251v10C12.5,14.442,13.059,15.001,13.75,15.001z M40,6.767
			l3.234,3.233H40V6.767z M8.75,22.5C6.682,22.5,5,24.183,5,26.25c0,2.068,1.682,3.751,3.75,3.751c2.068,0,3.75-1.683,3.75-3.751
			C12.5,24.183,10.818,22.5,8.75,22.5z M8.75,27.5c-0.689,0-1.25-0.56-1.25-1.25c0-0.689,0.561-1.25,1.25-1.25S10,25.562,10,26.25
			C10,26.94,9.439,27.5,8.75,27.5z M18.75,42.501h22.5c0.69,0,1.25-0.56,1.25-1.25c0-0.692-0.56-1.25-1.25-1.25h-22.5
			c-0.691,0-1.25,0.559-1.25,1.25C17.5,41.941,18.059,42.501,18.75,42.501z M18.75,47.5h22.5c0.69,0,1.25-0.559,1.25-1.25
			c0-0.691-0.56-1.25-1.25-1.25h-22.5c-0.691,0-1.25,0.559-1.25,1.25C17.5,46.942,18.059,47.5,18.75,47.5z M18.75,52.501h22.5
			c0.69,0,1.25-0.557,1.25-1.25c0-0.691-0.56-1.25-1.25-1.25h-22.5c-0.691,0-1.25,0.559-1.25,1.25
			C17.5,51.943,18.059,52.501,18.75,52.501z"/>
	</g>
</g>
</svg>
