<svg xmlns="http://www.w3.org/2000/svg" width="60" height="60" viewBox="0 0 60 60"><path d="M53.75 17.5H6.25C2.8 17.5 0 20.3 0 23.75v15C0 42.2 2.8 45 6.25 45h6.25v11.25c0 .7.56 1.25 1.25 1.25h32.5c.7 0 1.25-.56 1.25-1.25V45h6.25C57.2 45 60 42.2 60 38.75v-15c0-3.45-2.8-6.25-6.25-6.25zM45 55H15V37.5h30V55zm12.5-16.25c0 2.07-1.68 3.75-3.75 3.75H47.5v-6.25c0-.7-.56-1.25-1.25-1.25h-32.5c-.7 0-1.25.56-1.25 1.25v6.25H6.25c-2.07 0-3.75-1.68-3.75-3.75v-15C2.5 21.68 4.18 20 6.25 20h47.5c2.07 0 3.75 1.68 3.75 3.75v15zM13.75 15c.7 0 1.25-.56 1.25-1.25V5h22.5v6.25c0 .7.56 1.25 1.25 1.25H45v1.25c0 .7.56 1.25 1.25 1.25.7 0 1.25-.56 1.25-1.25v-2.5c0-.17-.03-.33-.1-.48-.06-.15-.15-.3-.27-.4l-7.5-7.5c-.1-.12-.25-.2-.4-.27-.15-.07-.3-.1-.48-.1h-25c-.7 0-1.25.56-1.25 1.25v10c0 .7.56 1.25 1.25 1.25zM40 6.77L43.23 10H40V6.77zM8.75 22.5C6.68 22.5 5 24.18 5 26.25 5 28.32 6.68 30 8.75 30c2.07 0 3.75-1.68 3.75-3.75 0-2.07-1.68-3.75-3.75-3.75zm0 5c-.7 0-1.25-.56-1.25-1.25 0-.7.56-1.25 1.25-1.25s1.25.56 1.25 1.25c0 .7-.56 1.25-1.25 1.25zm10 15h22.5c.7 0 1.25-.56 1.25-1.25 0-.7-.56-1.25-1.25-1.25h-22.5c-.7 0-1.25.56-1.25 1.25 0 .7.56 1.25 1.25 1.25zm0 5h22.5c.7 0 1.25-.56 1.25-1.25 0-.7-.56-1.25-1.25-1.25h-22.5c-.7 0-1.25.56-1.25 1.25 0 .7.56 1.25 1.25 1.25zm0 5h22.5c.7 0 1.25-.56 1.25-1.25 0-.7-.56-1.25-1.25-1.25h-22.5c-.7 0-1.25.56-1.25 1.25 0 .7.56 1.25 1.25 1.25z"/></svg>
