<svg xmlns="http://www.w3.org/2000/svg" width="60" height="60" viewBox="0 0 60 60"><path d="M24.97 0C17.4 0 11.22 7.3 11.22 16.25c0 5.7 2.5 10.72 6.28 13.62v5.5L5.8 39.55C2.33 40.8 0 44.1 0 47.78V55h31.25v-2.5H2.5v-4.72c0-2.63 1.67-5 4.14-5.88L20 37.13v-5.75c1.54.72 3.22 1.12 4.97 1.12 1.78 0 3.47-.4 5.03-1.14v4.9h2.5v-6.43c3.74-2.9 6.22-7.9 6.22-13.58C38.72 7.3 32.55 0 24.97 0zm0 2.5c5.5 0 10.1 4.87 11.06 11.27h-.05c-3.63.7-5.87-.48-8-4.2l-1.14-2-1.06 2.03c-1.16 2.2-5.04 4.15-8.3 4.15-1.28 0-2.37-.2-3.45-.65C15.2 7.03 19.66 2.5 24.97 2.5zm0 27.5c-6.2 0-11.25-6.17-11.25-13.75l.03-.6c1.17.4 2.38.6 3.72.6 3.44 0 7.2-1.63 9.34-3.87 2 2.77 4.36 4.08 7.34 4.08.67 0 1.36-.07 2.1-.2C36.2 23.84 31.16 30 24.96 30zm33.78 11.25H57.5V40c0-4.82-3.92-8.75-8.75-8.75S40 35.18 40 40v1.25h-1.25c-.7 0-1.25.56-1.25 1.25v16.25c0 .7.56 1.25 1.25 1.25h20c.7 0 1.25-.56 1.25-1.25V42.5c0-.7-.56-1.25-1.25-1.25zM42.5 40c0-3.45 2.8-6.25 6.25-6.25S55 36.55 55 40v1.25H42.5V40zm15 17.5H40V43.75h17.5V57.5zm-9.94-6.56c-.02.1-.06.2-.06.3v2.5c0 .7.56 1.26 1.25 1.26.7 0 1.25-.56 1.25-1.25v-2.5c0-.1-.04-.2-.06-.3.77-.44 1.3-1.25 1.3-2.2 0-1.38-1.1-2.5-2.5-2.5-1.37 0-2.5 1.12-2.5 2.5 0 .95.54 1.76 1.32 2.2z"/></svg>
