<?xml version="1.0" encoding="utf-8"?>
<!-- Generator: Adobe Illustrator 19.2.0, SVG Export Plug-In . SVG Version: 6.00 Build 0)  -->
<!DOCTYPE svg PUBLIC "-//W3C//DTD SVG 1.1//EN" "http://www.w3.org/Graphics/SVG/1.1/DTD/svg11.dtd">
<svg version="1.1" id="layers" xmlns="http://www.w3.org/2000/svg" xmlns:xlink="http://www.w3.org/1999/xlink" x="0px" y="0px"
	 width="60px" height="60px" viewBox="0 0 60 60" style="enable-background:new 0 0 60 60;" xml:space="preserve">
<style type="text/css">
	.st0{fill-rule:evenodd;clip-rule:evenodd;fill:#231F20;}
	.st1{fill:#231F20;}
	.st2{fill-rule:evenodd;clip-rule:evenodd;}
	.st3{fill:#202020;}
</style>
<g>
	<g>
		<path d="M24.971,0c-7.581,0-13.75,7.29-13.75,16.25c0,5.704,2.506,10.723,6.279,13.623v5.495L5.804,39.545
			C2.333,40.786,0,44.097,0,47.785v7.216h31.25v-2.502H2.5v-4.714c0-2.635,1.666-5.001,4.145-5.885L20,37.13v-5.745
			c1.544,0.711,3.216,1.116,4.971,1.116c1.776,0,3.469-0.413,5.029-1.141v4.892h2.5v-6.42c3.742-2.907,6.221-7.906,6.221-13.582
			C38.721,7.29,32.553,0,24.971,0z M24.971,2.5c5.509,0,10.097,4.868,11.057,11.267c-0.015,0.003-0.029,0.003-0.044,0.006
			c-3.633,0.702-5.879-0.481-8.014-4.217L26.835,7.57l-1.058,2.028c-1.154,2.211-5.035,4.151-8.306,4.151
			c-1.272,0-2.365-0.212-3.44-0.652C15.202,7.033,19.656,2.5,24.971,2.5z M24.971,30c-6.203,0-11.25-6.168-11.25-13.751
			c0-0.203,0.018-0.4,0.025-0.601c1.172,0.395,2.385,0.601,3.725,0.601c3.435,0,7.201-1.632,9.337-3.873
			c1.992,2.773,4.341,4.088,7.325,4.088c0.662,0,1.36-0.073,2.087-0.201C36.214,23.839,31.17,30,24.971,30z M58.75,41.25H57.5V40
			c0-4.824-3.925-8.75-8.75-8.75C43.925,31.25,40,35.176,40,40v1.25h-1.25c-0.69,0-1.25,0.559-1.25,1.25v16.25
			c0,0.69,0.56,1.25,1.25,1.25h20c0.69,0,1.25-0.56,1.25-1.25V42.5C60,41.81,59.44,41.25,58.75,41.25z M42.5,40
			c0-3.446,2.804-6.25,6.25-6.25c3.446,0,6.25,2.804,6.25,6.25v1.25H42.5V40z M57.5,57.499H40V43.751h17.5V57.499z M47.563,50.938
			C47.536,51.04,47.5,51.139,47.5,51.25v2.501c0,0.69,0.559,1.25,1.25,1.25c0.691,0,1.25-0.56,1.25-1.25V51.25
			c0-0.111-0.036-0.211-0.063-0.313c0.778-0.424,1.313-1.24,1.313-2.187c0-1.382-1.12-2.499-2.5-2.499c-1.382,0-2.5,1.117-2.5,2.499
			C46.25,49.698,46.784,50.514,47.563,50.938z"/>
	</g>
</g>
</svg>
