<svg xmlns="http://www.w3.org/2000/svg" width="60" height="60" viewBox="0 0 60 60"><path class="st1" d="M12.5 25v2.5c11.03 0 20 8.97 20 20H35C35 35.1 24.9 25 12.5 25z"/><path class="st1" d="M12.5 12.5V15C30.42 15 45 29.58 45 47.5h2.5c0-19.3-15.7-35-35-35zm5 25c-2.76 0-5 2.24-5 5s2.24 5 5 5 5-2.24 5-5-2.24-5-5-5zm0 7.5c-1.38 0-2.5-1.12-2.5-2.5s1.12-2.5 2.5-2.5 2.5 1.12 2.5 2.5-1.12 2.5-2.5 2.5z"/><path class="st1" d="M51.25 0H8.75C3.93 0 0 3.93 0 8.75v42.5C0 56.07 3.93 60 8.75 60h42.5c4.82 0 8.75-3.93 8.75-8.75V8.75C60 3.93 56.07 0 51.25 0zm6.25 51.25c0 3.45-2.8 6.25-6.25 6.25H8.75c-3.45 0-6.25-2.8-6.25-6.25V8.75C2.5 5.3 5.3 2.5 8.75 2.5h42.5c3.45 0 6.25 2.8 6.25 6.25v42.5z"/></svg>
