<?xml version="1.0" encoding="utf-8"?>
<!-- Generator: Adobe Illustrator 19.2.0, SVG Export Plug-In . SVG Version: 6.00 Build 0)  -->
<!DOCTYPE svg PUBLIC "-//W3C//DTD SVG 1.1//EN" "http://www.w3.org/Graphics/SVG/1.1/DTD/svg11.dtd">
<svg version="1.1" id="layers" xmlns="http://www.w3.org/2000/svg" xmlns:xlink="http://www.w3.org/1999/xlink" x="0px" y="0px"
	 width="60px" height="60px" viewBox="0 0 60 60" style="enable-background:new 0 0 60 60;" xml:space="preserve">
<style type="text/css">
	.st0{fill-rule:evenodd;clip-rule:evenodd;fill:#231F20;}
	.st1{fill:#231F20;}
	.st2{fill-rule:evenodd;clip-rule:evenodd;}
	.st3{fill:#202020;}
</style>
<g>
	<path class="st1" d="M12.5,25v2.5c11.028,0,20,8.972,20,20H35C35,35.094,24.906,25,12.5,25z"/>
	<path class="st1" d="M12.5,12.5V15C30.421,15,45,29.579,45,47.5h2.5C47.5,28.201,31.799,12.5,12.5,12.5z"/>
	<path class="st1" d="M17.5,37.5c-2.757,0-5,2.243-5,5s2.243,5,5,5s5-2.243,5-5S20.257,37.5,17.5,37.5z M17.5,45
		c-1.378,0-2.5-1.122-2.5-2.5s1.122-2.5,2.5-2.5s2.5,1.122,2.5,2.5S18.878,45,17.5,45z"/>
	<path class="st1" d="M51.25,0H8.75C3.926,0,0,3.926,0,8.75v42.5C0,56.074,3.926,60,8.75,60h42.5c4.824,0,8.75-3.926,8.75-8.75V8.75
		C60,3.926,56.074,0,51.25,0z M57.5,51.25c0,3.446-2.804,6.25-6.25,6.25H8.75c-3.446,0-6.25-2.804-6.25-6.25V8.75
		c0-3.446,2.804-6.25,6.25-6.25h42.5c3.446,0,6.25,2.804,6.25,6.25V51.25z"/>
</g>
</svg>
