<?xml version="1.0" encoding="utf-8"?>
<!-- Generator: Adobe Illustrator 19.2.0, SVG Export Plug-In . SVG Version: 6.00 Build 0)  -->
<!DOCTYPE svg PUBLIC "-//W3C//DTD SVG 1.1//EN" "http://www.w3.org/Graphics/SVG/1.1/DTD/svg11.dtd">
<svg version="1.1" id="layers" xmlns="http://www.w3.org/2000/svg" xmlns:xlink="http://www.w3.org/1999/xlink" x="0px" y="0px"
	 width="60px" height="60px" viewBox="0 0 60 60" style="enable-background:new 0 0 60 60;" xml:space="preserve">
<style type="text/css">
	.st0{fill-rule:evenodd;clip-rule:evenodd;fill:#231F20;}
	.st1{fill:#231F20;}
	.st2{fill-rule:evenodd;clip-rule:evenodd;}
	.st3{fill:#202020;}
</style>
<path class="st1" d="M22.528,45c5.309,0,10.185-1.871,14.03-4.978l19.074,19.241C56.118,59.754,56.757,60,57.397,60
	c0.636,0,1.271-0.243,1.757-0.727c0.976-0.973,0.979-2.559,0.009-3.536L40.066,36.472c3.045-3.842,4.878-8.693,4.878-13.971
	C44.944,10.094,34.888,0,22.528,0S0.112,10.094,0.112,22.501S10.168,45,22.528,45z M22.528,5.002c9.614,0,17.435,7.85,17.435,17.499
	s-7.821,17.5-17.435,17.5S5.093,32.15,5.093,22.501S12.915,5.002,22.528,5.002z"/>
</svg>
