<svg xmlns="http://www.w3.org/2000/svg" width="60" height="60" viewBox="0 0 60 60"><path class="st2" d="M6.12 60c-1.64 0-3.18-.64-4.33-1.8C.6 57.06 0 55.5 0 53.88s.64-3.17 1.8-4.32l24.6-24.58c-3.07-6.67-1.66-14.55 3.6-19.8C33.34 1.82 37.8 0 42.54 0c2.8 0 5.6.67 8.06 1.93.27.14.47.4.53.7.05.32-.03.63-.24.87l-7.16 8.18v5.78h4.5L56.4 9.3c.24-.2.57-.3.9-.25.32.05.6.25.74.54 3.5 6.82 2.2 15.06-3.22 20.5-3.33 3.32-7.75 5.15-12.46 5.15-2.53 0-5.06-.56-7.35-1.6L10.46 58.2C9.3 59.37 7.75 60 6.12 60zm36.4-57.98c-4.2 0-8.14 1.63-11.08 4.57-4.82 4.8-6 12.1-2.9 18.1.2.4.12.85-.2 1.16l-25.1 25.1c-.77.76-1.2 1.8-1.2 2.9 0 1.1.4 2.1 1.2 2.9 1.54 1.53 4.23 1.53 5.8 0l25.06-25.1c.3-.3.78-.4 1.17-.2 2.18 1.13 4.64 1.7 7.1 1.7 4.17 0 8.08-1.6 11.02-4.54 4.43-4.47 5.74-11.1 3.4-16.87l-7.43 7.4c-.2.2-.45.3-.7.3h-5.95c-.56 0-1.02-.45-1.02-1v-7.2c0-.23.1-.47.26-.65l6.48-7.44C46.6 2.4 44.56 2 42.5 2z"/></svg>
