<?xml version="1.0" encoding="utf-8"?>
<!-- Generator: Adobe Illustrator 19.2.0, SVG Export Plug-In . SVG Version: 6.00 Build 0)  -->
<!DOCTYPE svg PUBLIC "-//W3C//DTD SVG 1.1//EN" "http://www.w3.org/Graphics/SVG/1.1/DTD/svg11.dtd">
<svg version="1.1" id="layers" xmlns="http://www.w3.org/2000/svg" xmlns:xlink="http://www.w3.org/1999/xlink" x="0px" y="0px"
	 width="60px" height="60px" viewBox="0 0 60 60" style="enable-background:new 0 0 60 60;" xml:space="preserve">
<style type="text/css">
	.st0{fill-rule:evenodd;clip-rule:evenodd;fill:#231F20;}
	.st1{fill:#231F20;}
	.st2{fill-rule:evenodd;clip-rule:evenodd;}
	.st3{fill:#202020;}
</style>
<path class="st2" d="M6.115,60.001c-1.634,0-3.171-0.638-4.328-1.794C0.63,57.048-0.004,55.509,0,53.872
	c0.004-1.634,0.644-3.17,1.801-4.325l24.601-24.58c-3.068-6.67-1.664-14.543,3.604-19.81c3.327-3.327,7.775-5.157,12.524-5.157
	c2.807,0,5.596,0.666,8.063,1.928c0.278,0.144,0.475,0.405,0.533,0.711c0.059,0.307-0.026,0.623-0.231,0.857l-7.128,8.179v5.782
	h4.501l8.165-8.144c0.229-0.227,0.553-0.324,0.874-0.284c0.32,0.052,0.597,0.252,0.745,0.54c3.498,6.839,2.201,15.082-3.226,20.511
	c-3.326,3.326-7.748,5.156-12.451,5.156l0,0c-2.536,0-5.065-0.553-7.359-1.604L10.441,58.206
	C9.285,59.363,7.749,60.001,6.115,60.001z M42.531,2.025c-4.208,0-8.147,1.621-11.091,4.566c-4.82,4.82-5.989,12.102-2.907,18.125
	c0.2,0.391,0.125,0.866-0.186,1.177L3.234,50.979c-0.776,0.775-1.204,1.805-1.207,2.898c-0.003,1.095,0.421,2.121,1.194,2.895
	c1.548,1.548,4.239,1.548,5.788,0l25.084-25.085c0.313-0.313,0.789-0.387,1.179-0.186c2.182,1.118,4.639,1.708,7.104,1.708
	c4.162,0,8.075-1.62,11.018-4.562c4.468-4.472,5.772-11.095,3.441-16.872l-7.431,7.412c-0.19,0.189-0.447,0.296-0.715,0.296h-5.932
	c-0.56,0-1.014-0.454-1.014-1.014v-7.176c0-0.245,0.089-0.482,0.249-0.666l6.487-7.442C46.608,2.422,44.575,2.025,42.531,2.025z"/>
</svg>
