<svg xmlns="http://www.w3.org/2000/svg" width="60" height="60" viewBox="0 0 60 60"><path d="M60 9.54c-1 .62-4.04 1.85-6.87 2.16 1.8-1.08 4.5-4.62 5.16-7.43-1.8 1.23-5.8 3.03-7.8 3.03-2.27-2.6-5.44-4.25-8.96-4.25-6.83 0-12.38 6.12-12.38 13.68 0 1.04.1 2.06.3 3.04-9.26-.27-20.1-5.4-26.2-14.2C-.5 12.75 2.76 20.73 7 23.64c-1.45.13-4.14-.18-5.4-1.54-.1 4.77 1.98 11.1 9.54 13.37-1.43.86-4 .6-5.13.42.4 4 5.5 9.3 11.08 9.3-1.97 2.5-8.75 7.1-17.13 5.6 5.7 3.82 12.3 6.04 19.34 6.04 20 .04 35.5-17.84 34.7-39.9v-.44c1.8-1.37 4.26-3.8 6-7z"/></svg>
