<svg xmlns="http://www.w3.org/2000/svg" width="60" height="60" viewBox="0 0 60 60"><path d="M19.347 54.99c-5.307 0-12.656-1.042-18.805-5.75-.503-.385-.68-1.07-.43-1.657.25-.59.87-.924 1.483-.813.09.018 8.057 1.373 13.734-2.652-3.17-.913-7.03-3.343-8.65-8.66-.15-.47-.03-.98.29-1.344.14-.153.3-.27.49-.348-2.5-1.928-4.98-5.236-4.89-10.758.01-.518.3-.987.75-1.217.4-.2.864-.19 1.25.03-2.07-3.48-3.3-8.46-.28-13.72.222-.38.616-.64 1.055-.68.445-.04.87.14 1.157.49.097.12 9.71 11.5 21.575 11.8-.06-.51-.09-1.04-.09-1.56 0-7.233 5.78-13.122 12.89-13.122 3.28 0 6.37 1.24 8.76 3.504 1.515-.05 4-.46 6.5-2.283.4-.293.92-.34 1.37-.13.444.214.74.656.78 1.155.024.383 0 1.94-1.85 4.27.56-.19 1.04-.406 1.365-.65.466-.36 1.1-.37 1.582-.034.48.336.696.945.54 1.516-.125.454-.92 2.274-5.905 6.94.04 4.426-.97 28.71-27.57 35.04-.277.06-3.12.657-7.13.657zM6.75 49.73c9.026 4.02 19.016 1.927 19.133 1.902 11.283-2.685 19-9.024 22.912-18.84 2.928-7.348 2.523-13.933 2.518-13.998-.03-.424.135-.836.443-1.12 1.224-1.13 2.186-2.078 2.94-2.863-1.2.22-2.168.31-2.388.33-.593.05-1.16-.31-1.375-.88-.217-.57-.04-1.22.436-1.59.96-.76 1.71-1.46 2.29-2.07-1.89.62-3.53.71-4.57.71-.36-.01-.7-.16-.95-.415C46.21 8.9 43.63 7.8 40.89 7.8c-5.61 0-10.17 4.646-10.17 10.355 0 .874.1 1.74.31 2.58.1.4.02.828-.22 1.16-.24.335-.62.54-1.02.567-11.24.636-20.54-7.683-23.97-11.22C3.3 18 9.15 23.23 9.42 23.47c.406.352.57.912.42 1.434-.15.52-.58.91-1.104.988-1.158.178-2.316-.09-3.278-.46 1.11 6.615 7.27 8.043 7.56 8.106.58.126 1.01.614 1.07 1.207.06.595-.25 1.164-.78 1.41-.976.45-2.17.55-3.2.536 2.67 5.06 7.98 5.13 8.28 5.13h.008c.538 0 1.028.33 1.247.83.22.5.13 1.08-.23 1.49-3.66 4.12-8.776 5.35-12.67 5.61z"/></svg>
