<?xml version="1.0" encoding="utf-8"?>
<!-- Generator: Adobe Illustrator 19.2.0, SVG Export Plug-In . SVG Version: 6.00 Build 0)  -->
<!DOCTYPE svg PUBLIC "-//W3C//DTD SVG 1.1//EN" "http://www.w3.org/Graphics/SVG/1.1/DTD/svg11.dtd">
<svg version="1.1" id="layers" xmlns="http://www.w3.org/2000/svg" xmlns:xlink="http://www.w3.org/1999/xlink" x="0px" y="0px"
	 width="60px" height="60px" viewBox="0 0 60 60" style="enable-background:new 0 0 60 60;" xml:space="preserve">
<style type="text/css">
	.st0{fill-rule:evenodd;clip-rule:evenodd;fill:#231F20;}
	.st1{fill:#231F20;}
	.st2{fill-rule:evenodd;clip-rule:evenodd;}
	.st3{fill:#202020;}
</style>
<path d="M19.347,54.99c-5.307,0.001-12.656-1.042-18.805-5.75c-0.503-0.385-0.679-1.071-0.43-1.657
	c0.251-0.589,0.869-0.924,1.483-0.813c0.091,0.018,8.057,1.373,13.734-2.652c-3.168-0.913-7.025-3.343-8.642-8.66
	c-0.143-0.469-0.03-0.98,0.296-1.344c0.138-0.153,0.305-0.271,0.489-0.348c-2.498-1.928-4.975-5.236-4.886-10.758
	c0.009-0.518,0.3-0.987,0.756-1.217c0.398-0.203,0.864-0.192,1.249,0.021C2.52,18.33,1.289,13.349,4.307,8.093
	c0.223-0.386,0.617-0.64,1.056-0.679c0.444-0.042,0.871,0.14,1.156,0.485C6.618,8.02,16.232,19.394,28.096,19.7
	c-0.06-0.518-0.091-1.041-0.091-1.565c0-7.236,5.783-13.125,12.89-13.125c3.284,0,6.375,1.241,8.766,3.503
	c1.516-0.053,4.002-0.464,6.5-2.286c0.401-0.293,0.923-0.34,1.369-0.129c0.446,0.213,0.743,0.655,0.779,1.154
	c0.027,0.383,0,1.94-1.845,4.271c0.56-0.19,1.04-0.407,1.363-0.652c0.466-0.358,1.101-0.368,1.582-0.033
	c0.479,0.335,0.697,0.944,0.541,1.515c-0.125,0.454-0.919,2.274-5.905,6.939c0.042,4.427-0.969,28.714-27.568,35.041
	C26.203,54.395,23.358,54.99,19.347,54.99z M6.75,49.729c9.026,4.021,19.016,1.928,19.133,1.903
	c11.283-2.685,19-9.024,22.912-18.839c2.928-7.349,2.523-13.934,2.518-13.999c-0.029-0.424,0.135-0.836,0.443-1.12
	c1.224-1.13,2.186-2.078,2.939-2.863c-1.198,0.22-2.167,0.306-2.387,0.323c-0.593,0.051-1.159-0.309-1.375-0.881
	c-0.217-0.572-0.04-1.221,0.436-1.594c0.968-0.763,1.714-1.459,2.29-2.077c-1.884,0.617-3.528,0.711-4.567,0.707
	c-0.356-0.008-0.696-0.156-0.946-0.414c-1.928-1.994-4.503-3.093-7.25-3.093c-5.608,0-10.171,4.645-10.171,10.354
	c0,0.873,0.107,1.741,0.317,2.579c0.101,0.402,0.02,0.828-0.22,1.162c-0.24,0.333-0.615,0.54-1.02,0.565
	C18.566,23.078,9.262,14.759,5.838,11.22C3.31,17.993,9.163,23.224,9.434,23.46c0.405,0.354,0.57,0.914,0.423,1.436
	c-0.148,0.52-0.579,0.907-1.106,0.986c-1.157,0.176-2.315-0.089-3.277-0.463c1.112,6.617,7.271,8.045,7.561,8.108
	c0.574,0.125,1.006,0.613,1.069,1.206c0.062,0.594-0.253,1.163-0.787,1.41c-0.976,0.45-2.168,0.548-3.199,0.535
	c2.668,5.055,7.981,5.131,8.28,5.131c0.003,0,0.005,0,0.007,0c0.536,0,1.026,0.323,1.245,0.823c0.219,0.5,0.13,1.084-0.231,1.491
	C15.759,48.246,10.644,49.469,6.75,49.729z"/>
</svg>
