<?xml version="1.0" encoding="utf-8"?>
<!-- Generator: Adobe Illustrator 19.2.0, SVG Export Plug-In . SVG Version: 6.00 Build 0)  -->
<!DOCTYPE svg PUBLIC "-//W3C//DTD SVG 1.1//EN" "http://www.w3.org/Graphics/SVG/1.1/DTD/svg11.dtd">
<svg version="1.1" id="layers" xmlns="http://www.w3.org/2000/svg" xmlns:xlink="http://www.w3.org/1999/xlink" x="0px" y="0px"
	 width="60px" height="60px" viewBox="0 0 60 60" style="enable-background:new 0 0 60 60;" xml:space="preserve">
<style type="text/css">
	.st0{fill-rule:evenodd;clip-rule:evenodd;fill:#231F20;}
	.st1{fill:#231F20;}
	.st2{fill-rule:evenodd;clip-rule:evenodd;}
	.st3{fill:#202020;}
</style>
<path d="M60,9.545c-1.01,0.616-4.043,1.844-6.87,2.153c1.812-1.08,4.497-4.617,5.159-7.428c-1.743,1.229-5.746,3.021-7.723,3.021
	c0,0,0,0.005,0.004,0.009c-2.256-2.605-5.427-4.228-8.95-4.228c-6.833,0-12.378,6.122-12.378,13.673
	c0,1.049,0.113,2.068,0.319,3.048h-0.004c-9.272-0.262-20.112-5.396-26.22-14.186c-3.75,7.178-0.506,15.157,3.753,18.065
	c-1.454,0.127-4.142-0.183-5.405-1.54c-0.088,4.762,1.989,11.073,9.547,13.359c-1.457,0.87-4.028,0.623-5.152,0.433
	c0.396,4.024,5.493,9.284,11.063,9.284C15.158,47.741,8.383,52.349,0,50.88c5.695,3.832,12.334,6.048,19.362,6.048
	c19.969,0,35.478-17.878,34.643-39.935c0-0.024-0.007-0.053-0.007-0.071c0-0.062,0.007-0.122,0.007-0.176
	c0-0.069-0.007-0.132-0.007-0.206C55.814,15.173,58.253,12.746,60,9.545z"/>
</svg>
