<svg xmlns="http://www.w3.org/2000/svg" width="60" height="60" viewBox="0 0 60 60"><path d="M36.2 36.24H11.4c-.82 0-1.47.68-1.47 1.52s.65 1.52 1.46 1.52h24.8c.8 0 1.42-.68 1.42-1.52s-.65-1.52-1.46-1.52zm-24.8-9.9c6.26 0 11.37-5.32 11.37-11.86 0-6.55-5.1-11.87-11.38-11.87C5.1 2.6 0 7.98 0 14.5s5.1 11.87 11.4 11.87zm0-20.7c4.66 0 8.46 3.97 8.46 8.84 0 4.86-3.8 8.82-8.47 8.82-4.7 0-8.5-3.96-8.5-8.82 0-4.87 3.8-8.83 8.45-8.83zm21.08 20.7c4.23 0 7.67-3.58 7.67-7.98s-3.44-8-7.67-8c-4.22 0-7.66 3.6-7.66 8s3.44 8 7.66 8zm0-12.93c2.62 0 4.75 2.27 4.75 5 0 2.7-2.13 4.95-4.75 4.95s-4.74-2.22-4.74-4.94c0-2.73 2.13-4.95 4.74-4.95zm26.2 19c-.84-.6-1.93-.64-3-.2L45.1 36.8v-4.2c0-2.28-1.74-4.12-3.9-4.12H6.4c-2.17 0-3.94 1.84-3.94 4.1v20.7c0 2.27 1.77 4.1 3.94 4.1h34.75c2.17 0 3.94-1.83 3.94-4.1V49.1l10.6 4.6c.45.2.92.3 1.4.3.55 0 1.1-.17 1.6-.5.82-.6 1.3-1.6 1.3-2.8V35.17c0-1.2-.47-2.2-1.3-2.8zm-16.5 6.68V53.3c0 .58-.46 1.07-1 1.07H6.4c-.55 0-1.02-.5-1.02-1.07V32.6c0-.57.47-1.06 1.02-1.06h34.75c.55 0 1.02.5 1.02 1.07v6.48zM56.8 50.9l-11.7-5.1v-5.7l11.98-4.93-.27 15.7z"/></svg>
