<?xml version="1.0" encoding="utf-8"?>
<!-- Generator: Adobe Illustrator 19.2.1, SVG Export Plug-In . SVG Version: 6.00 Build 0)  -->
<!DOCTYPE svg PUBLIC "-//W3C//DTD SVG 1.1//EN" "http://www.w3.org/Graphics/SVG/1.1/DTD/svg11.dtd">
<svg version="1.1" id="layers" xmlns="http://www.w3.org/2000/svg" xmlns:xlink="http://www.w3.org/1999/xlink" x="0px" y="0px"
	 width="60px" height="60px" viewBox="0 0 60 60" style="enable-background:new 0 0 60 60;" xml:space="preserve">
<style type="text/css">
	.st0{fill-rule:evenodd;clip-rule:evenodd;fill:#231F20;}
	.st1{fill:#231F20;}
	.st2{fill-rule:evenodd;clip-rule:evenodd;}
	.st3{fill:#202020;}
</style>
<g>
	<g>
		<g>
			<g>
				<path d="M47.5,10.8l-7.3-7.3C38.3,1.6,34.4,0,31.7,0H14c-2.8,0-5,2.2-5,5v50c0,2.8,2.2,5,5,5h32c2.8,0,5-2.2,5-5V19.3
					C51,16.6,49.4,12.7,47.5,10.8z M36.5,3.9c0.8,0.4,1.5,0.9,2,1.4l7.3,7.3c0.4,0.4,0.8,1,1.2,1.6h-6.6c-2.1,0-3.8-1.7-3.8-3.7V3.9
					H36.5z M48.5,55c0,1.4-1.1,2.5-2.5,2.5H14c-1.4,0-2.5-1.1-2.5-2.5V5c0-1.4,1.1-2.5,2.5-2.5h17.7c0.7,0,1.5,0.2,2.3,0.4v7.5
					c0,3.4,2.8,6.3,6.2,6.3H48c0.3,0.9,0.5,1.9,0.5,2.7V55z"/>
			</g>
		</g>
	</g>
	<g>
		<polygon points="41.5,46 33.5,35.8 40.9,26.5 33.5,26.5 29.8,31.5 26.3,26.5 18.7,26.5 26.3,36 18.5,46 25.7,46 29.8,40.4 
			33.9,46 		"/>
	</g>
</g>
</svg>
